{"accessors":[{"bufferView":0,"byteOffset":0,"componentType":5123,"count":1497,"type":"SCALAR"},{"bufferView":1,"byteOffset":0,"componentType":5126,"count":1083,"max":[0.00384566769935191,0.0380011424422264,0.00286468374542892],"min":[-0.00367738679051,-0.0018700446235,-0.00373279862106],"type":"VEC3"},{"bufferView":2,"byteOffset":0,"componentType":5126,"count":1083,"type":"VEC3"},{"bufferView":3,"byteOffset":0,"componentType":5126,"count":1083,"type":"VEC4"},{"bufferView":4,"byteOffset":0,"componentType":5126,"count":1083,"type":"VEC2"},{"bufferView":5,"byteOffset":0,"componentType":5123,"count":1248,"type":"SCALAR"},{"bufferView":6,"byteOffset":0,"componentType":5126,"count":1248,"max":[0.0107610365375876,0.0520290546119213,0.00890175811946392],"min":[-0.00811112299562,0.0130405491217971,-0.00940784625709],"type":"VEC3"},{"bufferView":7,"byteOffset":0,"componentType":5126,"count":1248,"type":"VEC3"},{"bufferView":8,"byteOffset":0,"componentType":5126,"count":1248,"type":"VEC4"},{"bufferView":9,"byteOffset":0,"componentType":5126,"count":1248,"type":"VEC2"}],"asset":{"generator":"FBX2glTF v0.13.1","version":"2.0"},"bufferViews":[{"buffer":0,"byteLength":2994,"byteOffset":0,"target":34963},{"buffer":0,"byteLength":12996,"byteOffset":2996,"target":34962},{"buffer":0,"byteLength":12996,"byteOffset":15992,"target":34962},{"buffer":0,"byteLength":17328,"byteOffset":28988,"target":34962},{"buffer":0,"byteLength":8664,"byteOffset":46316,"target":34962},{"buffer":0,"byteLength":2496,"byteOffset":54980,"target":34963},{"buffer":0,"byteLength":14976,"byteOffset":57476,"target":34962},{"buffer":0,"byteLength":14976,"byteOffset":72452,"target":34962},{"buffer":0,"byteLength":19968,"byteOffset":87428,"target":34962},{"buffer":0,"byteLength":9984,"byteOffset":107396,"target":34962}],"buffers":[{"byteLength":117380,"uri":"tree-birch-young-a.bin"}],"materials":[{"alphaMode":"OPAQUE","doubleSided":false,"extras":{"fromFBX":{"isTruePBR":false,"shadingModel":"Phong"}},"name":"Universal Shader V10 - A","pbrMetallicRoughness":{"baseColorFactor":[0.0406777523458004,0.25547331571579,0.240420505404472,1],"metallicFactor":0.400000005960464,"roughnessFactor":0.229415729641914}},{"alphaMode":"OPAQUE","doubleSided":false,"extras":{"fromFBX":{"isTruePBR":false,"shadingModel":"Phong"}},"name":"Universal Foliage V1 - A","pbrMetallicRoughness":{"baseColorFactor":[0.230576917529106,0.438745319843292,0.0388147756457329,1],"metallicFactor":0.400000005960464,"roughnessFactor":0.229415729641914}}],"meshes":[{"name":"tree-birch-young-a","primitives":[{"attributes":{"COLOR_0":3,"NORMAL":2,"POSITION":1,"TEXCOORD_0":4},"indices":0,"material":0,"mode":4},{"attributes":{"COLOR_0":8,"NORMAL":7,"POSITION":6,"TEXCOORD_0":9},"indices":5,"material":1,"mode":4}]}],"nodes":[{"mesh":0,"name":"tree-birch-young-a","rotation":[0,0,0,1],"scale":[1,1,1],"translation":[0,0,0]}],"samplers":[{}],"scene":0,"scenes":[{"name":"Root Scene","nodes":[0]}]}