{"accessors":[{"bufferView":0,"byteOffset":0,"componentType":5123,"count":1404,"type":"SCALAR"},{"bufferView":1,"byteOffset":0,"componentType":5126,"count":1404,"max":[0.00632377713918686,0.00310615031048656,0.00559215294197202],"min":[-0.0082198381424,-0.00059481925564,-0.00574398646131],"type":"VEC3"},{"bufferView":2,"byteOffset":0,"componentType":5126,"count":1404,"type":"VEC3"},{"bufferView":3,"byteOffset":0,"componentType":5126,"count":1404,"type":"VEC2"}],"asset":{"generator":"FBX2glTF v0.13.1","version":"2.0"},"bufferViews":[{"buffer":0,"byteLength":2808,"byteOffset":0,"target":34963},{"buffer":0,"byteLength":16848,"byteOffset":2808,"target":34962},{"buffer":0,"byteLength":16848,"byteOffset":19656,"target":34962},{"buffer":0,"byteLength":11232,"byteOffset":36504,"target":34962}],"buffers":[{"byteLength":47736,"uri":"grass-thick-b.bin"}],"materials":[{"alphaMode":"OPAQUE","doubleSided":false,"extras":{"fromFBX":{"isTruePBR":false,"shadingModel":"Phong"}},"name":"Universal Foliage V1 - C.002","pbrMetallicRoughness":{"baseColorFactor":[0.0468500107526779,0.0668631121516228,0.00949752610176802,1],"metallicFactor":0.400000005960464,"roughnessFactor":0.229415729641914}}],"meshes":[{"name":"grass-thick-b","primitives":[{"attributes":{"NORMAL":2,"POSITION":1,"TEXCOORD_0":3},"indices":0,"material":0,"mode":4}]}],"nodes":[{"mesh":0,"name":"grass-thick-b","rotation":[0,0,0,1],"scale":[1,1,1],"translation":[0,0,0]}],"samplers":[{}],"scene":0,"scenes":[{"name":"Root Scene","nodes":[0]}]}