{"accessors":[{"bufferView":0,"byteOffset":0,"componentType":5123,"count":381,"type":"SCALAR"},{"bufferView":1,"byteOffset":0,"componentType":5126,"count":381,"max":[0.00261656101793051,0.00411582319065928,0.00295747281052172],"min":[-0.0033295750618,-0.00037531732232,-0.00318150222301],"type":"VEC3"},{"bufferView":2,"byteOffset":0,"componentType":5126,"count":381,"type":"VEC3"},{"bufferView":3,"byteOffset":0,"componentType":5126,"count":381,"type":"VEC4"},{"bufferView":4,"byteOffset":0,"componentType":5126,"count":381,"type":"VEC2"}],"asset":{"generator":"FBX2glTF v0.13.1","version":"2.0"},"bufferViews":[{"buffer":0,"byteLength":762,"byteOffset":0,"target":34963},{"buffer":0,"byteLength":4572,"byteOffset":764,"target":34962},{"buffer":0,"byteLength":4572,"byteOffset":5336,"target":34962},{"buffer":0,"byteLength":6096,"byteOffset":9908,"target":34962},{"buffer":0,"byteLength":3048,"byteOffset":16004,"target":34962}],"buffers":[{"byteLength":19052,"uri":"grass-medium-a.bin"}],"materials":[{"alphaMode":"BLEND","doubleSided":false,"extras":{"fromFBX":{"isTruePBR":false,"shadingModel":"Phong"}},"name":"Universal Foliage V1 - C.002","pbrMetallicRoughness":{"baseColorFactor":[0.0468500107526779,0.0668631121516228,0.00949752610176802,1],"metallicFactor":0.400000005960464,"roughnessFactor":0.229415729641914}}],"meshes":[{"name":"grass-medium-a","primitives":[{"attributes":{"COLOR_0":3,"NORMAL":2,"POSITION":1,"TEXCOORD_0":4},"indices":0,"material":0,"mode":4}]}],"nodes":[{"mesh":0,"name":"grass-medium-a","rotation":[0,0,0,1],"scale":[1,1,1],"translation":[0,0,0]}],"samplers":[{}],"scene":0,"scenes":[{"name":"Root Scene","nodes":[0]}]}