{"accessors":[{"bufferView":0,"byteOffset":0,"componentType":5123,"count":6615,"type":"SCALAR"},{"bufferView":1,"byteOffset":0,"componentType":5126,"count":6578,"max":[0.00839110184460878,0.00726105598732829,0.00879809726029634],"min":[-0.00866996776313,-0.0006203885423,-0.00830300711095],"type":"VEC3"},{"bufferView":2,"byteOffset":0,"componentType":5126,"count":6578,"type":"VEC3"},{"bufferView":3,"byteOffset":0,"componentType":5126,"count":6578,"type":"VEC2"}],"asset":{"generator":"FBX2glTF v0.13.1","version":"2.0"},"bufferViews":[{"buffer":0,"byteLength":13230,"byteOffset":0,"target":34963},{"buffer":0,"byteLength":78936,"byteOffset":13232,"target":34962},{"buffer":0,"byteLength":78936,"byteOffset":92168,"target":34962},{"buffer":0,"byteLength":52624,"byteOffset":171104,"target":34962}],"buffers":[{"byteLength":223728,"uri":"grass-middle-c.bin"}],"materials":[{"alphaMode":"OPAQUE","doubleSided":false,"extras":{"fromFBX":{"isTruePBR":false,"shadingModel":"Phong"}},"name":"Universal Foliage V1 - A","pbrMetallicRoughness":{"baseColorFactor":[0.230576917529106,0.438745319843292,0.0388147756457329,1],"metallicFactor":0.400000005960464,"roughnessFactor":0.229415729641914}}],"meshes":[{"name":"grass-middle-c","primitives":[{"attributes":{"NORMAL":2,"POSITION":1,"TEXCOORD_0":3},"indices":0,"material":0,"mode":4}]}],"nodes":[{"mesh":0,"name":"grass-middle-c","rotation":[0,0,0,1],"scale":[1,1,1],"translation":[0,0,0]}],"samplers":[{}],"scene":0,"scenes":[{"name":"Root Scene","nodes":[0]}]}