{"accessors":[{"bufferView":0,"byteOffset":0,"componentType":5123,"count":1077,"type":"SCALAR"},{"bufferView":1,"byteOffset":0,"componentType":5126,"count":783,"max":[0.00778280012309551,0.00703796232119203,0.00900834519416094],"min":[-0.00769068300724,-0.00035133989877,-0.00658901315182],"type":"VEC3"},{"bufferView":2,"byteOffset":0,"componentType":5126,"count":783,"type":"VEC3"},{"bufferView":3,"byteOffset":0,"componentType":5126,"count":783,"type":"VEC2"}],"asset":{"generator":"FBX2glTF v0.13.1","version":"2.0"},"bufferViews":[{"buffer":0,"byteLength":2154,"byteOffset":0,"target":34963},{"buffer":0,"byteLength":9396,"byteOffset":2156,"target":34962},{"buffer":0,"byteLength":9396,"byteOffset":11552,"target":34962},{"buffer":0,"byteLength":6264,"byteOffset":20948,"target":34962}],"buffers":[{"byteLength":27212,"uri":"grass-fern-mature-a.bin"}],"materials":[{"alphaMode":"OPAQUE","doubleSided":false,"extras":{"fromFBX":{"isTruePBR":false,"shadingModel":"Phong"}},"name":"Universal Foliage V1 - A","pbrMetallicRoughness":{"baseColorFactor":[0.230576917529106,0.438745319843292,0.0388147756457329,1],"metallicFactor":0.400000005960464,"roughnessFactor":0.229415729641914}}],"meshes":[{"name":"grass-fern-mature-a","primitives":[{"attributes":{"NORMAL":2,"POSITION":1,"TEXCOORD_0":3},"indices":0,"material":0,"mode":4}]}],"nodes":[{"mesh":0,"name":"grass-fern-mature-a","rotation":[0,0,0,1],"scale":[1,1,1],"translation":[0,0,0]}],"samplers":[{}],"scene":0,"scenes":[{"name":"Root Scene","nodes":[0]}]}