{"accessors":[{"bufferView":0,"byteOffset":0,"componentType":5123,"count":486,"type":"SCALAR"},{"bufferView":1,"byteOffset":0,"componentType":5126,"count":486,"max":[0.00853513088077307,0.00855044741183519,0.00962739251554012],"min":[-0.00916802883148,-0.0008167240303,-0.00951114948839],"type":"VEC3"},{"bufferView":2,"byteOffset":0,"componentType":5126,"count":486,"type":"VEC3"},{"bufferView":3,"byteOffset":0,"componentType":5126,"count":486,"type":"VEC4"},{"bufferView":4,"byteOffset":0,"componentType":5126,"count":486,"type":"VEC2"}],"asset":{"generator":"FBX2glTF v0.13.1","version":"2.0"},"bufferViews":[{"buffer":0,"byteLength":972,"byteOffset":0,"target":34963},{"buffer":0,"byteLength":5832,"byteOffset":972,"target":34962},{"buffer":0,"byteLength":5832,"byteOffset":6804,"target":34962},{"buffer":0,"byteLength":7776,"byteOffset":12636,"target":34962},{"buffer":0,"byteLength":3888,"byteOffset":20412,"target":34962}],"buffers":[{"byteLength":24300,"uri":"grass-big-a.bin"}],"materials":[{"alphaMode":"BLEND","doubleSided":false,"extras":{"fromFBX":{"isTruePBR":false,"shadingModel":"Phong"}},"name":"Universal Foliage V1 - A","pbrMetallicRoughness":{"baseColorFactor":[0.800000011920929,0.800000011920929,0.800000011920929,1],"metallicFactor":0.400000005960464,"roughnessFactor":0.140028014779091}}],"meshes":[{"name":"grass-big-a","primitives":[{"attributes":{"COLOR_0":3,"NORMAL":2,"POSITION":1,"TEXCOORD_0":4},"indices":0,"material":0,"mode":4}]}],"nodes":[{"mesh":0,"name":"grass-big-a","rotation":[0,0,0,1],"scale":[1,1,1],"translation":[0,0,0]}],"samplers":[{}],"scene":0,"scenes":[{"name":"Root Scene","nodes":[0]}]}