{"accessors":[{"bufferView":0,"byteOffset":0,"componentType":5123,"count":234,"type":"SCALAR"},{"bufferView":1,"byteOffset":0,"componentType":5126,"count":162,"max":[0.00154092279262841,0.0165978372097015,0.00125382118858397],"min":[-0.00017798907356,-0.00066991237691,-0.00017798635236],"type":"VEC3"},{"bufferView":2,"byteOffset":0,"componentType":5126,"count":162,"type":"VEC3"},{"bufferView":3,"byteOffset":0,"componentType":5126,"count":162,"type":"VEC2"},{"bufferView":4,"byteOffset":0,"componentType":5123,"count":144,"type":"SCALAR"},{"bufferView":5,"byteOffset":0,"componentType":5126,"count":144,"max":[0.00334285781718791,0.0189772974699736,0.00374458474107087],"min":[-0.00278195994906,-0.00066028622678,-0.0007234851364],"type":"VEC3"},{"bufferView":6,"byteOffset":0,"componentType":5126,"count":144,"type":"VEC3"},{"bufferView":7,"byteOffset":0,"componentType":5126,"count":144,"type":"VEC2"}],"asset":{"generator":"FBX2glTF v0.13.1","version":"2.0"},"bufferViews":[{"buffer":0,"byteLength":468,"byteOffset":0,"target":34963},{"buffer":0,"byteLength":1944,"byteOffset":468,"target":34962},{"buffer":0,"byteLength":1944,"byteOffset":2412,"target":34962},{"buffer":0,"byteLength":1296,"byteOffset":4356,"target":34962},{"buffer":0,"byteLength":288,"byteOffset":5652,"target":34963},{"buffer":0,"byteLength":1728,"byteOffset":5940,"target":34962},{"buffer":0,"byteLength":1728,"byteOffset":7668,"target":34962},{"buffer":0,"byteLength":1152,"byteOffset":9396,"target":34962}],"buffers":[{"byteLength":10548,"uri":"grass-reed-mature-b.bin"}],"materials":[{"alphaMode":"OPAQUE","doubleSided":false,"extras":{"fromFBX":{"isTruePBR":false,"shadingModel":"Phong"}},"name":"Universal Shader V4","pbrMetallicRoughness":{"baseColorFactor":[0.106610722839832,0.0447827018797398,0.0133064528927207,1],"metallicFactor":0.400000005960464,"roughnessFactor":0.229415729641914}},{"alphaMode":"OPAQUE","doubleSided":false,"extras":{"fromFBX":{"isTruePBR":false,"shadingModel":"Phong"}},"name":"Universal Foliage V1 - A","pbrMetallicRoughness":{"baseColorFactor":[0.230576917529106,0.438745319843292,0.0388147756457329,1],"metallicFactor":0.400000005960464,"roughnessFactor":0.229415729641914}}],"meshes":[{"name":"grass-reed-mature-b","primitives":[{"attributes":{"NORMAL":2,"POSITION":1,"TEXCOORD_0":3},"indices":0,"material":0,"mode":4},{"attributes":{"NORMAL":6,"POSITION":5,"TEXCOORD_0":7},"indices":4,"material":1,"mode":4}]}],"nodes":[{"mesh":0,"name":"grass-reed-mature-b","rotation":[0,0,0,1],"scale":[1,1,1],"translation":[0,0,0]}],"samplers":[{}],"scene":0,"scenes":[{"name":"Root Scene","nodes":[0]}]}