{"accessors":[{"bufferView":0,"byteOffset":0,"componentType":5123,"count":2280,"type":"SCALAR"},{"bufferView":1,"byteOffset":0,"componentType":5126,"count":2259,"max":[0.00850007962435484,0.00483646523207426,0.00723019521683455],"min":[-0.01044933032244,-0.00031435012352,-0.00669153220952],"type":"VEC3"},{"bufferView":2,"byteOffset":0,"componentType":5126,"count":2259,"type":"VEC3"},{"bufferView":3,"byteOffset":0,"componentType":5126,"count":2259,"type":"VEC4"},{"bufferView":4,"byteOffset":0,"componentType":5126,"count":2259,"type":"VEC2"}],"asset":{"generator":"FBX2glTF v0.13.1","version":"2.0"},"bufferViews":[{"buffer":0,"byteLength":4560,"byteOffset":0,"target":34963},{"buffer":0,"byteLength":27108,"byteOffset":4560,"target":34962},{"buffer":0,"byteLength":27108,"byteOffset":31668,"target":34962},{"buffer":0,"byteLength":36144,"byteOffset":58776,"target":34962},{"buffer":0,"byteLength":18072,"byteOffset":94920,"target":34962}],"buffers":[{"byteLength":112992,"uri":"grass-medium-c.bin"}],"materials":[{"alphaMode":"BLEND","doubleSided":false,"extras":{"fromFBX":{"isTruePBR":false,"shadingModel":"Phong"}},"name":"Universal Foliage V1 - C.002","pbrMetallicRoughness":{"baseColorFactor":[0.0468500107526779,0.0668631121516228,0.00949752610176802,1],"metallicFactor":0.400000005960464,"roughnessFactor":0.229415729641914}}],"meshes":[{"name":"grass-medium-c","primitives":[{"attributes":{"COLOR_0":3,"NORMAL":2,"POSITION":1,"TEXCOORD_0":4},"indices":0,"material":0,"mode":4}]}],"nodes":[{"mesh":0,"name":"grass-medium-c","rotation":[0,0,0,1],"scale":[1,1,1],"translation":[0,0,0]}],"samplers":[{}],"scene":0,"scenes":[{"name":"Root Scene","nodes":[0]}]}