{"accessors":[{"bufferView":0,"byteOffset":0,"componentType":5123,"count":378,"type":"SCALAR"},{"bufferView":1,"byteOffset":0,"componentType":5126,"count":306,"max":[0.00246316520497203,0.0193856619298458,0.00198415457271039],"min":[-0.00081492890604,-0.00074173108442,-0.00017798635236],"type":"VEC3"},{"bufferView":2,"byteOffset":0,"componentType":5126,"count":306,"type":"VEC3"},{"bufferView":3,"byteOffset":0,"componentType":5126,"count":306,"type":"VEC2"}],"asset":{"generator":"FBX2glTF v0.13.1","version":"2.0"},"bufferViews":[{"buffer":0,"byteLength":756,"byteOffset":0,"target":34963},{"buffer":0,"byteLength":3672,"byteOffset":756,"target":34962},{"buffer":0,"byteLength":3672,"byteOffset":4428,"target":34962},{"buffer":0,"byteLength":2448,"byteOffset":8100,"target":34962}],"buffers":[{"byteLength":10548,"uri":"grass-reed-mature-a.bin"}],"materials":[{"alphaMode":"OPAQUE","doubleSided":false,"extras":{"fromFBX":{"isTruePBR":false,"shadingModel":"Phong"}},"name":"Universal Foliage V1 - A","pbrMetallicRoughness":{"baseColorFactor":[0.230576917529106,0.438745319843292,0.0388147756457329,1],"metallicFactor":0.400000005960464,"roughnessFactor":0.229415729641914}}],"meshes":[{"name":"grass-reed-mature-a","primitives":[{"attributes":{"NORMAL":2,"POSITION":1,"TEXCOORD_0":3},"indices":0,"material":0,"mode":4}]}],"nodes":[{"mesh":0,"name":"grass-reed-mature-a","rotation":[0,0,0,1],"scale":[1,1,1],"translation":[0,0,0]}],"samplers":[{}],"scene":0,"scenes":[{"name":"Root Scene","nodes":[0]}]}