{"accessors":[{"bufferView":0,"byteOffset":0,"componentType":5123,"count":1854,"type":"SCALAR"},{"bufferView":1,"byteOffset":0,"componentType":5126,"count":1854,"max":[0.00511170597746968,0.00341498758643866,0.00560655817389488],"min":[-0.00790501479059,-0.00022185409034,-0.00518672494218],"type":"VEC3"},{"bufferView":2,"byteOffset":0,"componentType":5126,"count":1854,"type":"VEC3"},{"bufferView":3,"byteOffset":0,"componentType":5126,"count":1854,"type":"VEC4"},{"bufferView":4,"byteOffset":0,"componentType":5126,"count":1854,"type":"VEC2"}],"asset":{"generator":"FBX2glTF v0.13.1","version":"2.0"},"bufferViews":[{"buffer":0,"byteLength":3708,"byteOffset":0,"target":34963},{"buffer":0,"byteLength":22248,"byteOffset":3708,"target":34962},{"buffer":0,"byteLength":22248,"byteOffset":25956,"target":34962},{"buffer":0,"byteLength":29664,"byteOffset":48204,"target":34962},{"buffer":0,"byteLength":14832,"byteOffset":77868,"target":34962}],"buffers":[{"byteLength":92700,"uri":"grass-medium-b.bin"}],"materials":[{"alphaMode":"BLEND","doubleSided":false,"extras":{"fromFBX":{"isTruePBR":false,"shadingModel":"Phong"}},"name":"Universal Foliage V1 - C.002","pbrMetallicRoughness":{"baseColorFactor":[0.0468500107526779,0.0668631121516228,0.00949752610176802,1],"metallicFactor":0.400000005960464,"roughnessFactor":0.229415729641914}}],"meshes":[{"name":"grass-medium-b","primitives":[{"attributes":{"COLOR_0":3,"NORMAL":2,"POSITION":1,"TEXCOORD_0":4},"indices":0,"material":0,"mode":4}]}],"nodes":[{"mesh":0,"name":"grass-medium-b","rotation":[0,0,0,1],"scale":[1,1,1],"translation":[0,0,0]}],"samplers":[{}],"scene":0,"scenes":[{"name":"Root Scene","nodes":[0]}]}