{"accessors":[{"bufferView":0,"byteOffset":0,"componentType":5123,"count":2376,"type":"SCALAR"},{"bufferView":1,"byteOffset":0,"componentType":5126,"count":2376,"max":[0.00607589352875948,0.00376957189291716,0.00620502140372992],"min":[-0.00592255452648,-0.00072186265606,-0.00550247402862],"type":"VEC3"},{"bufferView":2,"byteOffset":0,"componentType":5126,"count":2376,"type":"VEC3"},{"bufferView":3,"byteOffset":0,"componentType":5126,"count":2376,"type":"VEC4"},{"bufferView":4,"byteOffset":0,"componentType":5126,"count":2376,"type":"VEC2"}],"asset":{"generator":"FBX2glTF v0.13.1","version":"2.0"},"bufferViews":[{"buffer":0,"byteLength":4752,"byteOffset":0,"target":34963},{"buffer":0,"byteLength":28512,"byteOffset":4752,"target":34962},{"buffer":0,"byteLength":28512,"byteOffset":33264,"target":34962},{"buffer":0,"byteLength":38016,"byteOffset":61776,"target":34962},{"buffer":0,"byteLength":19008,"byteOffset":99792,"target":34962}],"buffers":[{"byteLength":118800,"uri":"grass-small-c.bin"}],"materials":[{"alphaMode":"BLEND","doubleSided":false,"extras":{"fromFBX":{"isTruePBR":false,"shadingModel":"Phong"}},"name":"Universal Foliage V1 - A","pbrMetallicRoughness":{"baseColorFactor":[0.800000011920929,0.800000011920929,0.800000011920929,1],"metallicFactor":0.400000005960464,"roughnessFactor":0.140028014779091}}],"meshes":[{"name":"grass-small-c","primitives":[{"attributes":{"COLOR_0":3,"NORMAL":2,"POSITION":1,"TEXCOORD_0":4},"indices":0,"material":0,"mode":4}]}],"nodes":[{"mesh":0,"name":"grass-small-c","rotation":[0,0,0,1],"scale":[1,1,1],"translation":[0,0,0]}],"samplers":[{}],"scene":0,"scenes":[{"name":"Root Scene","nodes":[0]}]}