{"accessors":[{"bufferView":0,"byteOffset":0,"componentType":5123,"count":342,"type":"SCALAR"},{"bufferView":1,"byteOffset":0,"componentType":5126,"count":342,"max":[0.00344629609026015,0.00310615031048656,0.00369333359412849],"min":[-0.00279046222568,-0.00059481925564,-0.00319598941132],"type":"VEC3"},{"bufferView":2,"byteOffset":0,"componentType":5126,"count":342,"type":"VEC3"},{"bufferView":3,"byteOffset":0,"componentType":5126,"count":342,"type":"VEC2"}],"asset":{"generator":"FBX2glTF v0.13.1","version":"2.0"},"bufferViews":[{"buffer":0,"byteLength":684,"byteOffset":0,"target":34963},{"buffer":0,"byteLength":4104,"byteOffset":684,"target":34962},{"buffer":0,"byteLength":4104,"byteOffset":4788,"target":34962},{"buffer":0,"byteLength":2736,"byteOffset":8892,"target":34962}],"buffers":[{"byteLength":11628,"uri":"grass-thick-a.bin"}],"materials":[{"alphaMode":"OPAQUE","doubleSided":false,"extras":{"fromFBX":{"isTruePBR":false,"shadingModel":"Phong"}},"name":"Universal Foliage V1 - C.002","pbrMetallicRoughness":{"baseColorFactor":[0.0468500107526779,0.0668631121516228,0.00949752610176802,1],"metallicFactor":0.400000005960464,"roughnessFactor":0.229415729641914}}],"meshes":[{"name":"grass-thick-a","primitives":[{"attributes":{"NORMAL":2,"POSITION":1,"TEXCOORD_0":3},"indices":0,"material":0,"mode":4}]}],"nodes":[{"mesh":0,"name":"grass-thick-a","rotation":[0,0,0,1],"scale":[1,1,1],"translation":[0,0,0]}],"samplers":[{}],"scene":0,"scenes":[{"name":"Root Scene","nodes":[0]}]}