{"accessors":[{"bufferView":0,"byteOffset":0,"componentType":5123,"count":9,"type":"SCALAR"},{"bufferView":1,"byteOffset":0,"componentType":5126,"count":9,"max":[0.00298396870493889,0.00827179290354252,0.00218864250928164],"min":[0.00026446839910931,0.00606087734922767,-0.00186798640061],"type":"VEC3"},{"bufferView":2,"byteOffset":0,"componentType":5126,"count":9,"type":"VEC3"},{"bufferView":3,"byteOffset":0,"componentType":5126,"count":9,"type":"VEC4"},{"bufferView":4,"byteOffset":0,"componentType":5126,"count":9,"type":"VEC2"},{"bufferView":5,"byteOffset":0,"componentType":5123,"count":381,"type":"SCALAR"},{"bufferView":6,"byteOffset":0,"componentType":5126,"count":381,"max":[0.00346334162168205,0.00758566474542022,0.00304695777595043],"min":[-0.00273256585933,-0.00045611415408,-0.00357977580279],"type":"VEC3"},{"bufferView":7,"byteOffset":0,"componentType":5126,"count":381,"type":"VEC3"},{"bufferView":8,"byteOffset":0,"componentType":5126,"count":381,"type":"VEC4"},{"bufferView":9,"byteOffset":0,"componentType":5126,"count":381,"type":"VEC2"}],"asset":{"generator":"FBX2glTF v0.13.1","version":"2.0"},"bufferViews":[{"buffer":0,"byteLength":18,"byteOffset":0,"target":34963},{"buffer":0,"byteLength":108,"byteOffset":20,"target":34962},{"buffer":0,"byteLength":108,"byteOffset":128,"target":34962},{"buffer":0,"byteLength":144,"byteOffset":236,"target":34962},{"buffer":0,"byteLength":72,"byteOffset":380,"target":34962},{"buffer":0,"byteLength":762,"byteOffset":452,"target":34963},{"buffer":0,"byteLength":4572,"byteOffset":1216,"target":34962},{"buffer":0,"byteLength":4572,"byteOffset":5788,"target":34962},{"buffer":0,"byteLength":6096,"byteOffset":10360,"target":34962},{"buffer":0,"byteLength":3048,"byteOffset":16456,"target":34962}],"buffers":[{"byteLength":19504,"uri":"grass-middle-a.bin"}],"materials":[{"alphaMode":"BLEND","doubleSided":false,"extras":{"fromFBX":{"isTruePBR":false,"shadingModel":"Phong"}},"name":"Universal Foliage V1 - A","pbrMetallicRoughness":{"baseColorFactor":[0.230576917529106,0.438745319843292,0.0388147756457329,1],"metallicFactor":0.400000005960464,"roughnessFactor":0.229415729641914}},{"alphaMode":"OPAQUE","doubleSided":false,"extras":{"fromFBX":{"isTruePBR":false,"shadingModel":"Phong"}},"name":"Universal Foliage V1 - A 1","pbrMetallicRoughness":{"baseColorFactor":[0.230576917529106,0.438745319843292,0.0388147756457329,1],"metallicFactor":0.400000005960464,"roughnessFactor":0.229415729641914}}],"meshes":[{"name":"grass-middle-a","primitives":[{"attributes":{"COLOR_0":3,"NORMAL":2,"POSITION":1,"TEXCOORD_0":4},"indices":0,"material":1,"mode":4},{"attributes":{"COLOR_0":8,"NORMAL":7,"POSITION":6,"TEXCOORD_0":9},"indices":5,"material":1,"mode":4}]}],"nodes":[{"mesh":0,"name":"grass-middle-a","rotation":[0,0,0,1],"scale":[1,1,1],"translation":[0,0,0]}],"samplers":[{}],"scene":0,"scenes":[{"name":"Root Scene","nodes":[0]}]}