{"accessors":[{"bufferView":0,"byteOffset":0,"componentType":5123,"count":486,"type":"SCALAR"},{"bufferView":1,"byteOffset":0,"componentType":5126,"count":486,"max":[0.00832679402083158,0.0146401450037956,0.0053550498560071],"min":[-0.00886171590537,-0.00084190128837,-0.00895121041685],"type":"VEC3"},{"bufferView":2,"byteOffset":0,"componentType":5126,"count":486,"type":"VEC3"},{"bufferView":3,"byteOffset":0,"componentType":5126,"count":486,"type":"VEC2"}],"asset":{"generator":"FBX2glTF v0.13.1","version":"2.0"},"bufferViews":[{"buffer":0,"byteLength":972,"byteOffset":0,"target":34963},{"buffer":0,"byteLength":5832,"byteOffset":972,"target":34962},{"buffer":0,"byteLength":5832,"byteOffset":6804,"target":34962},{"buffer":0,"byteLength":3888,"byteOffset":12636,"target":34962}],"buffers":[{"byteLength":16524,"uri":"grass-big-b.bin"}],"materials":[{"alphaMode":"OPAQUE","doubleSided":false,"extras":{"fromFBX":{"isTruePBR":false,"shadingModel":"Phong"}},"name":"Universal Foliage V1 - A","pbrMetallicRoughness":{"baseColorFactor":[0.230576917529106,0.438745319843292,0.0388147756457329,1],"metallicFactor":0.400000005960464,"roughnessFactor":0.229415729641914}}],"meshes":[{"name":"grass-big-b","primitives":[{"attributes":{"NORMAL":2,"POSITION":1,"TEXCOORD_0":3},"indices":0,"material":0,"mode":4}]}],"nodes":[{"mesh":0,"name":"grass-big-b","rotation":[0,0,0,1],"scale":[1,1,1],"translation":[0,0,0]}],"samplers":[{}],"scene":0,"scenes":[{"name":"Root Scene","nodes":[0]}]}