{"accessors":[{"bufferView":0,"byteOffset":0,"componentType":5123,"count":4563,"type":"SCALAR"},{"bufferView":1,"byteOffset":0,"componentType":5126,"count":4563,"max":[0.0115305837243795,0.00512367812916636,0.00908191781491041],"min":[-0.01184668112546,-0.00098117033485,-0.00967980921268],"type":"VEC3"},{"bufferView":2,"byteOffset":0,"componentType":5126,"count":4563,"type":"VEC3"},{"bufferView":3,"byteOffset":0,"componentType":5126,"count":4563,"type":"VEC2"}],"asset":{"generator":"FBX2glTF v0.13.1","version":"2.0"},"bufferViews":[{"buffer":0,"byteLength":9126,"byteOffset":0,"target":34963},{"buffer":0,"byteLength":54756,"byteOffset":9128,"target":34962},{"buffer":0,"byteLength":54756,"byteOffset":63884,"target":34962},{"buffer":0,"byteLength":36504,"byteOffset":118640,"target":34962}],"buffers":[{"byteLength":155144,"uri":"grass-thick-c.bin"}],"materials":[{"alphaMode":"OPAQUE","doubleSided":false,"extras":{"fromFBX":{"isTruePBR":false,"shadingModel":"Phong"}},"name":"Universal Foliage V1 - C.002","pbrMetallicRoughness":{"baseColorFactor":[0.0468500107526779,0.0668631121516228,0.00949752610176802,1],"metallicFactor":0.400000005960464,"roughnessFactor":0.229415729641914}}],"meshes":[{"name":"grass-thick-c","primitives":[{"attributes":{"NORMAL":2,"POSITION":1,"TEXCOORD_0":3},"indices":0,"material":0,"mode":4}]}],"nodes":[{"mesh":0,"name":"grass-thick-c","rotation":[0,0,0,1],"scale":[1,1,1],"translation":[0,0,0]}],"samplers":[{}],"scene":0,"scenes":[{"name":"Root Scene","nodes":[0]}]}