{"accessors":[{"bufferView":0,"byteOffset":0,"componentType":5123,"count":27,"type":"SCALAR"},{"bufferView":1,"byteOffset":0,"componentType":5126,"count":27,"max":[0.00376340793445706,0.00827179290354252,0.00413289247080684],"min":[-0.00191570608877,0.00623633479699492,-0.00267963786609],"type":"VEC3"},{"bufferView":2,"byteOffset":0,"componentType":5126,"count":27,"type":"VEC3"},{"bufferView":3,"byteOffset":0,"componentType":5126,"count":27,"type":"VEC4"},{"bufferView":4,"byteOffset":0,"componentType":5126,"count":27,"type":"VEC2"},{"bufferView":5,"byteOffset":0,"componentType":5123,"count":1296,"type":"SCALAR"},{"bufferView":6,"byteOffset":0,"componentType":5126,"count":1289,"max":[0.00424278061836958,0.00758566474542022,0.00613864231854677],"min":[-0.00555362878367,-0.00045611415408,-0.00439142715186],"type":"VEC3"},{"bufferView":7,"byteOffset":0,"componentType":5126,"count":1289,"type":"VEC3"},{"bufferView":8,"byteOffset":0,"componentType":5126,"count":1289,"type":"VEC4"},{"bufferView":9,"byteOffset":0,"componentType":5126,"count":1289,"type":"VEC2"}],"asset":{"generator":"FBX2glTF v0.13.1","version":"2.0"},"bufferViews":[{"buffer":0,"byteLength":54,"byteOffset":0,"target":34963},{"buffer":0,"byteLength":324,"byteOffset":56,"target":34962},{"buffer":0,"byteLength":324,"byteOffset":380,"target":34962},{"buffer":0,"byteLength":432,"byteOffset":704,"target":34962},{"buffer":0,"byteLength":216,"byteOffset":1136,"target":34962},{"buffer":0,"byteLength":2592,"byteOffset":1352,"target":34963},{"buffer":0,"byteLength":15468,"byteOffset":3944,"target":34962},{"buffer":0,"byteLength":15468,"byteOffset":19412,"target":34962},{"buffer":0,"byteLength":20624,"byteOffset":34880,"target":34962},{"buffer":0,"byteLength":10312,"byteOffset":55504,"target":34962}],"buffers":[{"byteLength":65816,"uri":"grass-middle-b.bin"}],"materials":[{"alphaMode":"BLEND","doubleSided":false,"extras":{"fromFBX":{"isTruePBR":false,"shadingModel":"Phong"}},"name":"Universal Foliage V1 - A","pbrMetallicRoughness":{"baseColorFactor":[0.230576917529106,0.438745319843292,0.0388147756457329,1],"metallicFactor":0.400000005960464,"roughnessFactor":0.229415729641914}},{"alphaMode":"OPAQUE","doubleSided":false,"extras":{"fromFBX":{"isTruePBR":false,"shadingModel":"Phong"}},"name":"Universal Foliage V1 - A 1","pbrMetallicRoughness":{"baseColorFactor":[0.230576917529106,0.438745319843292,0.0388147756457329,1],"metallicFactor":0.400000005960464,"roughnessFactor":0.229415729641914}}],"meshes":[{"name":"grass-middle-b","primitives":[{"attributes":{"COLOR_0":3,"NORMAL":2,"POSITION":1,"TEXCOORD_0":4},"indices":0,"material":1,"mode":4},{"attributes":{"COLOR_0":8,"NORMAL":7,"POSITION":6,"TEXCOORD_0":9},"indices":5,"material":1,"mode":4}]}],"nodes":[{"mesh":0,"name":"grass-middle-b","rotation":[0,0,0,1],"scale":[1,1,1],"translation":[0,0,0]}],"samplers":[{}],"scene":0,"scenes":[{"name":"Root Scene","nodes":[0]}]}