{"accessors":[{"bufferView":0,"byteOffset":0,"componentType":5123,"count":888,"type":"SCALAR"},{"bufferView":1,"byteOffset":0,"componentType":5126,"count":888,"max":[0.00705091282725334,0.00776501419022679,0.0070796343497932],"min":[-0.00689173070714,-0.00050353480037,-0.00703390594572],"type":"VEC3"},{"bufferView":2,"byteOffset":0,"componentType":5126,"count":888,"type":"VEC3"},{"bufferView":3,"byteOffset":0,"componentType":5126,"count":888,"type":"VEC2"}],"asset":{"generator":"FBX2glTF v0.13.1","version":"2.0"},"bufferViews":[{"buffer":0,"byteLength":1776,"byteOffset":0,"target":34963},{"buffer":0,"byteLength":10656,"byteOffset":1776,"target":34962},{"buffer":0,"byteLength":10656,"byteOffset":12432,"target":34962},{"buffer":0,"byteLength":7104,"byteOffset":23088,"target":34962}],"buffers":[{"byteLength":30192,"uri":"grass-fern-mature-b.bin"}],"materials":[{"alphaMode":"OPAQUE","doubleSided":false,"extras":{"fromFBX":{"isTruePBR":false,"shadingModel":"Phong"}},"name":"Universal Foliage V1 - A","pbrMetallicRoughness":{"baseColorFactor":[0.230576917529106,0.438745319843292,0.0388147756457329,1],"metallicFactor":0.400000005960464,"roughnessFactor":0.229415729641914}}],"meshes":[{"name":"grass-fern-mature-b","primitives":[{"attributes":{"NORMAL":2,"POSITION":1,"TEXCOORD_0":3},"indices":0,"material":0,"mode":4}]}],"nodes":[{"mesh":0,"name":"grass-fern-mature-b","rotation":[0,0,0,1],"scale":[1,1,1],"translation":[0,0,0]}],"samplers":[{}],"scene":0,"scenes":[{"name":"Root Scene","nodes":[0]}]}