{"accessors":[{"bufferView":0,"byteOffset":0,"componentType":5123,"count":4656,"type":"SCALAR"},{"bufferView":1,"byteOffset":0,"componentType":5126,"count":4656,"max":[0.0337259471416473,0.00093305605696514,0.0320480428636074],"min":[-0.02988441847265,-0.00060236384161,-0.02987169846892],"type":"VEC3"},{"bufferView":2,"byteOffset":0,"componentType":5126,"count":4656,"type":"VEC3"},{"bufferView":3,"byteOffset":0,"componentType":5126,"count":4656,"type":"VEC2"}],"asset":{"generator":"FBX2glTF v0.13.1","version":"2.0"},"bufferViews":[{"buffer":0,"byteLength":9312,"byteOffset":0,"target":34963},{"buffer":0,"byteLength":55872,"byteOffset":9312,"target":34962},{"buffer":0,"byteLength":55872,"byteOffset":65184,"target":34962},{"buffer":0,"byteLength":37248,"byteOffset":121056,"target":34962}],"buffers":[{"byteLength":158304,"uri":"ground-stones-c.bin"}],"materials":[{"alphaMode":"OPAQUE","doubleSided":false,"extras":{"fromFBX":{"isTruePBR":false,"shadingModel":"Phong"}},"name":"Universal Shader V1","pbrMetallicRoughness":{"baseColorFactor":[0.800000011920929,0.800000011920929,0.800000011920929,1],"metallicFactor":0.400000005960464,"roughnessFactor":0.229415729641914}}],"meshes":[{"name":"ground-stones-c","primitives":[{"attributes":{"NORMAL":2,"POSITION":1,"TEXCOORD_0":3},"indices":0,"material":0,"mode":4}]}],"nodes":[{"mesh":0,"name":"ground-stones-c","rotation":[0,0,0,1],"scale":[1,1,1],"translation":[0,0,0]}],"samplers":[{}],"scene":0,"scenes":[{"name":"Root Scene","nodes":[0]}]}