{"accessors":[{"bufferView":0,"byteOffset":0,"componentType":5123,"count":390,"type":"SCALAR"},{"bufferView":1,"byteOffset":0,"componentType":5126,"count":390,"max":[0.00587652483955026,0.00072542007546871,0.0051689213141799],"min":[-0.00500836549327,-0.00022995802283,-0.00527086202055],"type":"VEC3"},{"bufferView":2,"byteOffset":0,"componentType":5126,"count":390,"type":"VEC3"},{"bufferView":3,"byteOffset":0,"componentType":5126,"count":390,"type":"VEC2"}],"asset":{"generator":"FBX2glTF v0.13.1","version":"2.0"},"bufferViews":[{"buffer":0,"byteLength":780,"byteOffset":0,"target":34963},{"buffer":0,"byteLength":4680,"byteOffset":780,"target":34962},{"buffer":0,"byteLength":4680,"byteOffset":5460,"target":34962},{"buffer":0,"byteLength":3120,"byteOffset":10140,"target":34962}],"buffers":[{"byteLength":13260,"uri":"ground-stones-a.bin"}],"materials":[{"alphaMode":"OPAQUE","doubleSided":false,"extras":{"fromFBX":{"isTruePBR":false,"shadingModel":"Phong"}},"name":"Universal Shader V1","pbrMetallicRoughness":{"baseColorFactor":[0.800000011920929,0.800000011920929,0.800000011920929,1],"metallicFactor":0.400000005960464,"roughnessFactor":0.229415729641914}}],"meshes":[{"name":"ground-stones-a","primitives":[{"attributes":{"NORMAL":2,"POSITION":1,"TEXCOORD_0":3},"indices":0,"material":0,"mode":4}]}],"nodes":[{"mesh":0,"name":"ground-stones-a","rotation":[0,0,0,1],"scale":[1,1,1],"translation":[0,0,0]}],"samplers":[{}],"scene":0,"scenes":[{"name":"Root Scene","nodes":[0]}]}