{"accessors":[{"bufferView":0,"byteOffset":0,"componentType":5123,"count":2052,"type":"SCALAR"},{"bufferView":1,"byteOffset":0,"componentType":5126,"count":2052,"max":[0.0152941457927227,0.00097065966110676,0.0131557639688253],"min":[-0.01472365949303,-0.00056473363657,-0.0140577768907],"type":"VEC3"},{"bufferView":2,"byteOffset":0,"componentType":5126,"count":2052,"type":"VEC3"},{"bufferView":3,"byteOffset":0,"componentType":5126,"count":2052,"type":"VEC2"}],"asset":{"generator":"FBX2glTF v0.13.1","version":"2.0"},"bufferViews":[{"buffer":0,"byteLength":4104,"byteOffset":0,"target":34963},{"buffer":0,"byteLength":24624,"byteOffset":4104,"target":34962},{"buffer":0,"byteLength":24624,"byteOffset":28728,"target":34962},{"buffer":0,"byteLength":16416,"byteOffset":53352,"target":34962}],"buffers":[{"byteLength":69768,"uri":"ground-stones-b.bin"}],"materials":[{"alphaMode":"OPAQUE","doubleSided":false,"extras":{"fromFBX":{"isTruePBR":false,"shadingModel":"Phong"}},"name":"Universal Shader V1","pbrMetallicRoughness":{"baseColorFactor":[0.800000011920929,0.800000011920929,0.800000011920929,1],"metallicFactor":0.400000005960464,"roughnessFactor":0.229415729641914}}],"meshes":[{"name":"ground-stones-b","primitives":[{"attributes":{"NORMAL":2,"POSITION":1,"TEXCOORD_0":3},"indices":0,"material":0,"mode":4}]}],"nodes":[{"mesh":0,"name":"ground-stones-b","rotation":[0,0,0,1],"scale":[1,1,1],"translation":[0,0,0]}],"samplers":[{}],"scene":0,"scenes":[{"name":"Root Scene","nodes":[0]}]}