{"accessors":[{"bufferView":0,"byteOffset":0,"componentType":5123,"count":6930,"type":"SCALAR"},{"bufferView":1,"byteOffset":0,"componentType":5126,"count":6930,"max":[0.0332770757377148,0.00095263717230409,0.0391817316412926],"min":[-0.04027801007032,-0.00023943325505,-0.03544315323234],"type":"VEC3"},{"bufferView":2,"byteOffset":0,"componentType":5126,"count":6930,"type":"VEC3"},{"bufferView":3,"byteOffset":0,"componentType":5126,"count":6930,"type":"VEC2"}],"asset":{"generator":"FBX2glTF v0.13.1","version":"2.0"},"bufferViews":[{"buffer":0,"byteLength":13860,"byteOffset":0,"target":34963},{"buffer":0,"byteLength":83160,"byteOffset":13860,"target":34962},{"buffer":0,"byteLength":83160,"byteOffset":97020,"target":34962},{"buffer":0,"byteLength":55440,"byteOffset":180180,"target":34962}],"buffers":[{"byteLength":235620,"uri":"ground-stones-d.bin"}],"materials":[{"alphaMode":"OPAQUE","doubleSided":false,"extras":{"fromFBX":{"isTruePBR":false,"shadingModel":"Phong"}},"name":"Universal Shader V1","pbrMetallicRoughness":{"baseColorFactor":[0.800000011920929,0.800000011920929,0.800000011920929,1],"metallicFactor":0.400000005960464,"roughnessFactor":0.229415729641914}}],"meshes":[{"name":"ground-stones-d","primitives":[{"attributes":{"NORMAL":2,"POSITION":1,"TEXCOORD_0":3},"indices":0,"material":0,"mode":4}]}],"nodes":[{"mesh":0,"name":"ground-stones-d","rotation":[0,0,0,1],"scale":[1,1,1],"translation":[0,0,0]}],"samplers":[{}],"scene":0,"scenes":[{"name":"Root Scene","nodes":[0]}]}