{"accessors":[{"bufferView":0,"byteOffset":0,"componentType":5123,"count":876,"type":"SCALAR"},{"bufferView":1,"byteOffset":0,"componentType":5126,"count":519,"max":[0.030325373634696,0.0125629771500826,0.0227723252028227],"min":[-0.0232311822474,-0.00354140158743,-0.02741467580199],"type":"VEC3"},{"bufferView":2,"byteOffset":0,"componentType":5126,"count":519,"type":"VEC3"},{"bufferView":3,"byteOffset":0,"componentType":5126,"count":519,"type":"VEC2"}],"asset":{"generator":"FBX2glTF v0.13.1","version":"2.0"},"bufferViews":[{"buffer":0,"byteLength":1752,"byteOffset":0,"target":34963},{"buffer":0,"byteLength":6228,"byteOffset":1752,"target":34962},{"buffer":0,"byteLength":6228,"byteOffset":7980,"target":34962},{"buffer":0,"byteLength":4152,"byteOffset":14208,"target":34962}],"buffers":[{"byteLength":18360,"uri":"menhir-flat-c.bin"}],"materials":[{"alphaMode":"OPAQUE","doubleSided":false,"extras":{"fromFBX":{"isTruePBR":false,"shadingModel":"Phong"}},"name":"Universal Shader V1","pbrMetallicRoughness":{"baseColorFactor":[0.800000011920929,0.800000011920929,0.800000011920929,1],"metallicFactor":0.400000005960464,"roughnessFactor":0.229415729641914}}],"meshes":[{"name":"menhir-flat-c","primitives":[{"attributes":{"NORMAL":2,"POSITION":1,"TEXCOORD_0":3},"indices":0,"material":0,"mode":4}]}],"nodes":[{"mesh":0,"name":"menhir-flat-c","rotation":[0,0,0,1],"scale":[1,1,1],"translation":[0,0,0]}],"samplers":[{}],"scene":0,"scenes":[{"name":"Root Scene","nodes":[0]}]}