{"accessors":[{"bufferView":0,"byteOffset":0,"componentType":5123,"count":930,"type":"SCALAR"},{"bufferView":1,"byteOffset":0,"componentType":5126,"count":590,"max":[0.032755758613348,0.00599116925150156,0.0277802627533674],"min":[-0.03074132464826,-0.00221429602243,-0.0318385027349],"type":"VEC3"},{"bufferView":2,"byteOffset":0,"componentType":5126,"count":590,"type":"VEC3"},{"bufferView":3,"byteOffset":0,"componentType":5126,"count":590,"type":"VEC2"}],"asset":{"generator":"FBX2glTF v0.13.1","version":"2.0"},"bufferViews":[{"buffer":0,"byteLength":1860,"byteOffset":0,"target":34963},{"buffer":0,"byteLength":7080,"byteOffset":1860,"target":34962},{"buffer":0,"byteLength":7080,"byteOffset":8940,"target":34962},{"buffer":0,"byteLength":4720,"byteOffset":16020,"target":34962}],"buffers":[{"byteLength":20740,"uri":"menhir-flat-b.bin"}],"materials":[{"alphaMode":"OPAQUE","doubleSided":false,"extras":{"fromFBX":{"isTruePBR":false,"shadingModel":"Phong"}},"name":"Universal Shader V1","pbrMetallicRoughness":{"baseColorFactor":[0.800000011920929,0.800000011920929,0.800000011920929,1],"metallicFactor":0.400000005960464,"roughnessFactor":0.229415729641914}}],"meshes":[{"name":"menhir-flat-b","primitives":[{"attributes":{"NORMAL":2,"POSITION":1,"TEXCOORD_0":3},"indices":0,"material":0,"mode":4}]}],"nodes":[{"mesh":0,"name":"menhir-flat-b","rotation":[0,0,0,1],"scale":[1,1,1],"translation":[0,0,0]}],"samplers":[{}],"scene":0,"scenes":[{"name":"Root Scene","nodes":[0]}]}