{"accessors":[{"bufferView":0,"byteOffset":0,"componentType":5123,"count":654,"type":"SCALAR"},{"bufferView":1,"byteOffset":0,"componentType":5126,"count":399,"max":[0.010637697763741,0.0425740480422974,0.0105453692376614],"min":[-0.01029933802783,-0.00398022588342,-0.00980678200722],"type":"VEC3"},{"bufferView":2,"byteOffset":0,"componentType":5126,"count":399,"type":"VEC3"},{"bufferView":3,"byteOffset":0,"componentType":5126,"count":399,"type":"VEC2"}],"asset":{"generator":"FBX2glTF v0.13.1","version":"2.0"},"bufferViews":[{"buffer":0,"byteLength":1308,"byteOffset":0,"target":34963},{"buffer":0,"byteLength":4788,"byteOffset":1308,"target":34962},{"buffer":0,"byteLength":4788,"byteOffset":6096,"target":34962},{"buffer":0,"byteLength":3192,"byteOffset":10884,"target":34962}],"buffers":[{"byteLength":14076,"uri":"menhir-c.bin"}],"materials":[{"alphaMode":"OPAQUE","doubleSided":false,"extras":{"fromFBX":{"isTruePBR":false,"shadingModel":"Phong"}},"name":"Universal Shader V1","pbrMetallicRoughness":{"baseColorFactor":[0.800000011920929,0.800000011920929,0.800000011920929,1],"metallicFactor":0.400000005960464,"roughnessFactor":0.229415729641914}}],"meshes":[{"name":"menhir-c","primitives":[{"attributes":{"NORMAL":2,"POSITION":1,"TEXCOORD_0":3},"indices":0,"material":0,"mode":4}]}],"nodes":[{"mesh":0,"name":"menhir-c","rotation":[0,0,0,1],"scale":[1,1,1],"translation":[0,0,0]}],"samplers":[{}],"scene":0,"scenes":[{"name":"Root Scene","nodes":[0]}]}