{"accessors":[{"bufferView":0,"byteOffset":0,"componentType":5123,"count":1422,"type":"SCALAR"},{"bufferView":1,"byteOffset":0,"componentType":5126,"count":760,"max":[0.00913311261683702,0.0444450899958611,0.0101458700373769],"min":[-0.00868255924433,-0.00441198190674,-0.00986613333225],"type":"VEC3"},{"bufferView":2,"byteOffset":0,"componentType":5126,"count":760,"type":"VEC3"},{"bufferView":3,"byteOffset":0,"componentType":5126,"count":760,"type":"VEC2"}],"asset":{"generator":"FBX2glTF v0.13.1","version":"2.0"},"bufferViews":[{"buffer":0,"byteLength":2844,"byteOffset":0,"target":34963},{"buffer":0,"byteLength":9120,"byteOffset":2844,"target":34962},{"buffer":0,"byteLength":9120,"byteOffset":11964,"target":34962},{"buffer":0,"byteLength":6080,"byteOffset":21084,"target":34962}],"buffers":[{"byteLength":27164,"uri":"menhir-d.bin"}],"materials":[{"alphaMode":"OPAQUE","doubleSided":false,"extras":{"fromFBX":{"isTruePBR":false,"shadingModel":"Phong"}},"name":"Universal Shader V1","pbrMetallicRoughness":{"baseColorFactor":[0.800000011920929,0.800000011920929,0.800000011920929,1],"metallicFactor":0.400000005960464,"roughnessFactor":0.229415729641914}}],"meshes":[{"name":"menhir-d","primitives":[{"attributes":{"NORMAL":2,"POSITION":1,"TEXCOORD_0":3},"indices":0,"material":0,"mode":4}]}],"nodes":[{"mesh":0,"name":"menhir-d","rotation":[0,0,0,1],"scale":[1,1,1],"translation":[0,0,0]}],"samplers":[{}],"scene":0,"scenes":[{"name":"Root Scene","nodes":[0]}]}