{"accessors":[{"bufferView":0,"byteOffset":0,"componentType":5123,"count":1128,"type":"SCALAR"},{"bufferView":1,"byteOffset":0,"componentType":5126,"count":638,"max":[0.0216967854648829,0.0100287599489093,0.0175832808017731],"min":[-0.020243126899,-0.00340899871662,-0.02072226628661],"type":"VEC3"},{"bufferView":2,"byteOffset":0,"componentType":5126,"count":638,"type":"VEC3"},{"bufferView":3,"byteOffset":0,"componentType":5126,"count":638,"type":"VEC2"}],"asset":{"generator":"FBX2glTF v0.13.1","version":"2.0"},"bufferViews":[{"buffer":0,"byteLength":2256,"byteOffset":0,"target":34963},{"buffer":0,"byteLength":7656,"byteOffset":2256,"target":34962},{"buffer":0,"byteLength":7656,"byteOffset":9912,"target":34962},{"buffer":0,"byteLength":5104,"byteOffset":17568,"target":34962}],"buffers":[{"byteLength":22672,"uri":"menhir-flat-a.bin"}],"materials":[{"alphaMode":"OPAQUE","doubleSided":false,"extras":{"fromFBX":{"isTruePBR":false,"shadingModel":"Phong"}},"name":"Universal Shader V1","pbrMetallicRoughness":{"baseColorFactor":[0.800000011920929,0.800000011920929,0.800000011920929,1],"metallicFactor":0.400000005960464,"roughnessFactor":0.229415729641914}}],"meshes":[{"name":"menhir-flat-a","primitives":[{"attributes":{"NORMAL":2,"POSITION":1,"TEXCOORD_0":3},"indices":0,"material":0,"mode":4}]}],"nodes":[{"mesh":0,"name":"menhir-flat-a","rotation":[0,0,0,1],"scale":[1,1,1],"translation":[0,0,0]}],"samplers":[{}],"scene":0,"scenes":[{"name":"Root Scene","nodes":[0]}]}