{"accessors":[{"bufferView":0,"byteOffset":0,"componentType":5123,"count":876,"type":"SCALAR"},{"bufferView":1,"byteOffset":0,"componentType":5126,"count":494,"max":[0.00795091409236193,0.0415359251201153,0.00791426375508308],"min":[-0.00740153342485,-0.00155127502512,-0.00766852824017],"type":"VEC3"},{"bufferView":2,"byteOffset":0,"componentType":5126,"count":494,"type":"VEC3"},{"bufferView":3,"byteOffset":0,"componentType":5126,"count":494,"type":"VEC2"}],"asset":{"generator":"FBX2glTF v0.13.1","version":"2.0"},"bufferViews":[{"buffer":0,"byteLength":1752,"byteOffset":0,"target":34963},{"buffer":0,"byteLength":5928,"byteOffset":1752,"target":34962},{"buffer":0,"byteLength":5928,"byteOffset":7680,"target":34962},{"buffer":0,"byteLength":3952,"byteOffset":13608,"target":34962}],"buffers":[{"byteLength":17560,"uri":"menhir-e.bin"}],"materials":[{"alphaMode":"OPAQUE","doubleSided":false,"extras":{"fromFBX":{"isTruePBR":false,"shadingModel":"Phong"}},"name":"Universal Shader V1","pbrMetallicRoughness":{"baseColorFactor":[0.800000011920929,0.800000011920929,0.800000011920929,1],"metallicFactor":0.400000005960464,"roughnessFactor":0.229415729641914}}],"meshes":[{"name":"menhir-e","primitives":[{"attributes":{"NORMAL":2,"POSITION":1,"TEXCOORD_0":3},"indices":0,"material":0,"mode":4}]}],"nodes":[{"mesh":0,"name":"menhir-e","rotation":[0,0,0,1],"scale":[1,1,1],"translation":[0,0,0]}],"samplers":[{}],"scene":0,"scenes":[{"name":"Root Scene","nodes":[0]}]}