{"accessors":[{"bufferView":0,"byteOffset":0,"componentType":5123,"count":762,"type":"SCALAR"},{"bufferView":1,"byteOffset":0,"componentType":5126,"count":444,"max":[0.00839166808873415,0.0453189834952354,0.00896489340811968],"min":[-0.00813402608037,-0.00187899777666,-0.00781237334013],"type":"VEC3"},{"bufferView":2,"byteOffset":0,"componentType":5126,"count":444,"type":"VEC3"},{"bufferView":3,"byteOffset":0,"componentType":5126,"count":444,"type":"VEC2"}],"asset":{"generator":"FBX2glTF v0.13.1","version":"2.0"},"bufferViews":[{"buffer":0,"byteLength":1524,"byteOffset":0,"target":34963},{"buffer":0,"byteLength":5328,"byteOffset":1524,"target":34962},{"buffer":0,"byteLength":5328,"byteOffset":6852,"target":34962},{"buffer":0,"byteLength":3552,"byteOffset":12180,"target":34962}],"buffers":[{"byteLength":15732,"uri":"menhir-b.bin"}],"materials":[{"alphaMode":"OPAQUE","doubleSided":false,"extras":{"fromFBX":{"isTruePBR":false,"shadingModel":"Phong"}},"name":"Universal Shader V1","pbrMetallicRoughness":{"baseColorFactor":[0.800000011920929,0.800000011920929,0.800000011920929,1],"metallicFactor":0.400000005960464,"roughnessFactor":0.229415729641914}}],"meshes":[{"name":"menhir-b","primitives":[{"attributes":{"NORMAL":2,"POSITION":1,"TEXCOORD_0":3},"indices":0,"material":0,"mode":4}]}],"nodes":[{"mesh":0,"name":"menhir-b","rotation":[0,0,0,1],"scale":[1,1,1],"translation":[0,0,0]}],"samplers":[{}],"scene":0,"scenes":[{"name":"Root Scene","nodes":[0]}]}