{"accessors":[{"bufferView":0,"byteOffset":0,"componentType":5123,"count":10818,"type":"SCALAR"},{"bufferView":1,"byteOffset":0,"componentType":5126,"count":7975,"max":[0.0485850274562836,0.053051333874464,0.0396466925740242],"min":[-0.05049071088433,-0.06234893202782,-0.05064387246966],"type":"VEC3"},{"bufferView":2,"byteOffset":0,"componentType":5126,"count":7975,"type":"VEC3"},{"bufferView":3,"byteOffset":0,"componentType":5126,"count":7975,"type":"VEC2"}],"asset":{"generator":"FBX2glTF v0.13.1","version":"2.0"},"bufferViews":[{"buffer":0,"byteLength":21636,"byteOffset":0,"target":34963},{"buffer":0,"byteLength":95700,"byteOffset":21636,"target":34962},{"buffer":0,"byteLength":95700,"byteOffset":117336,"target":34962},{"buffer":0,"byteLength":63800,"byteOffset":213036,"target":34962}],"buffers":[{"byteLength":276836,"uri":"rock-f.bin"}],"materials":[{"alphaMode":"OPAQUE","doubleSided":false,"extras":{"fromFBX":{"isTruePBR":false,"shadingModel":"Phong"}},"name":"Universal Shader V6","pbrMetallicRoughness":{"baseColorFactor":[0.800000011920929,0.800000011920929,0.800000011920929,1],"metallicFactor":0.400000005960464,"roughnessFactor":0.229415729641914}}],"meshes":[{"name":"rock-f","primitives":[{"attributes":{"NORMAL":2,"POSITION":1,"TEXCOORD_0":3},"indices":0,"material":0,"mode":4}]}],"nodes":[{"mesh":0,"name":"rock-f","rotation":[0,0,0,1],"scale":[1,1,1],"translation":[0,0,0]}],"samplers":[{}],"scene":0,"scenes":[{"name":"Root Scene","nodes":[0]}]}