{"accessors":[{"bufferView":0,"byteOffset":0,"componentType":5123,"count":9606,"type":"SCALAR"},{"bufferView":1,"byteOffset":0,"componentType":5126,"count":6558,"max":[0.0460489168763161,0.0363233350217342,0.0760761499404907],"min":[-0.04530169442296,-0.03341200575233,-0.05585973709822],"type":"VEC3"},{"bufferView":2,"byteOffset":0,"componentType":5126,"count":6558,"type":"VEC3"},{"bufferView":3,"byteOffset":0,"componentType":5126,"count":6558,"type":"VEC2"}],"asset":{"generator":"FBX2glTF v0.13.1","version":"2.0"},"bufferViews":[{"buffer":0,"byteLength":19212,"byteOffset":0,"target":34963},{"buffer":0,"byteLength":78696,"byteOffset":19212,"target":34962},{"buffer":0,"byteLength":78696,"byteOffset":97908,"target":34962},{"buffer":0,"byteLength":52464,"byteOffset":176604,"target":34962}],"buffers":[{"byteLength":229068,"uri":"rock-g.bin"}],"materials":[{"alphaMode":"OPAQUE","doubleSided":false,"extras":{"fromFBX":{"isTruePBR":false,"shadingModel":"Phong"}},"name":"Universal Shader V6","pbrMetallicRoughness":{"baseColorFactor":[0.800000011920929,0.800000011920929,0.800000011920929,1],"metallicFactor":0.400000005960464,"roughnessFactor":0.229415729641914}}],"meshes":[{"name":"rock-g","primitives":[{"attributes":{"NORMAL":2,"POSITION":1,"TEXCOORD_0":3},"indices":0,"material":0,"mode":4}]}],"nodes":[{"mesh":0,"name":"rock-g","rotation":[0,0,0,1],"scale":[1,1,1],"translation":[0,0,0]}],"samplers":[{}],"scene":0,"scenes":[{"name":"Root Scene","nodes":[0]}]}