{"accessors":[{"bufferView":0,"byteOffset":0,"componentType":5123,"count":8574,"type":"SCALAR"},{"bufferView":1,"byteOffset":0,"componentType":5126,"count":6394,"max":[0.0556086003780365,0.0412994101643562,0.0651384890079498],"min":[-0.05469956248999,-0.04561729729176,-0.06489641964436],"type":"VEC3"},{"bufferView":2,"byteOffset":0,"componentType":5126,"count":6394,"type":"VEC3"},{"bufferView":3,"byteOffset":0,"componentType":5126,"count":6394,"type":"VEC2"}],"asset":{"generator":"FBX2glTF v0.13.1","version":"2.0"},"bufferViews":[{"buffer":0,"byteLength":17148,"byteOffset":0,"target":34963},{"buffer":0,"byteLength":76728,"byteOffset":17148,"target":34962},{"buffer":0,"byteLength":76728,"byteOffset":93876,"target":34962},{"buffer":0,"byteLength":51152,"byteOffset":170604,"target":34962}],"buffers":[{"byteLength":221756,"uri":"rock-e.bin"}],"materials":[{"alphaMode":"OPAQUE","doubleSided":false,"extras":{"fromFBX":{"isTruePBR":false,"shadingModel":"Phong"}},"name":"Universal Shader V6","pbrMetallicRoughness":{"baseColorFactor":[0.800000011920929,0.800000011920929,0.800000011920929,1],"metallicFactor":0.400000005960464,"roughnessFactor":0.229415729641914}}],"meshes":[{"name":"rock-e","primitives":[{"attributes":{"NORMAL":2,"POSITION":1,"TEXCOORD_0":3},"indices":0,"material":0,"mode":4}]}],"nodes":[{"mesh":0,"name":"rock-e","rotation":[0,0,0,1],"scale":[1,1,1],"translation":[0,0,0]}],"samplers":[{}],"scene":0,"scenes":[{"name":"Root Scene","nodes":[0]}]}