{"accessors":[{"bufferView":0,"byteOffset":0,"componentType":5123,"count":7188,"type":"SCALAR"},{"bufferView":1,"byteOffset":0,"componentType":5126,"count":5524,"max":[0.0552743747830391,0.0778452381491661,0.022412795573473],"min":[-0.05357230082154,-0.02718986384571,-0.02215651422739],"type":"VEC3"},{"bufferView":2,"byteOffset":0,"componentType":5126,"count":5524,"type":"VEC3"},{"bufferView":3,"byteOffset":0,"componentType":5126,"count":5524,"type":"VEC2"}],"asset":{"generator":"FBX2glTF v0.13.1","version":"2.0"},"bufferViews":[{"buffer":0,"byteLength":14376,"byteOffset":0,"target":34963},{"buffer":0,"byteLength":66288,"byteOffset":14376,"target":34962},{"buffer":0,"byteLength":66288,"byteOffset":80664,"target":34962},{"buffer":0,"byteLength":44192,"byteOffset":146952,"target":34962}],"buffers":[{"byteLength":191144,"uri":"rock-a.bin"}],"materials":[{"alphaMode":"OPAQUE","doubleSided":false,"extras":{"fromFBX":{"isTruePBR":false,"shadingModel":"Phong"}},"name":"Universal Shader V6","pbrMetallicRoughness":{"baseColorFactor":[0.800000011920929,0.800000011920929,0.800000011920929,1],"metallicFactor":0.400000005960464,"roughnessFactor":0.229415729641914}}],"meshes":[{"name":"rock-a","primitives":[{"attributes":{"NORMAL":2,"POSITION":1,"TEXCOORD_0":3},"indices":0,"material":0,"mode":4}]}],"nodes":[{"mesh":0,"name":"rock-a","rotation":[0,0,0,1],"scale":[1,1,1],"translation":[0,0,0]}],"samplers":[{}],"scene":0,"scenes":[{"name":"Root Scene","nodes":[0]}]}