{"accessors":[{"bufferView":0,"byteOffset":0,"componentType":5123,"count":5388,"type":"SCALAR"},{"bufferView":1,"byteOffset":0,"componentType":5126,"count":4182,"max":[0.0709979236125946,0.119865737855434,0.0690471678972244],"min":[-0.06475795805454,0,-0.07647686451674],"type":"VEC3"},{"bufferView":2,"byteOffset":0,"componentType":5126,"count":4182,"type":"VEC3"},{"bufferView":3,"byteOffset":0,"componentType":5126,"count":4182,"type":"VEC2"}],"asset":{"generator":"FBX2glTF v0.13.1","version":"2.0"},"bufferViews":[{"buffer":0,"byteLength":10776,"byteOffset":0,"target":34963},{"buffer":0,"byteLength":50184,"byteOffset":10776,"target":34962},{"buffer":0,"byteLength":50184,"byteOffset":60960,"target":34962},{"buffer":0,"byteLength":33456,"byteOffset":111144,"target":34962}],"buffers":[{"byteLength":144600,"uri":"rock-c.bin"}],"materials":[{"alphaMode":"OPAQUE","doubleSided":false,"extras":{"fromFBX":{"isTruePBR":false,"shadingModel":"Phong"}},"name":"Universal Shader V7","pbrMetallicRoughness":{"baseColorFactor":[0.800000011920929,0.800000011920929,0.800000011920929,1],"metallicFactor":0.400000005960464,"roughnessFactor":0.229415729641914}}],"meshes":[{"name":"rock-c","primitives":[{"attributes":{"NORMAL":2,"POSITION":1,"TEXCOORD_0":3},"indices":0,"material":0,"mode":4}]}],"nodes":[{"mesh":0,"name":"rock-c","rotation":[0,0,0,1],"scale":[1,1,1],"translation":[0,0,0]}],"samplers":[{}],"scene":0,"scenes":[{"name":"Root Scene","nodes":[0]}]}