{"accessors":[{"bufferView":0,"byteOffset":0,"componentType":5123,"count":8262,"type":"SCALAR"},{"bufferView":1,"byteOffset":0,"componentType":5126,"count":6209,"max":[0.0413939356803894,0.101109854876995,0.0413846373558044],"min":[-0.04600182548165,-0.07109364122152,-0.04394245147705],"type":"VEC3"},{"bufferView":2,"byteOffset":0,"componentType":5126,"count":6209,"type":"VEC3"},{"bufferView":3,"byteOffset":0,"componentType":5126,"count":6209,"type":"VEC2"}],"asset":{"generator":"FBX2glTF v0.13.1","version":"2.0"},"bufferViews":[{"buffer":0,"byteLength":16524,"byteOffset":0,"target":34963},{"buffer":0,"byteLength":74508,"byteOffset":16524,"target":34962},{"buffer":0,"byteLength":74508,"byteOffset":91032,"target":34962},{"buffer":0,"byteLength":49672,"byteOffset":165540,"target":34962}],"buffers":[{"byteLength":215212,"uri":"rock-d.bin"}],"materials":[{"alphaMode":"OPAQUE","doubleSided":false,"extras":{"fromFBX":{"isTruePBR":false,"shadingModel":"Phong"}},"name":"Universal Shader V6","pbrMetallicRoughness":{"baseColorFactor":[0.800000011920929,0.800000011920929,0.800000011920929,1],"metallicFactor":0.400000005960464,"roughnessFactor":0.229415729641914}}],"meshes":[{"name":"rock-d","primitives":[{"attributes":{"NORMAL":2,"POSITION":1,"TEXCOORD_0":3},"indices":0,"material":0,"mode":4}]}],"nodes":[{"mesh":0,"name":"rock-d","rotation":[0,0,0,1],"scale":[1,1,1],"translation":[0,0,0]}],"samplers":[{}],"scene":0,"scenes":[{"name":"Root Scene","nodes":[0]}]}