{"accessors":[{"bufferView":0,"byteOffset":0,"componentType":5123,"count":7659,"type":"SCALAR"},{"bufferView":1,"byteOffset":0,"componentType":5126,"count":5763,"max":[0.0452476479113102,0.119624383747578,0.0422644130885601],"min":[-0.06645652651787,-0.00252989097498,-0.05949346348643],"type":"VEC3"},{"bufferView":2,"byteOffset":0,"componentType":5126,"count":5763,"type":"VEC3"},{"bufferView":3,"byteOffset":0,"componentType":5126,"count":5763,"type":"VEC2"}],"asset":{"generator":"FBX2glTF v0.13.1","version":"2.0"},"bufferViews":[{"buffer":0,"byteLength":15318,"byteOffset":0,"target":34963},{"buffer":0,"byteLength":69156,"byteOffset":15320,"target":34962},{"buffer":0,"byteLength":69156,"byteOffset":84476,"target":34962},{"buffer":0,"byteLength":46104,"byteOffset":153632,"target":34962}],"buffers":[{"byteLength":199736,"uri":"rock-b.bin"}],"materials":[{"alphaMode":"OPAQUE","doubleSided":false,"extras":{"fromFBX":{"isTruePBR":false,"shadingModel":"Phong"}},"name":"Universal Shader V6","pbrMetallicRoughness":{"baseColorFactor":[0.800000011920929,0.800000011920929,0.800000011920929,1],"metallicFactor":0.400000005960464,"roughnessFactor":0.229415729641914}}],"meshes":[{"name":"rock-b","primitives":[{"attributes":{"NORMAL":2,"POSITION":1,"TEXCOORD_0":3},"indices":0,"material":0,"mode":4}]}],"nodes":[{"mesh":0,"name":"rock-b","rotation":[0,0,0,1],"scale":[1,1,1],"translation":[0,0,0]}],"samplers":[{}],"scene":0,"scenes":[{"name":"Root Scene","nodes":[0]}]}