{"accessors":[{"bufferView":0,"byteOffset":0,"componentType":5123,"count":108,"type":"SCALAR"},{"bufferView":1,"byteOffset":0,"componentType":5126,"count":108,"max":[0.00102099485229701,0.00112382345832884,0.00092209613649174],"min":[-0.00096687575569,-0.00007541175728,-0.00089297798695],"type":"VEC3"},{"bufferView":2,"byteOffset":0,"componentType":5126,"count":108,"type":"VEC3"},{"bufferView":3,"byteOffset":0,"componentType":5126,"count":108,"type":"VEC2"}],"asset":{"generator":"FBX2glTF v0.13.1","version":"2.0"},"bufferViews":[{"buffer":0,"byteLength":216,"byteOffset":0,"target":34963},{"buffer":0,"byteLength":1296,"byteOffset":216,"target":34962},{"buffer":0,"byteLength":1296,"byteOffset":1512,"target":34962},{"buffer":0,"byteLength":864,"byteOffset":2808,"target":34962}],"buffers":[{"byteLength":3672,"uri":"stone-a.bin"}],"materials":[{"alphaMode":"OPAQUE","doubleSided":false,"extras":{"fromFBX":{"isTruePBR":false,"shadingModel":"Phong"}},"name":"Universal Shader V1","pbrMetallicRoughness":{"baseColorFactor":[0.800000011920929,0.800000011920929,0.800000011920929,1],"metallicFactor":0.400000005960464,"roughnessFactor":0.229415729641914}}],"meshes":[{"name":"stone-a","primitives":[{"attributes":{"NORMAL":2,"POSITION":1,"TEXCOORD_0":3},"indices":0,"material":0,"mode":4}]}],"nodes":[{"mesh":0,"name":"stone-a","rotation":[0,0,0,1],"scale":[1,1,1],"translation":[0,0,0]}],"samplers":[{}],"scene":0,"scenes":[{"name":"Root Scene","nodes":[0]}]}