{"accessors":[{"bufferView":0,"byteOffset":0,"componentType":5123,"count":126,"type":"SCALAR"},{"bufferView":1,"byteOffset":0,"componentType":5126,"count":126,"max":[0.0012533962726593,0.00140829826705158,0.00170200690627098],"min":[-0.0014489198802,-0.00006744213169,-0.00110650237184],"type":"VEC3"},{"bufferView":2,"byteOffset":0,"componentType":5126,"count":126,"type":"VEC3"},{"bufferView":3,"byteOffset":0,"componentType":5126,"count":126,"type":"VEC2"}],"asset":{"generator":"FBX2glTF v0.13.1","version":"2.0"},"bufferViews":[{"buffer":0,"byteLength":252,"byteOffset":0,"target":34963},{"buffer":0,"byteLength":1512,"byteOffset":252,"target":34962},{"buffer":0,"byteLength":1512,"byteOffset":1764,"target":34962},{"buffer":0,"byteLength":1008,"byteOffset":3276,"target":34962}],"buffers":[{"byteLength":4284,"uri":"stone-b.bin"}],"materials":[{"alphaMode":"OPAQUE","doubleSided":false,"extras":{"fromFBX":{"isTruePBR":false,"shadingModel":"Phong"}},"name":"Universal Shader V1","pbrMetallicRoughness":{"baseColorFactor":[0.800000011920929,0.800000011920929,0.800000011920929,1],"metallicFactor":0.400000005960464,"roughnessFactor":0.229415729641914}}],"meshes":[{"name":"stone-b","primitives":[{"attributes":{"NORMAL":2,"POSITION":1,"TEXCOORD_0":3},"indices":0,"material":0,"mode":4}]}],"nodes":[{"mesh":0,"name":"stone-b","rotation":[0,0,0,1],"scale":[1,1,1],"translation":[0,0,0]}],"samplers":[{}],"scene":0,"scenes":[{"name":"Root Scene","nodes":[0]}]}