{"accessors":[{"bufferView":0,"byteOffset":0,"componentType":5123,"count":120,"type":"SCALAR"},{"bufferView":1,"byteOffset":0,"componentType":5126,"count":120,"max":[0.00195893924683332,0.00140366912819445,0.00192830886226147],"min":[-0.00167318375316,-0.00025161690428,-0.00199153530411],"type":"VEC3"},{"bufferView":2,"byteOffset":0,"componentType":5126,"count":120,"type":"VEC3"},{"bufferView":3,"byteOffset":0,"componentType":5126,"count":120,"type":"VEC2"}],"asset":{"generator":"FBX2glTF v0.13.1","version":"2.0"},"bufferViews":[{"buffer":0,"byteLength":240,"byteOffset":0,"target":34963},{"buffer":0,"byteLength":1440,"byteOffset":240,"target":34962},{"buffer":0,"byteLength":1440,"byteOffset":1680,"target":34962},{"buffer":0,"byteLength":960,"byteOffset":3120,"target":34962}],"buffers":[{"byteLength":4080,"uri":"stone-c.bin"}],"materials":[{"alphaMode":"OPAQUE","doubleSided":false,"extras":{"fromFBX":{"isTruePBR":false,"shadingModel":"Phong"}},"name":"Universal Shader V1","pbrMetallicRoughness":{"baseColorFactor":[0.800000011920929,0.800000011920929,0.800000011920929,1],"metallicFactor":0.400000005960464,"roughnessFactor":0.229415729641914}}],"meshes":[{"name":"stone-c","primitives":[{"attributes":{"NORMAL":2,"POSITION":1,"TEXCOORD_0":3},"indices":0,"material":0,"mode":4}]}],"nodes":[{"mesh":0,"name":"stone-c","rotation":[0,0,0,1],"scale":[1,1,1],"translation":[0,0,0]}],"samplers":[{}],"scene":0,"scenes":[{"name":"Root Scene","nodes":[0]}]}