{"accessors":[{"bufferView":0,"byteOffset":0,"componentType":5123,"count":174,"type":"SCALAR"},{"bufferView":1,"byteOffset":0,"componentType":5126,"count":174,"max":[0.00470403395593166,0.00557745574042201,0.00462020328268409],"min":[-0.00451333168894,-0.00035184380249,-0.00408016145229],"type":"VEC3"},{"bufferView":2,"byteOffset":0,"componentType":5126,"count":174,"type":"VEC3"},{"bufferView":3,"byteOffset":0,"componentType":5126,"count":174,"type":"VEC2"}],"asset":{"generator":"FBX2glTF v0.13.1","version":"2.0"},"bufferViews":[{"buffer":0,"byteLength":348,"byteOffset":0,"target":34963},{"buffer":0,"byteLength":2088,"byteOffset":348,"target":34962},{"buffer":0,"byteLength":2088,"byteOffset":2436,"target":34962},{"buffer":0,"byteLength":1392,"byteOffset":4524,"target":34962}],"buffers":[{"byteLength":5916,"uri":"stone-f.bin"}],"materials":[{"alphaMode":"OPAQUE","doubleSided":false,"extras":{"fromFBX":{"isTruePBR":false,"shadingModel":"Phong"}},"name":"Universal Shader V1","pbrMetallicRoughness":{"baseColorFactor":[0.800000011920929,0.800000011920929,0.800000011920929,1],"metallicFactor":0.400000005960464,"roughnessFactor":0.229415729641914}}],"meshes":[{"name":"stone-f","primitives":[{"attributes":{"NORMAL":2,"POSITION":1,"TEXCOORD_0":3},"indices":0,"material":0,"mode":4}]}],"nodes":[{"mesh":0,"name":"stone-f","rotation":[0,0,0,1],"scale":[1,1,1],"translation":[0,0,0]}],"samplers":[{}],"scene":0,"scenes":[{"name":"Root Scene","nodes":[0]}]}