{"accessors":[{"bufferView":0,"byteOffset":0,"componentType":5123,"count":156,"type":"SCALAR"},{"bufferView":1,"byteOffset":0,"componentType":5126,"count":156,"max":[0.00293779256753623,0.00346978451125324,0.00292369397357106],"min":[-0.00356247555465,-0.00111614505295,-0.00399869680405],"type":"VEC3"},{"bufferView":2,"byteOffset":0,"componentType":5126,"count":156,"type":"VEC3"},{"bufferView":3,"byteOffset":0,"componentType":5126,"count":156,"type":"VEC2"}],"asset":{"generator":"FBX2glTF v0.13.1","version":"2.0"},"bufferViews":[{"buffer":0,"byteLength":312,"byteOffset":0,"target":34963},{"buffer":0,"byteLength":1872,"byteOffset":312,"target":34962},{"buffer":0,"byteLength":1872,"byteOffset":2184,"target":34962},{"buffer":0,"byteLength":1248,"byteOffset":4056,"target":34962}],"buffers":[{"byteLength":5304,"uri":"stone-e.bin"}],"materials":[{"alphaMode":"OPAQUE","doubleSided":false,"extras":{"fromFBX":{"isTruePBR":false,"shadingModel":"Phong"}},"name":"Universal Shader V1","pbrMetallicRoughness":{"baseColorFactor":[0.800000011920929,0.800000011920929,0.800000011920929,1],"metallicFactor":0.400000005960464,"roughnessFactor":0.229415729641914}}],"meshes":[{"name":"stone-e","primitives":[{"attributes":{"NORMAL":2,"POSITION":1,"TEXCOORD_0":3},"indices":0,"material":0,"mode":4}]}],"nodes":[{"mesh":0,"name":"stone-e","rotation":[0,0,0,1],"scale":[1,1,1],"translation":[0,0,0]}],"samplers":[{}],"scene":0,"scenes":[{"name":"Root Scene","nodes":[0]}]}