{"accessors":[{"bufferView":0,"byteOffset":0,"componentType":5123,"count":210,"type":"SCALAR"},{"bufferView":1,"byteOffset":0,"componentType":5126,"count":210,"max":[0.00227619544602931,0.00271872337907553,0.00291849975474179],"min":[-0.00244370172732,-0.00053967355052,-0.00308639160357],"type":"VEC3"},{"bufferView":2,"byteOffset":0,"componentType":5126,"count":210,"type":"VEC3"},{"bufferView":3,"byteOffset":0,"componentType":5126,"count":210,"type":"VEC2"}],"asset":{"generator":"FBX2glTF v0.13.1","version":"2.0"},"bufferViews":[{"buffer":0,"byteLength":420,"byteOffset":0,"target":34963},{"buffer":0,"byteLength":2520,"byteOffset":420,"target":34962},{"buffer":0,"byteLength":2520,"byteOffset":2940,"target":34962},{"buffer":0,"byteLength":1680,"byteOffset":5460,"target":34962}],"buffers":[{"byteLength":7140,"uri":"stone-d.bin"}],"materials":[{"alphaMode":"OPAQUE","doubleSided":false,"extras":{"fromFBX":{"isTruePBR":false,"shadingModel":"Phong"}},"name":"Universal Shader V1","pbrMetallicRoughness":{"baseColorFactor":[0.800000011920929,0.800000011920929,0.800000011920929,1],"metallicFactor":0.400000005960464,"roughnessFactor":0.229415729641914}}],"meshes":[{"name":"stone-d","primitives":[{"attributes":{"NORMAL":2,"POSITION":1,"TEXCOORD_0":3},"indices":0,"material":0,"mode":4}]}],"nodes":[{"mesh":0,"name":"stone-d","rotation":[0,0,0,1],"scale":[1,1,1],"translation":[0,0,0]}],"samplers":[{}],"scene":0,"scenes":[{"name":"Root Scene","nodes":[0]}]}