{"accessors":[{"bufferView":0,"byteOffset":0,"componentType":5123,"count":684,"type":"SCALAR"},{"bufferView":1,"byteOffset":0,"componentType":5126,"count":684,"max":[0.0229925103485584,0.00089671515161171,0.00108767184428871],"min":[-0.00536416750401,-0.00328547437675,-0.00646901456639],"type":"VEC3"},{"bufferView":2,"byteOffset":0,"componentType":5126,"count":684,"type":"VEC3"},{"bufferView":3,"byteOffset":0,"componentType":5126,"count":684,"type":"VEC2"}],"asset":{"generator":"FBX2glTF v0.13.1","version":"2.0"},"bufferViews":[{"buffer":0,"byteLength":1368,"byteOffset":0,"target":34963},{"buffer":0,"byteLength":8208,"byteOffset":1368,"target":34962},{"buffer":0,"byteLength":8208,"byteOffset":9576,"target":34962},{"buffer":0,"byteLength":5472,"byteOffset":17784,"target":34962}],"buffers":[{"byteLength":23256,"uri":"root-nature-single-c.bin"}],"materials":[{"alphaMode":"OPAQUE","doubleSided":false,"extras":{"fromFBX":{"isTruePBR":false,"shadingModel":"Phong"}},"name":"Universal Shader V10 - A","pbrMetallicRoughness":{"baseColorFactor":[0.800000011920929,0.800000011920929,0.800000011920929,1],"metallicFactor":0.400000005960464,"roughnessFactor":0.229415729641914}}],"meshes":[{"name":"root-nature-single-c","primitives":[{"attributes":{"NORMAL":2,"POSITION":1,"TEXCOORD_0":3},"indices":0,"material":0,"mode":4}]}],"nodes":[{"mesh":0,"name":"root-nature-single-c","rotation":[0,0,0,1],"scale":[1,1,1],"translation":[0,0,0]}],"samplers":[{}],"scene":0,"scenes":[{"name":"Root Scene","nodes":[0]}]}