{"accessors":[{"bufferView":0,"byteOffset":0,"componentType":5123,"count":657,"type":"SCALAR"},{"bufferView":1,"byteOffset":0,"componentType":5126,"count":657,"max":[0.023026367649436,0.00104793289210647,0.0013955479953438],"min":[-0.00313170999289,-0.00432003801689,-0.00571879418567],"type":"VEC3"},{"bufferView":2,"byteOffset":0,"componentType":5126,"count":657,"type":"VEC3"},{"bufferView":3,"byteOffset":0,"componentType":5126,"count":657,"type":"VEC2"}],"asset":{"generator":"FBX2glTF v0.13.1","version":"2.0"},"bufferViews":[{"buffer":0,"byteLength":1314,"byteOffset":0,"target":34963},{"buffer":0,"byteLength":7884,"byteOffset":1316,"target":34962},{"buffer":0,"byteLength":7884,"byteOffset":9200,"target":34962},{"buffer":0,"byteLength":5256,"byteOffset":17084,"target":34962}],"buffers":[{"byteLength":22340,"uri":"root-nature-single-b.bin"}],"materials":[{"alphaMode":"OPAQUE","doubleSided":false,"extras":{"fromFBX":{"isTruePBR":false,"shadingModel":"Phong"}},"name":"Universal Shader V10 - A","pbrMetallicRoughness":{"baseColorFactor":[0.800000011920929,0.800000011920929,0.800000011920929,1],"metallicFactor":0.400000005960464,"roughnessFactor":0.229415729641914}}],"meshes":[{"name":"root-nature-single-b","primitives":[{"attributes":{"NORMAL":2,"POSITION":1,"TEXCOORD_0":3},"indices":0,"material":0,"mode":4}]}],"nodes":[{"mesh":0,"name":"root-nature-single-b","rotation":[0,0,0,1],"scale":[1,1,1],"translation":[0,0,0]}],"samplers":[{}],"scene":0,"scenes":[{"name":"Root Scene","nodes":[0]}]}