{"accessors":[{"bufferView":0,"byteOffset":0,"componentType":5123,"count":924,"type":"SCALAR"},{"bufferView":1,"byteOffset":0,"componentType":5126,"count":924,"max":[0.0206023305654526,0.00362577708438039,0.00615190202370286],"min":[-0.00505342427641,-0.00737532787025,-0.00306478887796],"type":"VEC3"},{"bufferView":2,"byteOffset":0,"componentType":5126,"count":924,"type":"VEC3"},{"bufferView":3,"byteOffset":0,"componentType":5126,"count":924,"type":"VEC2"}],"asset":{"generator":"FBX2glTF v0.13.1","version":"2.0"},"bufferViews":[{"buffer":0,"byteLength":1848,"byteOffset":0,"target":34963},{"buffer":0,"byteLength":11088,"byteOffset":1848,"target":34962},{"buffer":0,"byteLength":11088,"byteOffset":12936,"target":34962},{"buffer":0,"byteLength":7392,"byteOffset":24024,"target":34962}],"buffers":[{"byteLength":31416,"uri":"root-nature-single-a.bin"}],"materials":[{"alphaMode":"OPAQUE","doubleSided":false,"extras":{"fromFBX":{"isTruePBR":false,"shadingModel":"Phong"}},"name":"Universal Shader V10 - A","pbrMetallicRoughness":{"baseColorFactor":[0.800000011920929,0.800000011920929,0.800000011920929,1],"metallicFactor":0.400000005960464,"roughnessFactor":0.229415729641914}}],"meshes":[{"name":"root-nature-single-a","primitives":[{"attributes":{"NORMAL":2,"POSITION":1,"TEXCOORD_0":3},"indices":0,"material":0,"mode":4}]}],"nodes":[{"mesh":0,"name":"root-nature-single-a","rotation":[0,0,0,1],"scale":[1,1,1],"translation":[0,0,0]}],"samplers":[{}],"scene":0,"scenes":[{"name":"Root Scene","nodes":[0]}]}