{"accessors":[{"bufferView":0,"byteOffset":0,"componentType":5123,"count":1620,"type":"SCALAR"},{"bufferView":1,"byteOffset":0,"componentType":5126,"count":1620,"max":[0.00597670860588551,0.0649349540472031,0.0106511246412992],"min":[-0.00607300968841,-0.00192883959971,-0.00741623481736],"type":"VEC3"},{"bufferView":2,"byteOffset":0,"componentType":5126,"count":1620,"type":"VEC3"},{"bufferView":3,"byteOffset":0,"componentType":5126,"count":1620,"type":"VEC2"},{"bufferView":4,"byteOffset":0,"componentType":5123,"count":1647,"type":"SCALAR"},{"bufferView":5,"byteOffset":0,"componentType":5126,"count":1647,"max":[0.021237576380372,0.0762505978345871,0.0223595201969147],"min":[-0.01597616448998,0.0325509198009968,-0.0192032083869],"type":"VEC3"},{"bufferView":6,"byteOffset":0,"componentType":5126,"count":1647,"type":"VEC3"},{"bufferView":7,"byteOffset":0,"componentType":5126,"count":1647,"type":"VEC2"}],"asset":{"generator":"FBX2glTF v0.13.1","version":"2.0"},"bufferViews":[{"buffer":0,"byteLength":3240,"byteOffset":0,"target":34963},{"buffer":0,"byteLength":19440,"byteOffset":3240,"target":34962},{"buffer":0,"byteLength":19440,"byteOffset":22680,"target":34962},{"buffer":0,"byteLength":12960,"byteOffset":42120,"target":34962},{"buffer":0,"byteLength":3294,"byteOffset":55080,"target":34963},{"buffer":0,"byteLength":19764,"byteOffset":58376,"target":34962},{"buffer":0,"byteLength":19764,"byteOffset":78140,"target":34962},{"buffer":0,"byteLength":13176,"byteOffset":97904,"target":34962}],"buffers":[{"byteLength":111080,"uri":"tree-palm-withered-a.bin"}],"materials":[{"alphaMode":"OPAQUE","doubleSided":false,"extras":{"fromFBX":{"isTruePBR":false,"shadingModel":"Phong"}},"name":"Universal Shader V10 - A","pbrMetallicRoughness":{"baseColorFactor":[0.800000011920929,0.800000011920929,0.800000011920929,1],"metallicFactor":0.400000005960464,"roughnessFactor":0.229415729641914}},{"alphaMode":"OPAQUE","doubleSided":false,"extras":{"fromFBX":{"isTruePBR":false,"shadingModel":"Phong"}},"name":"Universal Foliage V1 - D","pbrMetallicRoughness":{"baseColorFactor":[0.0468500107526779,0.0668631121516228,0.00949752610176802,1],"metallicFactor":0.400000005960464,"roughnessFactor":0.229415729641914}}],"meshes":[{"name":"tree-palm-withered-a","primitives":[{"attributes":{"NORMAL":2,"POSITION":1,"TEXCOORD_0":3},"indices":0,"material":0,"mode":4},{"attributes":{"NORMAL":6,"POSITION":5,"TEXCOORD_0":7},"indices":4,"material":1,"mode":4}]}],"nodes":[{"mesh":0,"name":"tree-palm-withered-a","rotation":[0,0,0,1],"scale":[1,1,1],"translation":[0,0,0]}],"samplers":[{}],"scene":0,"scenes":[{"name":"Root Scene","nodes":[0]}]}