{"accessors":[{"bufferView":0,"byteOffset":0,"componentType":5123,"count":1386,"type":"SCALAR"},{"bufferView":1,"byteOffset":0,"componentType":5126,"count":1386,"max":[0.0108431428670883,0.0258994791656733,0.00551600381731987],"min":[-0.01304771844298,-0.00247122067958,-0.00833098124713],"type":"VEC3"},{"bufferView":2,"byteOffset":0,"componentType":5126,"count":1386,"type":"VEC3"},{"bufferView":3,"byteOffset":0,"componentType":5126,"count":1386,"type":"VEC2"}],"asset":{"generator":"FBX2glTF v0.13.1","version":"2.0"},"bufferViews":[{"buffer":0,"byteLength":2772,"byteOffset":0,"target":34963},{"buffer":0,"byteLength":16632,"byteOffset":2772,"target":34962},{"buffer":0,"byteLength":16632,"byteOffset":19404,"target":34962},{"buffer":0,"byteLength":11088,"byteOffset":36036,"target":34962}],"buffers":[{"byteLength":47124,"uri":"tree-juniper-dead-a.bin"}],"materials":[{"alphaMode":"OPAQUE","doubleSided":false,"extras":{"fromFBX":{"isTruePBR":false,"shadingModel":"Phong"}},"name":"Universal Shader V4","pbrMetallicRoughness":{"baseColorFactor":[0.106610722839832,0.0447827018797398,0.0133064528927207,1],"metallicFactor":0.400000005960464,"roughnessFactor":0.229415729641914}}],"meshes":[{"name":"tree-juniper-dead-a","primitives":[{"attributes":{"NORMAL":2,"POSITION":1,"TEXCOORD_0":3},"indices":0,"material":0,"mode":4}]}],"nodes":[{"mesh":0,"name":"tree-juniper-dead-a","rotation":[0,0,0,1],"scale":[1,1,1],"translation":[0,0,0]}],"samplers":[{}],"scene":0,"scenes":[{"name":"Root Scene","nodes":[0]}]}