{"accessors":[{"bufferView":0,"byteOffset":0,"componentType":5123,"count":726,"type":"SCALAR"},{"bufferView":1,"byteOffset":0,"componentType":5126,"count":526,"max":[0.00515146600082517,0.0221947077661753,0.00278897630050778],"min":[-0.01138038467616,-0.0029435986653,-0.00257940706797],"type":"VEC3"},{"bufferView":2,"byteOffset":0,"componentType":5126,"count":526,"type":"VEC3"},{"bufferView":3,"byteOffset":0,"componentType":5126,"count":526,"type":"VEC2"},{"bufferView":4,"byteOffset":0,"componentType":5123,"count":3270,"type":"SCALAR"},{"bufferView":5,"byteOffset":0,"componentType":5126,"count":3270,"max":[0.0152480769902468,0.0356920845806599,0.0126021914184093],"min":[-0.01843068934977,0.00511324079707265,-0.01274661067873],"type":"VEC3"},{"bufferView":6,"byteOffset":0,"componentType":5126,"count":3270,"type":"VEC3"},{"bufferView":7,"byteOffset":0,"componentType":5126,"count":3270,"type":"VEC2"}],"asset":{"generator":"FBX2glTF v0.13.1","version":"2.0"},"bufferViews":[{"buffer":0,"byteLength":1452,"byteOffset":0,"target":34963},{"buffer":0,"byteLength":6312,"byteOffset":1452,"target":34962},{"buffer":0,"byteLength":6312,"byteOffset":7764,"target":34962},{"buffer":0,"byteLength":4208,"byteOffset":14076,"target":34962},{"buffer":0,"byteLength":6540,"byteOffset":18284,"target":34963},{"buffer":0,"byteLength":39240,"byteOffset":24824,"target":34962},{"buffer":0,"byteLength":39240,"byteOffset":64064,"target":34962},{"buffer":0,"byteLength":26160,"byteOffset":103304,"target":34962}],"buffers":[{"byteLength":129464,"uri":"tree-willow-weeping-young-a.bin"}],"materials":[{"alphaMode":"OPAQUE","doubleSided":false,"extras":{"fromFBX":{"isTruePBR":false,"shadingModel":"Phong"}},"name":"Universal Shader V10 - A","pbrMetallicRoughness":{"baseColorFactor":[0.800000011920929,0.800000011920929,0.800000011920929,1],"metallicFactor":0.400000005960464,"roughnessFactor":0.229415729641914}},{"alphaMode":"OPAQUE","doubleSided":false,"extras":{"fromFBX":{"isTruePBR":false,"shadingModel":"Phong"}},"name":"Universal Foliage V1 - A","pbrMetallicRoughness":{"baseColorFactor":[0.230576917529106,0.438745319843292,0.0388147756457329,1],"metallicFactor":0.400000005960464,"roughnessFactor":0.229415729641914}}],"meshes":[{"name":"tree-willow-weeping-young-a","primitives":[{"attributes":{"NORMAL":2,"POSITION":1,"TEXCOORD_0":3},"indices":0,"material":0,"mode":4},{"attributes":{"NORMAL":6,"POSITION":5,"TEXCOORD_0":7},"indices":4,"material":1,"mode":4}]}],"nodes":[{"mesh":0,"name":"tree-willow-weeping-young-a","rotation":[0,0,0,1],"scale":[1,1,1],"translation":[0,0,0]}],"samplers":[{}],"scene":0,"scenes":[{"name":"Root Scene","nodes":[0]}]}