{"accessors":[{"bufferView":0,"byteOffset":0,"componentType":5123,"count":324,"type":"SCALAR"},{"bufferView":1,"byteOffset":0,"componentType":5126,"count":324,"max":[0.00429710187017918,0.00130614743102342,0.00099127576686441],"min":[-0.00438859779388,-0.00012843776494,-0.00178269040771],"type":"VEC3"},{"bufferView":2,"byteOffset":0,"componentType":5126,"count":324,"type":"VEC3"},{"bufferView":3,"byteOffset":0,"componentType":5126,"count":324,"type":"VEC4"},{"bufferView":4,"byteOffset":0,"componentType":5126,"count":324,"type":"VEC2"}],"asset":{"generator":"FBX2glTF v0.13.1","version":"2.0"},"bufferViews":[{"buffer":0,"byteLength":648,"byteOffset":0,"target":34963},{"buffer":0,"byteLength":3888,"byteOffset":648,"target":34962},{"buffer":0,"byteLength":3888,"byteOffset":4536,"target":34962},{"buffer":0,"byteLength":5184,"byteOffset":8424,"target":34962},{"buffer":0,"byteLength":2592,"byteOffset":13608,"target":34962}],"buffers":[{"byteLength":16200,"uri":"tree-birch-branch-b.bin"}],"materials":[{"alphaMode":"OPAQUE","doubleSided":false,"extras":{"fromFBX":{"isTruePBR":false,"shadingModel":"Phong"}},"name":"Universal Shader V4","pbrMetallicRoughness":{"baseColorFactor":[0.106610722839832,0.0447827018797398,0.0133064528927207,1],"metallicFactor":0.400000005960464,"roughnessFactor":0.229415729641914}}],"meshes":[{"name":"tree-birch-branch-b","primitives":[{"attributes":{"COLOR_0":3,"NORMAL":2,"POSITION":1,"TEXCOORD_0":4},"indices":0,"material":0,"mode":4}]}],"nodes":[{"mesh":0,"name":"tree-birch-branch-b","rotation":[0,0,0,1],"scale":[1,1,1],"translation":[0,0,0]}],"samplers":[{}],"scene":0,"scenes":[{"name":"Root Scene","nodes":[0]}]}