{"accessors":[{"bufferView":0,"byteOffset":0,"componentType":5123,"count":2220,"type":"SCALAR"},{"bufferView":1,"byteOffset":0,"componentType":5126,"count":1746,"max":[0.0233484301716089,0.00485600205138326,0.006208969745785],"min":[-0.02333199605346,-0.00049833295634,-0.00612145662308],"type":"VEC3"},{"bufferView":2,"byteOffset":0,"componentType":5126,"count":1746,"type":"VEC3"},{"bufferView":3,"byteOffset":0,"componentType":5126,"count":1746,"type":"VEC2"}],"asset":{"generator":"FBX2glTF v0.13.1","version":"2.0"},"bufferViews":[{"buffer":0,"byteLength":4440,"byteOffset":0,"target":34963},{"buffer":0,"byteLength":20952,"byteOffset":4440,"target":34962},{"buffer":0,"byteLength":20952,"byteOffset":25392,"target":34962},{"buffer":0,"byteLength":13968,"byteOffset":46344,"target":34962}],"buffers":[{"byteLength":60312,"uri":"tree-beech-log-pile-a.bin"}],"materials":[{"alphaMode":"OPAQUE","doubleSided":false,"extras":{"fromFBX":{"isTruePBR":false,"shadingModel":"Phong"}},"name":"Universal Shader V4","pbrMetallicRoughness":{"baseColorFactor":[0.106610722839832,0.0447827018797398,0.0133064528927207,1],"metallicFactor":0.400000005960464,"roughnessFactor":0.229415729641914}}],"meshes":[{"name":"tree-beech-log-pile-a","primitives":[{"attributes":{"NORMAL":2,"POSITION":1,"TEXCOORD_0":3},"indices":0,"material":0,"mode":4}]}],"nodes":[{"mesh":0,"name":"tree-beech-log-pile-a","rotation":[0,0,0,1],"scale":[1,1,1],"translation":[0,0,0]}],"samplers":[{}],"scene":0,"scenes":[{"name":"Root Scene","nodes":[0]}]}