{"accessors":[{"bufferView":0,"byteOffset":0,"componentType":5123,"count":468,"type":"SCALAR"},{"bufferView":1,"byteOffset":0,"componentType":5126,"count":468,"max":[0.00226376275531948,0.00774603709578514,0.00088431779295206],"min":[-0.00202555954456,-0.00102475844324,-0.00248459610157],"type":"VEC3"},{"bufferView":2,"byteOffset":0,"componentType":5126,"count":468,"type":"VEC3"},{"bufferView":3,"byteOffset":0,"componentType":5126,"count":468,"type":"VEC2"},{"bufferView":4,"byteOffset":0,"componentType":5123,"count":1767,"type":"SCALAR"},{"bufferView":5,"byteOffset":0,"componentType":5126,"count":1767,"max":[0.0059488913975656,0.0175631456077099,0.00498863821849227],"min":[-0.00542275840417,0.00314335688017309,-0.00490865111351],"type":"VEC3"},{"bufferView":6,"byteOffset":0,"componentType":5126,"count":1767,"type":"VEC3"},{"bufferView":7,"byteOffset":0,"componentType":5126,"count":1767,"type":"VEC2"}],"asset":{"generator":"FBX2glTF v0.13.1","version":"2.0"},"bufferViews":[{"buffer":0,"byteLength":936,"byteOffset":0,"target":34963},{"buffer":0,"byteLength":5616,"byteOffset":936,"target":34962},{"buffer":0,"byteLength":5616,"byteOffset":6552,"target":34962},{"buffer":0,"byteLength":3744,"byteOffset":12168,"target":34962},{"buffer":0,"byteLength":3534,"byteOffset":15912,"target":34963},{"buffer":0,"byteLength":21204,"byteOffset":19448,"target":34962},{"buffer":0,"byteLength":21204,"byteOffset":40652,"target":34962},{"buffer":0,"byteLength":14136,"byteOffset":61856,"target":34962}],"buffers":[{"byteLength":75992,"uri":"tree-juniper-sapling-b.bin"}],"materials":[{"alphaMode":"OPAQUE","doubleSided":false,"extras":{"fromFBX":{"isTruePBR":false,"shadingModel":"Phong"}},"name":"Universal Shader V10 - A","pbrMetallicRoughness":{"baseColorFactor":[0.800000011920929,0.800000011920929,0.800000011920929,1],"metallicFactor":0.400000005960464,"roughnessFactor":0.229415729641914}},{"alphaMode":"OPAQUE","doubleSided":false,"extras":{"fromFBX":{"isTruePBR":false,"shadingModel":"Phong"}},"name":"Universal Foliage V1 - C","pbrMetallicRoughness":{"baseColorFactor":[0.0468500107526779,0.0668631121516228,0.00949752610176802,1],"metallicFactor":0.400000005960464,"roughnessFactor":0.229415729641914}}],"meshes":[{"name":"tree-juniper-sapling-b","primitives":[{"attributes":{"NORMAL":2,"POSITION":1,"TEXCOORD_0":3},"indices":0,"material":0,"mode":4},{"attributes":{"NORMAL":6,"POSITION":5,"TEXCOORD_0":7},"indices":4,"material":1,"mode":4}]}],"nodes":[{"mesh":0,"name":"tree-juniper-sapling-b","rotation":[0,0,0,1],"scale":[1,1,1],"translation":[0,0,0]}],"samplers":[{}],"scene":0,"scenes":[{"name":"Root Scene","nodes":[0]}]}