{"accessors":[{"bufferView":0,"byteOffset":0,"componentType":5123,"count":1560,"type":"SCALAR"},{"bufferView":1,"byteOffset":0,"componentType":5126,"count":1560,"max":[0.00279408856295049,0.0648184195160866,0.00299003627151251],"min":[-0.00239015929401,-0.00192883959971,-0.00299621676095],"type":"VEC3"},{"bufferView":2,"byteOffset":0,"componentType":5126,"count":1560,"type":"VEC3"},{"bufferView":3,"byteOffset":0,"componentType":5126,"count":1560,"type":"VEC2"}],"asset":{"generator":"FBX2glTF v0.13.1","version":"2.0"},"bufferViews":[{"buffer":0,"byteLength":3120,"byteOffset":0,"target":34963},{"buffer":0,"byteLength":18720,"byteOffset":3120,"target":34962},{"buffer":0,"byteLength":18720,"byteOffset":21840,"target":34962},{"buffer":0,"byteLength":12480,"byteOffset":40560,"target":34962}],"buffers":[{"byteLength":53040,"uri":"tree-palm-dead-a.bin"}],"materials":[{"alphaMode":"OPAQUE","doubleSided":false,"extras":{"fromFBX":{"isTruePBR":false,"shadingModel":"Phong"}},"name":"Universal Shader V10 - A","pbrMetallicRoughness":{"baseColorFactor":[0.800000011920929,0.800000011920929,0.800000011920929,1],"metallicFactor":0.400000005960464,"roughnessFactor":0.229415729641914}}],"meshes":[{"name":"tree-palm-dead-a","primitives":[{"attributes":{"NORMAL":2,"POSITION":1,"TEXCOORD_0":3},"indices":0,"material":0,"mode":4}]}],"nodes":[{"mesh":0,"name":"tree-palm-dead-a","rotation":[0,0,0,1],"scale":[1,1,1],"translation":[0,0,0]}],"samplers":[{}],"scene":0,"scenes":[{"name":"Root Scene","nodes":[0]}]}