{"accessors":[{"bufferView":0,"byteOffset":0,"componentType":5123,"count":1380,"type":"SCALAR"},{"bufferView":1,"byteOffset":0,"componentType":5126,"count":1380,"max":[0.0110588474199176,0.0264146998524666,0.0056257345713675],"min":[-0.01283928565681,-0.00252038077451,-0.0084967110306],"type":"VEC3"},{"bufferView":2,"byteOffset":0,"componentType":5126,"count":1380,"type":"VEC3"},{"bufferView":3,"byteOffset":0,"componentType":5126,"count":1380,"type":"VEC2"},{"bufferView":4,"byteOffset":0,"componentType":5123,"count":1836,"type":"SCALAR"},{"bufferView":5,"byteOffset":0,"componentType":5126,"count":1836,"max":[0.0168635975569487,0.0356272757053375,0.0108423810452223],"min":[-0.02535158023238,0.0187138337641954,-0.02454355172813],"type":"VEC3"},{"bufferView":6,"byteOffset":0,"componentType":5126,"count":1836,"type":"VEC3"},{"bufferView":7,"byteOffset":0,"componentType":5126,"count":1836,"type":"VEC2"}],"asset":{"generator":"FBX2glTF v0.13.1","version":"2.0"},"bufferViews":[{"buffer":0,"byteLength":2760,"byteOffset":0,"target":34963},{"buffer":0,"byteLength":16560,"byteOffset":2760,"target":34962},{"buffer":0,"byteLength":16560,"byteOffset":19320,"target":34962},{"buffer":0,"byteLength":11040,"byteOffset":35880,"target":34962},{"buffer":0,"byteLength":3672,"byteOffset":46920,"target":34963},{"buffer":0,"byteLength":22032,"byteOffset":50592,"target":34962},{"buffer":0,"byteLength":22032,"byteOffset":72624,"target":34962},{"buffer":0,"byteLength":14688,"byteOffset":94656,"target":34962}],"buffers":[{"byteLength":109344,"uri":"tree-juniper-mature-a.bin"}],"materials":[{"alphaMode":"OPAQUE","doubleSided":false,"extras":{"fromFBX":{"isTruePBR":false,"shadingModel":"Phong"}},"name":"Universal Shader V4","pbrMetallicRoughness":{"baseColorFactor":[0.106610722839832,0.0447827018797398,0.0133064528927207,1],"metallicFactor":0.400000005960464,"roughnessFactor":0.229415729641914}},{"alphaMode":"OPAQUE","doubleSided":false,"extras":{"fromFBX":{"isTruePBR":false,"shadingModel":"Phong"}},"name":"Universal Foliage V1 - C","pbrMetallicRoughness":{"baseColorFactor":[0.0468500107526779,0.0668631121516228,0.00949752610176802,1],"metallicFactor":0.400000005960464,"roughnessFactor":0.229415729641914}}],"meshes":[{"name":"tree-juniper-mature-a","primitives":[{"attributes":{"NORMAL":2,"POSITION":1,"TEXCOORD_0":3},"indices":0,"material":0,"mode":4},{"attributes":{"NORMAL":6,"POSITION":5,"TEXCOORD_0":7},"indices":4,"material":1,"mode":4}]}],"nodes":[{"mesh":0,"name":"tree-juniper-mature-a","rotation":[0,0,0,1],"scale":[1,1,1],"translation":[0,0,0]}],"samplers":[{}],"scene":0,"scenes":[{"name":"Root Scene","nodes":[0]}]}