{"accessors":[{"bufferView":0,"byteOffset":0,"componentType":5123,"count":5184,"type":"SCALAR"},{"bufferView":1,"byteOffset":0,"componentType":5126,"count":5120,"max":[0.0283995773643255,0.231382057070732,0.040973175317049],"min":[-0.04547415301204,-0.00842671282589,-0.03146365657449],"type":"VEC3"},{"bufferView":2,"byteOffset":0,"componentType":5126,"count":5120,"type":"VEC3"},{"bufferView":3,"byteOffset":0,"componentType":5126,"count":5120,"type":"VEC2"}],"asset":{"generator":"FBX2glTF v0.13.1","version":"2.0"},"bufferViews":[{"buffer":0,"byteLength":10368,"byteOffset":0,"target":34963},{"buffer":0,"byteLength":61440,"byteOffset":10368,"target":34962},{"buffer":0,"byteLength":61440,"byteOffset":71808,"target":34962},{"buffer":0,"byteLength":40960,"byteOffset":133248,"target":34962}],"buffers":[{"byteLength":174208,"uri":"tree-sequoia-dead-a.bin"}],"materials":[{"alphaMode":"OPAQUE","doubleSided":false,"extras":{"fromFBX":{"isTruePBR":false,"shadingModel":"Phong"}},"name":"Universal Shader V10 - A","pbrMetallicRoughness":{"baseColorFactor":[0.800000011920929,0.800000011920929,0.800000011920929,1],"metallicFactor":0.400000005960464,"roughnessFactor":0.229415729641914}}],"meshes":[{"name":"tree-sequoia-dead-a","primitives":[{"attributes":{"NORMAL":2,"POSITION":1,"TEXCOORD_0":3},"indices":0,"material":0,"mode":4}]}],"nodes":[{"mesh":0,"name":"tree-sequoia-dead-a","rotation":[0,0,0,1],"scale":[1,1,1],"translation":[0,0,0]}],"samplers":[{}],"scene":0,"scenes":[{"name":"Root Scene","nodes":[0]}]}