{"accessors":[{"bufferView":0,"byteOffset":0,"componentType":5123,"count":1566,"type":"SCALAR"},{"bufferView":1,"byteOffset":0,"componentType":5126,"count":1056,"max":[0.00369206978939474,0.00679202284663916,0.00420611025765538],"min":[-0.00515147391707,-0.01051344815642,-0.00513498159125],"type":"VEC3"},{"bufferView":2,"byteOffset":0,"componentType":5126,"count":1056,"type":"VEC3"},{"bufferView":3,"byteOffset":0,"componentType":5126,"count":1056,"type":"VEC2"},{"bufferView":4,"byteOffset":0,"componentType":5123,"count":258,"type":"SCALAR"},{"bufferView":5,"byteOffset":0,"componentType":5126,"count":258,"max":[0.00331186107359827,0.0103672593832016,0.00348816066980362],"min":[-0.00287593714893,0.00421888614073396,-0.00318199186586],"type":"VEC3"},{"bufferView":6,"byteOffset":0,"componentType":5126,"count":258,"type":"VEC3"},{"bufferView":7,"byteOffset":0,"componentType":5126,"count":258,"type":"VEC2"}],"asset":{"generator":"FBX2glTF v0.13.1","version":"2.0"},"bufferViews":[{"buffer":0,"byteLength":3132,"byteOffset":0,"target":34963},{"buffer":0,"byteLength":12672,"byteOffset":3132,"target":34962},{"buffer":0,"byteLength":12672,"byteOffset":15804,"target":34962},{"buffer":0,"byteLength":8448,"byteOffset":28476,"target":34962},{"buffer":0,"byteLength":516,"byteOffset":36924,"target":34963},{"buffer":0,"byteLength":3096,"byteOffset":37440,"target":34962},{"buffer":0,"byteLength":3096,"byteOffset":40536,"target":34962},{"buffer":0,"byteLength":2064,"byteOffset":43632,"target":34962}],"buffers":[{"byteLength":45696,"uri":"tree-mangrove-sapling-a.bin"}],"materials":[{"alphaMode":"OPAQUE","doubleSided":false,"extras":{"fromFBX":{"isTruePBR":false,"shadingModel":"Phong"}},"name":"Universal Shader V10 - A","pbrMetallicRoughness":{"baseColorFactor":[0.800000011920929,0.800000011920929,0.800000011920929,1],"metallicFactor":0.400000005960464,"roughnessFactor":0.229415729641914}},{"alphaMode":"OPAQUE","doubleSided":false,"extras":{"fromFBX":{"isTruePBR":false,"shadingModel":"Phong"}},"name":"Universal Foliage V1 - A","pbrMetallicRoughness":{"baseColorFactor":[0.230576917529106,0.438745319843292,0.0388147756457329,1],"metallicFactor":0.400000005960464,"roughnessFactor":0.229415729641914}}],"meshes":[{"name":"tree-mangrove-sapling-a","primitives":[{"attributes":{"NORMAL":2,"POSITION":1,"TEXCOORD_0":3},"indices":0,"material":0,"mode":4},{"attributes":{"NORMAL":6,"POSITION":5,"TEXCOORD_0":7},"indices":4,"material":1,"mode":4}]}],"nodes":[{"mesh":0,"name":"tree-mangrove-sapling-a","rotation":[0,0,0,1],"scale":[1,1,1],"translation":[0,0,0]}],"samplers":[{}],"scene":0,"scenes":[{"name":"Root Scene","nodes":[0]}]}