{"accessors":[{"bufferView":0,"byteOffset":0,"componentType":5123,"count":1794,"type":"SCALAR"},{"bufferView":1,"byteOffset":0,"componentType":5126,"count":1794,"max":[0.0444472059607506,0.0273724552243948,0.0177299156785011],"min":[-0.04294022172689,-0.00234632031061,-0.01487848162651],"type":"VEC3"},{"bufferView":2,"byteOffset":0,"componentType":5126,"count":1794,"type":"VEC3"},{"bufferView":3,"byteOffset":0,"componentType":5126,"count":1794,"type":"VEC2"}],"asset":{"generator":"FBX2glTF v0.13.1","version":"2.0"},"bufferViews":[{"buffer":0,"byteLength":3588,"byteOffset":0,"target":34963},{"buffer":0,"byteLength":21528,"byteOffset":3588,"target":34962},{"buffer":0,"byteLength":21528,"byteOffset":25116,"target":34962},{"buffer":0,"byteLength":14352,"byteOffset":46644,"target":34962}],"buffers":[{"byteLength":60996,"uri":"tree-sequoia-rotten-big-a.bin"}],"materials":[{"alphaMode":"OPAQUE","doubleSided":false,"extras":{"fromFBX":{"isTruePBR":false,"shadingModel":"Phong"}},"name":"Universal Shader V10 - A","pbrMetallicRoughness":{"baseColorFactor":[0.800000011920929,0.800000011920929,0.800000011920929,1],"metallicFactor":0.400000005960464,"roughnessFactor":0.229415729641914}}],"meshes":[{"name":"tree-sequoia-rotten-big-a","primitives":[{"attributes":{"NORMAL":2,"POSITION":1,"TEXCOORD_0":3},"indices":0,"material":0,"mode":4}]}],"nodes":[{"mesh":0,"name":"tree-sequoia-rotten-big-a","rotation":[0,0,0,1],"scale":[1,1,1],"translation":[0,0,0]}],"samplers":[{}],"scene":0,"scenes":[{"name":"Root Scene","nodes":[0]}]}