{"accessors":[{"bufferView":0,"byteOffset":0,"componentType":5123,"count":180,"type":"SCALAR"},{"bufferView":1,"byteOffset":0,"componentType":5126,"count":120,"max":[0.00201567518524826,0.00503575010225177,0.00202932953834534],"min":[-0.00180259998888,-0.00249556382187,-0.00202933000401],"type":"VEC3"},{"bufferView":2,"byteOffset":0,"componentType":5126,"count":120,"type":"VEC3"},{"bufferView":3,"byteOffset":0,"componentType":5126,"count":120,"type":"VEC2"},{"bufferView":4,"byteOffset":0,"componentType":5123,"count":2091,"type":"SCALAR"},{"bufferView":5,"byteOffset":0,"componentType":5126,"count":2091,"max":[0.00458680745214224,0.0447631478309631,0.00501902727410197],"min":[-0.00501792458817,0.00138644687831402,-0.00537020899355],"type":"VEC3"},{"bufferView":6,"byteOffset":0,"componentType":5126,"count":2091,"type":"VEC3"},{"bufferView":7,"byteOffset":0,"componentType":5126,"count":2091,"type":"VEC2"}],"asset":{"generator":"FBX2glTF v0.13.1","version":"2.0"},"bufferViews":[{"buffer":0,"byteLength":360,"byteOffset":0,"target":34963},{"buffer":0,"byteLength":1440,"byteOffset":360,"target":34962},{"buffer":0,"byteLength":1440,"byteOffset":1800,"target":34962},{"buffer":0,"byteLength":960,"byteOffset":3240,"target":34962},{"buffer":0,"byteLength":4182,"byteOffset":4200,"target":34963},{"buffer":0,"byteLength":25092,"byteOffset":8384,"target":34962},{"buffer":0,"byteLength":25092,"byteOffset":33476,"target":34962},{"buffer":0,"byteLength":16728,"byteOffset":58568,"target":34962}],"buffers":[{"byteLength":75296,"uri":"tree-cypress-young-a.bin"}],"materials":[{"alphaMode":"OPAQUE","doubleSided":false,"extras":{"fromFBX":{"isTruePBR":false,"shadingModel":"Phong"}},"name":"Universal Shader V10 - A","pbrMetallicRoughness":{"baseColorFactor":[0.800000011920929,0.800000011920929,0.800000011920929,1],"metallicFactor":0.400000005960464,"roughnessFactor":0.229415729641914}},{"alphaMode":"OPAQUE","doubleSided":false,"extras":{"fromFBX":{"isTruePBR":false,"shadingModel":"Phong"}},"name":"Universal Foliage V1 - C","pbrMetallicRoughness":{"baseColorFactor":[0.0468500107526779,0.0668631121516228,0.00949752610176802,1],"metallicFactor":0.400000005960464,"roughnessFactor":0.229415729641914}}],"meshes":[{"name":"tree-cypress-young-a","primitives":[{"attributes":{"NORMAL":2,"POSITION":1,"TEXCOORD_0":3},"indices":0,"material":0,"mode":4},{"attributes":{"NORMAL":6,"POSITION":5,"TEXCOORD_0":7},"indices":4,"material":1,"mode":4}]}],"nodes":[{"mesh":0,"name":"tree-cypress-young-a","rotation":[0,0,0,1],"scale":[1,1,1],"translation":[0,0,0]}],"samplers":[{}],"scene":0,"scenes":[{"name":"Root Scene","nodes":[0]}]}