{"accessors":[{"bufferView":0,"byteOffset":0,"componentType":5123,"count":1008,"type":"SCALAR"},{"bufferView":1,"byteOffset":0,"componentType":5126,"count":808,"max":[0.038566417992115,0.00422507524490356,0.00251592928543687],"min":[-0.04275065660477,-0.0004666041059,-0.00258045317605],"type":"VEC3"},{"bufferView":2,"byteOffset":0,"componentType":5126,"count":808,"type":"VEC3"},{"bufferView":3,"byteOffset":0,"componentType":5126,"count":808,"type":"VEC2"}],"asset":{"generator":"FBX2glTF v0.13.1","version":"2.0"},"bufferViews":[{"buffer":0,"byteLength":2016,"byteOffset":0,"target":34963},{"buffer":0,"byteLength":9696,"byteOffset":2016,"target":34962},{"buffer":0,"byteLength":9696,"byteOffset":11712,"target":34962},{"buffer":0,"byteLength":6464,"byteOffset":21408,"target":34962}],"buffers":[{"byteLength":27872,"uri":"tree-spruce-log-a.bin"}],"materials":[{"alphaMode":"OPAQUE","doubleSided":false,"extras":{"fromFBX":{"isTruePBR":false,"shadingModel":"Phong"}},"name":"Universal Shader V4","pbrMetallicRoughness":{"baseColorFactor":[0.106610722839832,0.0447827018797398,0.0133064528927207,1],"metallicFactor":0.400000005960464,"roughnessFactor":0.229415729641914}}],"meshes":[{"name":"tree-spruce-log-a","primitives":[{"attributes":{"NORMAL":2,"POSITION":1,"TEXCOORD_0":3},"indices":0,"material":0,"mode":4}]}],"nodes":[{"mesh":0,"name":"tree-spruce-log-a","rotation":[0,0,0,1],"scale":[1,1,1],"translation":[0,0,0]}],"samplers":[{}],"scene":0,"scenes":[{"name":"Root Scene","nodes":[0]}]}