{"accessors":[{"bufferView":0,"byteOffset":0,"componentType":5123,"count":1170,"type":"SCALAR"},{"bufferView":1,"byteOffset":0,"componentType":5126,"count":1034,"max":[0.0340030528604984,0.00434769503772259,0.00349224195815623],"min":[-0.04079816117883,-0.00047609381727,-0.00208846176974],"type":"VEC3"},{"bufferView":2,"byteOffset":0,"componentType":5126,"count":1034,"type":"VEC3"},{"bufferView":3,"byteOffset":0,"componentType":5126,"count":1034,"type":"VEC2"}],"asset":{"generator":"FBX2glTF v0.13.1","version":"2.0"},"bufferViews":[{"buffer":0,"byteLength":2340,"byteOffset":0,"target":34963},{"buffer":0,"byteLength":12408,"byteOffset":2340,"target":34962},{"buffer":0,"byteLength":12408,"byteOffset":14748,"target":34962},{"buffer":0,"byteLength":8272,"byteOffset":27156,"target":34962}],"buffers":[{"byteLength":35428,"uri":"tree-pine-log-a.bin"}],"materials":[{"alphaMode":"OPAQUE","doubleSided":false,"extras":{"fromFBX":{"isTruePBR":false,"shadingModel":"Phong"}},"name":"Universal Shader V4","pbrMetallicRoughness":{"baseColorFactor":[0.106610722839832,0.0447827018797398,0.0133064528927207,1],"metallicFactor":0.400000005960464,"roughnessFactor":0.229415729641914}}],"meshes":[{"name":"tree-pine-log-a","primitives":[{"attributes":{"NORMAL":2,"POSITION":1,"TEXCOORD_0":3},"indices":0,"material":0,"mode":4}]}],"nodes":[{"mesh":0,"name":"tree-pine-log-a","rotation":[0,0,0,1],"scale":[1,1,1],"translation":[0,0,0]}],"samplers":[{}],"scene":0,"scenes":[{"name":"Root Scene","nodes":[0]}]}