{"accessors":[{"bufferView":0,"byteOffset":0,"componentType":5123,"count":1056,"type":"SCALAR"},{"bufferView":1,"byteOffset":0,"componentType":5126,"count":1056,"max":[0.00392722198739648,0.0228815022855997,0.00262719695456326],"min":[-0.00243502412923,-0.00191874080338,-0.00442706467584],"type":"VEC3"},{"bufferView":2,"byteOffset":0,"componentType":5126,"count":1056,"type":"VEC3"},{"bufferView":3,"byteOffset":0,"componentType":5126,"count":1056,"type":"VEC2"},{"bufferView":4,"byteOffset":0,"componentType":5123,"count":3174,"type":"SCALAR"},{"bufferView":5,"byteOffset":0,"componentType":5126,"count":3174,"max":[0.00852487795054913,0.0298339519649744,0.00608351593837142],"min":[-0.00676845014095,0.00884394906461239,-0.01037378422916],"type":"VEC3"},{"bufferView":6,"byteOffset":0,"componentType":5126,"count":3174,"type":"VEC3"},{"bufferView":7,"byteOffset":0,"componentType":5126,"count":3174,"type":"VEC2"}],"asset":{"generator":"FBX2glTF v0.13.1","version":"2.0"},"bufferViews":[{"buffer":0,"byteLength":2112,"byteOffset":0,"target":34963},{"buffer":0,"byteLength":12672,"byteOffset":2112,"target":34962},{"buffer":0,"byteLength":12672,"byteOffset":14784,"target":34962},{"buffer":0,"byteLength":8448,"byteOffset":27456,"target":34962},{"buffer":0,"byteLength":6348,"byteOffset":35904,"target":34963},{"buffer":0,"byteLength":38088,"byteOffset":42252,"target":34962},{"buffer":0,"byteLength":38088,"byteOffset":80340,"target":34962},{"buffer":0,"byteLength":25392,"byteOffset":118428,"target":34962}],"buffers":[{"byteLength":143820,"uri":"tree-juniper-young-a.bin"}],"materials":[{"alphaMode":"OPAQUE","doubleSided":false,"extras":{"fromFBX":{"isTruePBR":false,"shadingModel":"Phong"}},"name":"Universal Shader V10 - A","pbrMetallicRoughness":{"baseColorFactor":[0.800000011920929,0.800000011920929,0.800000011920929,1],"metallicFactor":0.400000005960464,"roughnessFactor":0.229415729641914}},{"alphaMode":"OPAQUE","doubleSided":false,"extras":{"fromFBX":{"isTruePBR":false,"shadingModel":"Phong"}},"name":"Universal Foliage V1 - C","pbrMetallicRoughness":{"baseColorFactor":[0.0468500107526779,0.0668631121516228,0.00949752610176802,1],"metallicFactor":0.400000005960464,"roughnessFactor":0.229415729641914}}],"meshes":[{"name":"tree-juniper-young-a","primitives":[{"attributes":{"NORMAL":2,"POSITION":1,"TEXCOORD_0":3},"indices":0,"material":0,"mode":4},{"attributes":{"NORMAL":6,"POSITION":5,"TEXCOORD_0":7},"indices":4,"material":1,"mode":4}]}],"nodes":[{"mesh":0,"name":"tree-juniper-young-a","rotation":[0,0,0,1],"scale":[1,1,1],"translation":[0,0,0]}],"samplers":[{}],"scene":0,"scenes":[{"name":"Root Scene","nodes":[0]}]}