{"accessors":[{"bufferView":0,"byteOffset":0,"componentType":5123,"count":2988,"type":"SCALAR"},{"bufferView":1,"byteOffset":0,"componentType":5126,"count":2988,"max":[0.00624234182760119,0.0897150859236717,0.00663017714396119],"min":[-0.00741820782423,0.0029169621411711,-0.00777818728238],"type":"VEC3"},{"bufferView":2,"byteOffset":0,"componentType":5126,"count":2988,"type":"VEC3"},{"bufferView":3,"byteOffset":0,"componentType":5126,"count":2988,"type":"VEC2"},{"bufferView":4,"byteOffset":0,"componentType":5123,"count":198,"type":"SCALAR"},{"bufferView":5,"byteOffset":0,"componentType":5126,"count":186,"max":[0.00342230964452028,0.0194960199296474,0.00386240659281611],"min":[-0.00285843457095,-0.0024130649399,-0.00337581452914],"type":"VEC3"},{"bufferView":6,"byteOffset":0,"componentType":5126,"count":186,"type":"VEC3"},{"bufferView":7,"byteOffset":0,"componentType":5126,"count":186,"type":"VEC2"}],"asset":{"generator":"FBX2glTF v0.13.1","version":"2.0"},"bufferViews":[{"buffer":0,"byteLength":5976,"byteOffset":0,"target":34963},{"buffer":0,"byteLength":35856,"byteOffset":5976,"target":34962},{"buffer":0,"byteLength":35856,"byteOffset":41832,"target":34962},{"buffer":0,"byteLength":23904,"byteOffset":77688,"target":34962},{"buffer":0,"byteLength":396,"byteOffset":101592,"target":34963},{"buffer":0,"byteLength":2232,"byteOffset":101988,"target":34962},{"buffer":0,"byteLength":2232,"byteOffset":104220,"target":34962},{"buffer":0,"byteLength":1488,"byteOffset":106452,"target":34962}],"buffers":[{"byteLength":107940,"uri":"tree-cypress-mature-b.bin"}],"materials":[{"alphaMode":"OPAQUE","doubleSided":false,"extras":{"fromFBX":{"isTruePBR":false,"shadingModel":"Phong"}},"name":"Universal Foliage V1 - C","pbrMetallicRoughness":{"baseColorFactor":[0.0468500107526779,0.0668631121516228,0.00949752610176802,1],"metallicFactor":0.400000005960464,"roughnessFactor":0.229415729641914}},{"alphaMode":"OPAQUE","doubleSided":false,"extras":{"fromFBX":{"isTruePBR":false,"shadingModel":"Phong"}},"name":"Universal Shader V4","pbrMetallicRoughness":{"baseColorFactor":[0.106610722839832,0.0447827018797398,0.0133064528927207,1],"metallicFactor":0.400000005960464,"roughnessFactor":0.229415729641914}}],"meshes":[{"name":"tree-cypress-mature-b","primitives":[{"attributes":{"NORMAL":2,"POSITION":1,"TEXCOORD_0":3},"indices":0,"material":0,"mode":4},{"attributes":{"NORMAL":6,"POSITION":5,"TEXCOORD_0":7},"indices":4,"material":1,"mode":4}]}],"nodes":[{"mesh":0,"name":"tree-cypress-mature-b","rotation":[0,0,0,1],"scale":[1,1,1],"translation":[0,0,0]}],"samplers":[{}],"scene":0,"scenes":[{"name":"Root Scene","nodes":[0]}]}