{"accessors":[{"bufferView":0,"byteOffset":0,"componentType":5123,"count":2469,"type":"SCALAR"},{"bufferView":1,"byteOffset":0,"componentType":5126,"count":2163,"max":[0.0429402142763138,0.0273724552243948,0.0146302282810211],"min":[-0.04466596990824,-0.00614735530689,-0.01772991940379],"type":"VEC3"},{"bufferView":2,"byteOffset":0,"componentType":5126,"count":2163,"type":"VEC3"},{"bufferView":3,"byteOffset":0,"componentType":5126,"count":2163,"type":"VEC2"},{"bufferView":4,"byteOffset":0,"componentType":5123,"count":11487,"type":"SCALAR"},{"bufferView":5,"byteOffset":0,"componentType":5126,"count":10353,"max":[0.0404809936881065,0.0260608103126287,0.00905508175492287],"min":[-0.04423874616623,-0.00102765322663,-0.014972910285],"type":"VEC3"},{"bufferView":6,"byteOffset":0,"componentType":5126,"count":10353,"type":"VEC3"},{"bufferView":7,"byteOffset":0,"componentType":5126,"count":10353,"type":"VEC2"}],"asset":{"generator":"FBX2glTF v0.13.1","version":"2.0"},"bufferViews":[{"buffer":0,"byteLength":4938,"byteOffset":0,"target":34963},{"buffer":0,"byteLength":25956,"byteOffset":4940,"target":34962},{"buffer":0,"byteLength":25956,"byteOffset":30896,"target":34962},{"buffer":0,"byteLength":17304,"byteOffset":56852,"target":34962},{"buffer":0,"byteLength":22974,"byteOffset":74156,"target":34963},{"buffer":0,"byteLength":124236,"byteOffset":97132,"target":34962},{"buffer":0,"byteLength":124236,"byteOffset":221368,"target":34962},{"buffer":0,"byteLength":82824,"byteOffset":345604,"target":34962}],"buffers":[{"byteLength":428428,"uri":"tree-sequoia-rotten-big-vegetation.bin"}],"materials":[{"alphaMode":"OPAQUE","doubleSided":false,"extras":{"fromFBX":{"isTruePBR":false,"shadingModel":"Phong"}},"name":"Universal Shader V10 - A","pbrMetallicRoughness":{"baseColorFactor":[0.800000011920929,0.800000011920929,0.800000011920929,1],"metallicFactor":0.400000005960464,"roughnessFactor":0.229415729641914}},{"alphaMode":"OPAQUE","doubleSided":false,"extras":{"fromFBX":{"isTruePBR":false,"shadingModel":"Phong"}},"name":"Universal Foliage V1 - B","pbrMetallicRoughness":{"baseColorFactor":[0.112882412970066,0.226711452007294,0.0520631447434425,1],"metallicFactor":0.400000005960464,"roughnessFactor":0.229415729641914}}],"meshes":[{"name":"tree-sequoia-rotten-big-vegetation","primitives":[{"attributes":{"NORMAL":2,"POSITION":1,"TEXCOORD_0":3},"indices":0,"material":0,"mode":4},{"attributes":{"NORMAL":6,"POSITION":5,"TEXCOORD_0":7},"indices":4,"material":1,"mode":4}]}],"nodes":[{"mesh":0,"name":"tree-sequoia-rotten-big-vegetation","rotation":[0,0,0,1],"scale":[1,1,1],"translation":[0,0,0]}],"samplers":[{}],"scene":0,"scenes":[{"name":"Root Scene","nodes":[0]}]}