{"accessors":[{"bufferView":0,"byteOffset":0,"componentType":5123,"count":3279,"type":"SCALAR"},{"bufferView":1,"byteOffset":0,"componentType":5126,"count":3279,"max":[0.00582709535956383,0.0755432173609734,0.00600185012444854],"min":[-0.00575583614409,0.00373994768597186,-0.00580968288705],"type":"VEC3"},{"bufferView":2,"byteOffset":0,"componentType":5126,"count":3279,"type":"VEC3"},{"bufferView":3,"byteOffset":0,"componentType":5126,"count":3279,"type":"VEC2"},{"bufferView":4,"byteOffset":0,"componentType":5123,"count":198,"type":"SCALAR"},{"bufferView":5,"byteOffset":0,"componentType":5126,"count":186,"max":[0.00317787867970765,0.0194960199296474,0.00372376292943954],"min":[-0.00290883961134,-0.00249165599234,-0.00323961814865],"type":"VEC3"},{"bufferView":6,"byteOffset":0,"componentType":5126,"count":186,"type":"VEC3"},{"bufferView":7,"byteOffset":0,"componentType":5126,"count":186,"type":"VEC2"}],"asset":{"generator":"FBX2glTF v0.13.1","version":"2.0"},"bufferViews":[{"buffer":0,"byteLength":6558,"byteOffset":0,"target":34963},{"buffer":0,"byteLength":39348,"byteOffset":6560,"target":34962},{"buffer":0,"byteLength":39348,"byteOffset":45908,"target":34962},{"buffer":0,"byteLength":26232,"byteOffset":85256,"target":34962},{"buffer":0,"byteLength":396,"byteOffset":111488,"target":34963},{"buffer":0,"byteLength":2232,"byteOffset":111884,"target":34962},{"buffer":0,"byteLength":2232,"byteOffset":114116,"target":34962},{"buffer":0,"byteLength":1488,"byteOffset":116348,"target":34962}],"buffers":[{"byteLength":117836,"uri":"tree-cypress-mature-a.bin"}],"materials":[{"alphaMode":"OPAQUE","doubleSided":false,"extras":{"fromFBX":{"isTruePBR":false,"shadingModel":"Phong"}},"name":"Universal Foliage V1 - C","pbrMetallicRoughness":{"baseColorFactor":[0.0468500107526779,0.0668631121516228,0.00949752610176802,1],"metallicFactor":0.400000005960464,"roughnessFactor":0.229415729641914}},{"alphaMode":"OPAQUE","doubleSided":false,"extras":{"fromFBX":{"isTruePBR":false,"shadingModel":"Phong"}},"name":"Universal Shader V4","pbrMetallicRoughness":{"baseColorFactor":[0.106610722839832,0.0447827018797398,0.0133064528927207,1],"metallicFactor":0.400000005960464,"roughnessFactor":0.229415729641914}}],"meshes":[{"name":"tree-cypress-mature-a","primitives":[{"attributes":{"NORMAL":2,"POSITION":1,"TEXCOORD_0":3},"indices":0,"material":0,"mode":4},{"attributes":{"NORMAL":6,"POSITION":5,"TEXCOORD_0":7},"indices":4,"material":1,"mode":4}]}],"nodes":[{"mesh":0,"name":"tree-cypress-mature-a","rotation":[0,0,0,1],"scale":[1,1,1],"translation":[0,0,0]}],"samplers":[{}],"scene":0,"scenes":[{"name":"Root Scene","nodes":[0]}]}