{"accessors":[{"bufferView":0,"byteOffset":0,"componentType":5123,"count":1317,"type":"SCALAR"},{"bufferView":1,"byteOffset":0,"componentType":5126,"count":1317,"max":[0.00448818830773234,0.0545156896114349,0.00441504595801234],"min":[-0.00531863933429,-0.00223421771079,-0.0054915365763],"type":"VEC3"},{"bufferView":2,"byteOffset":0,"componentType":5126,"count":1317,"type":"VEC3"},{"bufferView":3,"byteOffset":0,"componentType":5126,"count":1317,"type":"VEC2"},{"bufferView":4,"byteOffset":0,"componentType":5123,"count":3543,"type":"SCALAR"},{"bufferView":5,"byteOffset":0,"componentType":5126,"count":3543,"max":[0.0138554042205215,0.058119248598814,0.0127011938020587],"min":[-0.01522618252784,0.00941377226263285,-0.0140951089561],"type":"VEC3"},{"bufferView":6,"byteOffset":0,"componentType":5126,"count":3543,"type":"VEC3"},{"bufferView":7,"byteOffset":0,"componentType":5126,"count":3543,"type":"VEC2"}],"asset":{"generator":"FBX2glTF v0.13.1","version":"2.0"},"bufferViews":[{"buffer":0,"byteLength":2634,"byteOffset":0,"target":34963},{"buffer":0,"byteLength":15804,"byteOffset":2636,"target":34962},{"buffer":0,"byteLength":15804,"byteOffset":18440,"target":34962},{"buffer":0,"byteLength":10536,"byteOffset":34244,"target":34962},{"buffer":0,"byteLength":7086,"byteOffset":44780,"target":34963},{"buffer":0,"byteLength":42516,"byteOffset":51868,"target":34962},{"buffer":0,"byteLength":42516,"byteOffset":94384,"target":34962},{"buffer":0,"byteLength":28344,"byteOffset":136900,"target":34962}],"buffers":[{"byteLength":165244,"uri":"tree-spruce-young-a.bin"}],"materials":[{"alphaMode":"OPAQUE","doubleSided":false,"extras":{"fromFBX":{"isTruePBR":false,"shadingModel":"Phong"}},"name":"Universal Shader V10 - A","pbrMetallicRoughness":{"baseColorFactor":[0.800000011920929,0.800000011920929,0.800000011920929,1],"metallicFactor":0.400000005960464,"roughnessFactor":0.229415729641914}},{"alphaMode":"OPAQUE","doubleSided":false,"extras":{"fromFBX":{"isTruePBR":false,"shadingModel":"Phong"}},"name":"Universal Foliage V1 - C","pbrMetallicRoughness":{"baseColorFactor":[0.0468500107526779,0.0668631121516228,0.00949752610176802,1],"metallicFactor":0.400000005960464,"roughnessFactor":0.229415729641914}}],"meshes":[{"name":"tree-spruce-young-a","primitives":[{"attributes":{"NORMAL":2,"POSITION":1,"TEXCOORD_0":3},"indices":0,"material":0,"mode":4},{"attributes":{"NORMAL":6,"POSITION":5,"TEXCOORD_0":7},"indices":4,"material":1,"mode":4}]}],"nodes":[{"mesh":0,"name":"tree-spruce-young-a","rotation":[0,0,0,1],"scale":[1,1,1],"translation":[0,0,0]}],"samplers":[{}],"scene":0,"scenes":[{"name":"Root Scene","nodes":[0]}]}