{"accessors":[{"bufferView":0,"byteOffset":0,"componentType":5123,"count":552,"type":"SCALAR"},{"bufferView":1,"byteOffset":0,"componentType":5126,"count":372,"max":[0.00148458895273507,0.0169955678284168,0.00138472707476467],"min":[-0.00235792249441,-0.00235831155442,-0.0021872788202],"type":"VEC3"},{"bufferView":2,"byteOffset":0,"componentType":5126,"count":372,"type":"VEC3"},{"bufferView":3,"byteOffset":0,"componentType":5126,"count":372,"type":"VEC2"},{"bufferView":4,"byteOffset":0,"componentType":5123,"count":522,"type":"SCALAR"},{"bufferView":5,"byteOffset":0,"componentType":5126,"count":348,"max":[0.00242142449133098,0.0171627551317215,0.00222467235289514],"min":[-0.00265566259623,0.00553864007815719,-0.00250794109888],"type":"VEC3"},{"bufferView":6,"byteOffset":0,"componentType":5126,"count":348,"type":"VEC3"},{"bufferView":7,"byteOffset":0,"componentType":5126,"count":348,"type":"VEC2"}],"asset":{"generator":"FBX2glTF v0.13.1","version":"2.0"},"bufferViews":[{"buffer":0,"byteLength":1104,"byteOffset":0,"target":34963},{"buffer":0,"byteLength":4464,"byteOffset":1104,"target":34962},{"buffer":0,"byteLength":4464,"byteOffset":5568,"target":34962},{"buffer":0,"byteLength":2976,"byteOffset":10032,"target":34962},{"buffer":0,"byteLength":1044,"byteOffset":13008,"target":34963},{"buffer":0,"byteLength":4176,"byteOffset":14052,"target":34962},{"buffer":0,"byteLength":4176,"byteOffset":18228,"target":34962},{"buffer":0,"byteLength":2784,"byteOffset":22404,"target":34962}],"buffers":[{"byteLength":25188,"uri":"tree-willow-weeping-sapling-a.bin"}],"materials":[{"alphaMode":"OPAQUE","doubleSided":false,"extras":{"fromFBX":{"isTruePBR":false,"shadingModel":"Phong"}},"name":"Universal Shader V10 - A","pbrMetallicRoughness":{"baseColorFactor":[0.800000011920929,0.800000011920929,0.800000011920929,1],"metallicFactor":0.400000005960464,"roughnessFactor":0.229415729641914}},{"alphaMode":"OPAQUE","doubleSided":false,"extras":{"fromFBX":{"isTruePBR":false,"shadingModel":"Phong"}},"name":"Universal Foliage V1 - A","pbrMetallicRoughness":{"baseColorFactor":[0.230576917529106,0.438745319843292,0.0388147756457329,1],"metallicFactor":0.400000005960464,"roughnessFactor":0.229415729641914}}],"meshes":[{"name":"tree-willow-weeping-sapling-a","primitives":[{"attributes":{"NORMAL":2,"POSITION":1,"TEXCOORD_0":3},"indices":0,"material":0,"mode":4},{"attributes":{"NORMAL":6,"POSITION":5,"TEXCOORD_0":7},"indices":4,"material":1,"mode":4}]}],"nodes":[{"mesh":0,"name":"tree-willow-weeping-sapling-a","rotation":[0,0,0,1],"scale":[1,1,1],"translation":[0,0,0]}],"samplers":[{}],"scene":0,"scenes":[{"name":"Root Scene","nodes":[0]}]}