{"accessors":[{"bufferView":0,"byteOffset":0,"componentType":5123,"count":384,"type":"SCALAR"},{"bufferView":1,"byteOffset":0,"componentType":5126,"count":382,"max":[0.00951802358031273,0.00151087937410921,0.00139768014196306],"min":[-0.00920593366027,-0.00012490295921,-0.00074930553092],"type":"VEC3"},{"bufferView":2,"byteOffset":0,"componentType":5126,"count":382,"type":"VEC3"},{"bufferView":3,"byteOffset":0,"componentType":5126,"count":382,"type":"VEC2"}],"asset":{"generator":"FBX2glTF v0.13.1","version":"2.0"},"bufferViews":[{"buffer":0,"byteLength":768,"byteOffset":0,"target":34963},{"buffer":0,"byteLength":4584,"byteOffset":768,"target":34962},{"buffer":0,"byteLength":4584,"byteOffset":5352,"target":34962},{"buffer":0,"byteLength":3056,"byteOffset":9936,"target":34962}],"buffers":[{"byteLength":12992,"uri":"tree-spruce-branch-a.bin"}],"materials":[{"alphaMode":"OPAQUE","doubleSided":false,"extras":{"fromFBX":{"isTruePBR":false,"shadingModel":"Phong"}},"name":"Universal Shader V4","pbrMetallicRoughness":{"baseColorFactor":[0.106610722839832,0.0447827018797398,0.0133064528927207,1],"metallicFactor":0.400000005960464,"roughnessFactor":0.229415729641914}}],"meshes":[{"name":"tree-spruce-branch-a","primitives":[{"attributes":{"NORMAL":2,"POSITION":1,"TEXCOORD_0":3},"indices":0,"material":0,"mode":4}]}],"nodes":[{"mesh":0,"name":"tree-spruce-branch-a","rotation":[0,0,0,1],"scale":[1,1,1],"translation":[0,0,0]}],"samplers":[{}],"scene":0,"scenes":[{"name":"Root Scene","nodes":[0]}]}