{"accessors":[{"bufferView":0,"byteOffset":0,"componentType":5123,"count":606,"type":"SCALAR"},{"bufferView":1,"byteOffset":0,"componentType":5126,"count":554,"max":[0.0257336124777794,0.00595498504117131,0.00692712515592575],"min":[-0.01992871984839,-0.00049249146832,-0.00883947126567],"type":"VEC3"},{"bufferView":2,"byteOffset":0,"componentType":5126,"count":554,"type":"VEC3"},{"bufferView":3,"byteOffset":0,"componentType":5126,"count":554,"type":"VEC2"}],"asset":{"generator":"FBX2glTF v0.13.1","version":"2.0"},"bufferViews":[{"buffer":0,"byteLength":1212,"byteOffset":0,"target":34963},{"buffer":0,"byteLength":6648,"byteOffset":1212,"target":34962},{"buffer":0,"byteLength":6648,"byteOffset":7860,"target":34962},{"buffer":0,"byteLength":4432,"byteOffset":14508,"target":34962}],"buffers":[{"byteLength":18940,"uri":"tree-oak-branch-a.bin"}],"materials":[{"alphaMode":"OPAQUE","doubleSided":false,"extras":{"fromFBX":{"isTruePBR":false,"shadingModel":"Phong"}},"name":"Universal Shader V4","pbrMetallicRoughness":{"baseColorFactor":[0.106610722839832,0.0447827018797398,0.0133064528927207,1],"metallicFactor":0.400000005960464,"roughnessFactor":0.229415729641914}}],"meshes":[{"name":"tree-oak-branch-a","primitives":[{"attributes":{"NORMAL":2,"POSITION":1,"TEXCOORD_0":3},"indices":0,"material":0,"mode":4}]}],"nodes":[{"mesh":0,"name":"tree-oak-branch-a","rotation":[0,0,0,1],"scale":[1,1,1],"translation":[0,0,0]}],"samplers":[{}],"scene":0,"scenes":[{"name":"Root Scene","nodes":[0]}]}