{"accessors":[{"bufferView":0,"byteOffset":0,"componentType":5123,"count":3675,"type":"SCALAR"},{"bufferView":1,"byteOffset":0,"componentType":5126,"count":3635,"max":[0.0106212422251701,0.0975546911358833,0.0190550684928894],"min":[-0.01513559184968,-0.00646448601037,-0.01431088615209],"type":"VEC3"},{"bufferView":2,"byteOffset":0,"componentType":5126,"count":3635,"type":"VEC3"},{"bufferView":3,"byteOffset":0,"componentType":5126,"count":3635,"type":"VEC2"},{"bufferView":4,"byteOffset":0,"componentType":5123,"count":5397,"type":"SCALAR"},{"bufferView":5,"byteOffset":0,"componentType":5126,"count":5377,"max":[0.017421143129468,0.106295764446259,0.0226078052073717],"min":[-0.02040238492191,0.0380023643374443,-0.01808529533446],"type":"VEC3"},{"bufferView":6,"byteOffset":0,"componentType":5126,"count":5377,"type":"VEC3"},{"bufferView":7,"byteOffset":0,"componentType":5126,"count":5377,"type":"VEC2"}],"asset":{"generator":"FBX2glTF v0.13.1","version":"2.0"},"bufferViews":[{"buffer":0,"byteLength":7350,"byteOffset":0,"target":34963},{"buffer":0,"byteLength":43620,"byteOffset":7352,"target":34962},{"buffer":0,"byteLength":43620,"byteOffset":50972,"target":34962},{"buffer":0,"byteLength":29080,"byteOffset":94592,"target":34962},{"buffer":0,"byteLength":10794,"byteOffset":123672,"target":34963},{"buffer":0,"byteLength":64524,"byteOffset":134468,"target":34962},{"buffer":0,"byteLength":64524,"byteOffset":198992,"target":34962},{"buffer":0,"byteLength":43016,"byteOffset":263516,"target":34962}],"buffers":[{"byteLength":306532,"uri":"tree-sequoia-young-a.bin"}],"materials":[{"alphaMode":"OPAQUE","doubleSided":false,"extras":{"fromFBX":{"isTruePBR":false,"shadingModel":"Phong"}},"name":"Universal Shader V10 - A","pbrMetallicRoughness":{"baseColorFactor":[0.800000011920929,0.800000011920929,0.800000011920929,1],"metallicFactor":0.400000005960464,"roughnessFactor":0.229415729641914}},{"alphaMode":"OPAQUE","doubleSided":false,"extras":{"fromFBX":{"isTruePBR":false,"shadingModel":"Phong"}},"name":"Universal Foliage V1 - C","pbrMetallicRoughness":{"baseColorFactor":[0.0468500107526779,0.0668631121516228,0.00949752610176802,1],"metallicFactor":0.400000005960464,"roughnessFactor":0.229415729641914}}],"meshes":[{"name":"tree-sequoia-young-a","primitives":[{"attributes":{"NORMAL":2,"POSITION":1,"TEXCOORD_0":3},"indices":0,"material":0,"mode":4},{"attributes":{"NORMAL":6,"POSITION":5,"TEXCOORD_0":7},"indices":4,"material":1,"mode":4}]}],"nodes":[{"mesh":0,"name":"tree-sequoia-young-a","rotation":[0,0,0,1],"scale":[1,1,1],"translation":[0,0,0]}],"samplers":[{}],"scene":0,"scenes":[{"name":"Root Scene","nodes":[0]}]}