{"accessors":[{"bufferView":0,"byteOffset":0,"componentType":5123,"count":4767,"type":"SCALAR"},{"bufferView":1,"byteOffset":0,"componentType":5126,"count":4745,"max":[0.0423247702419758,0.111967466771603,0.026020972058177],"min":[-0.0212413854897,-0.00346803688444,-0.0276652853936],"type":"VEC3"},{"bufferView":2,"byteOffset":0,"componentType":5126,"count":4745,"type":"VEC3"},{"bufferView":3,"byteOffset":0,"componentType":5126,"count":4745,"type":"VEC2"},{"bufferView":4,"byteOffset":0,"componentType":5123,"count":7218,"type":"SCALAR"},{"bufferView":5,"byteOffset":0,"componentType":5126,"count":6838,"max":[0.0517261885106564,0.115118399262428,0.02911058627069],"min":[-0.02391548268497,0.0451585613191128,-0.03212627395988],"type":"VEC3"},{"bufferView":6,"byteOffset":0,"componentType":5126,"count":6838,"type":"VEC3"},{"bufferView":7,"byteOffset":0,"componentType":5126,"count":6838,"type":"VEC2"}],"asset":{"generator":"FBX2glTF v0.13.1","version":"2.0"},"bufferViews":[{"buffer":0,"byteLength":9534,"byteOffset":0,"target":34963},{"buffer":0,"byteLength":56940,"byteOffset":9536,"target":34962},{"buffer":0,"byteLength":56940,"byteOffset":66476,"target":34962},{"buffer":0,"byteLength":37960,"byteOffset":123416,"target":34962},{"buffer":0,"byteLength":14436,"byteOffset":161376,"target":34963},{"buffer":0,"byteLength":82056,"byteOffset":175812,"target":34962},{"buffer":0,"byteLength":82056,"byteOffset":257868,"target":34962},{"buffer":0,"byteLength":54704,"byteOffset":339924,"target":34962}],"buffers":[{"byteLength":394628,"uri":"tree-pine-mature-a.bin"}],"materials":[{"alphaMode":"OPAQUE","doubleSided":false,"extras":{"fromFBX":{"isTruePBR":false,"shadingModel":"Phong"}},"name":"Universal Shader V4","pbrMetallicRoughness":{"baseColorFactor":[0.106610722839832,0.0447827018797398,0.0133064528927207,1],"metallicFactor":0.400000005960464,"roughnessFactor":0.229415729641914}},{"alphaMode":"OPAQUE","doubleSided":false,"extras":{"fromFBX":{"isTruePBR":false,"shadingModel":"Phong"}},"name":"Universal Foliage V1 - C","pbrMetallicRoughness":{"baseColorFactor":[0.0468500107526779,0.0668631121516228,0.00949752610176802,1],"metallicFactor":0.400000005960464,"roughnessFactor":0.229415729641914}}],"meshes":[{"name":"tree-pine-mature-a","primitives":[{"attributes":{"NORMAL":2,"POSITION":1,"TEXCOORD_0":3},"indices":0,"material":0,"mode":4},{"attributes":{"NORMAL":6,"POSITION":5,"TEXCOORD_0":7},"indices":4,"material":1,"mode":4}]}],"nodes":[{"mesh":0,"name":"tree-pine-mature-a","rotation":[0,0,0,1],"scale":[1,1,1],"translation":[0,0,0]}],"samplers":[{}],"scene":0,"scenes":[{"name":"Root Scene","nodes":[0]}]}