{"accessors":[{"bufferView":0,"byteOffset":0,"componentType":5123,"count":3627,"type":"SCALAR"},{"bufferView":1,"byteOffset":0,"componentType":5126,"count":3627,"max":[0.0210152473300695,0.121999673545361,0.00908730644732714],"min":[-0.01775669492781,-0.00421557435766,-0.01476108748466],"type":"VEC3"},{"bufferView":2,"byteOffset":0,"componentType":5126,"count":3627,"type":"VEC3"},{"bufferView":3,"byteOffset":0,"componentType":5126,"count":3627,"type":"VEC2"},{"bufferView":4,"byteOffset":0,"componentType":5123,"count":5409,"type":"SCALAR"},{"bufferView":5,"byteOffset":0,"componentType":5126,"count":5409,"max":[0.0247119087725878,0.126953780651093,0.0204104371368885],"min":[-0.02425369992852,0.0541929081082344,-0.02030715718865],"type":"VEC3"},{"bufferView":6,"byteOffset":0,"componentType":5126,"count":5409,"type":"VEC3"},{"bufferView":7,"byteOffset":0,"componentType":5126,"count":5409,"type":"VEC2"}],"asset":{"generator":"FBX2glTF v0.13.1","version":"2.0"},"bufferViews":[{"buffer":0,"byteLength":7254,"byteOffset":0,"target":34963},{"buffer":0,"byteLength":43524,"byteOffset":7256,"target":34962},{"buffer":0,"byteLength":43524,"byteOffset":50780,"target":34962},{"buffer":0,"byteLength":29016,"byteOffset":94304,"target":34962},{"buffer":0,"byteLength":10818,"byteOffset":123320,"target":34963},{"buffer":0,"byteLength":64908,"byteOffset":134140,"target":34962},{"buffer":0,"byteLength":64908,"byteOffset":199048,"target":34962},{"buffer":0,"byteLength":43272,"byteOffset":263956,"target":34962}],"buffers":[{"byteLength":307228,"uri":"tree-spruce-mature-a.bin"}],"materials":[{"alphaMode":"OPAQUE","doubleSided":false,"extras":{"fromFBX":{"isTruePBR":false,"shadingModel":"Phong"}},"name":"Universal Shader V4","pbrMetallicRoughness":{"baseColorFactor":[0.106610722839832,0.0447827018797398,0.0133064528927207,1],"metallicFactor":0.400000005960464,"roughnessFactor":0.229415729641914}},{"alphaMode":"OPAQUE","doubleSided":false,"extras":{"fromFBX":{"isTruePBR":false,"shadingModel":"Phong"}},"name":"Universal Foliage V1 - C","pbrMetallicRoughness":{"baseColorFactor":[0.0468500107526779,0.0668631121516228,0.00949752610176802,1],"metallicFactor":0.400000005960464,"roughnessFactor":0.229415729641914}}],"meshes":[{"name":"tree-spruce-mature-a","primitives":[{"attributes":{"NORMAL":2,"POSITION":1,"TEXCOORD_0":3},"indices":0,"material":0,"mode":4},{"attributes":{"NORMAL":6,"POSITION":5,"TEXCOORD_0":7},"indices":4,"material":1,"mode":4}]}],"nodes":[{"mesh":0,"name":"tree-spruce-mature-a","rotation":[0,0,0,1],"scale":[1,1,1],"translation":[0,0,0]}],"samplers":[{}],"scene":0,"scenes":[{"name":"Root Scene","nodes":[0]}]}