{"accessors":[{"bufferView":0,"byteOffset":0,"componentType":5123,"count":855,"type":"SCALAR"},{"bufferView":1,"byteOffset":0,"componentType":5126,"count":801,"max":[0.0430946834385395,0.0078773545101285,0.00614440115168691],"min":[-0.04515188187361,-0.00124729587696,-0.00512612983584],"type":"VEC3"},{"bufferView":2,"byteOffset":0,"componentType":5126,"count":801,"type":"VEC3"},{"bufferView":3,"byteOffset":0,"componentType":5126,"count":801,"type":"VEC2"}],"asset":{"generator":"FBX2glTF v0.13.1","version":"2.0"},"bufferViews":[{"buffer":0,"byteLength":1710,"byteOffset":0,"target":34963},{"buffer":0,"byteLength":9612,"byteOffset":1712,"target":34962},{"buffer":0,"byteLength":9612,"byteOffset":11324,"target":34962},{"buffer":0,"byteLength":6408,"byteOffset":20936,"target":34962}],"buffers":[{"byteLength":27344,"uri":"tree-beech-fallen-a.bin"}],"materials":[{"alphaMode":"OPAQUE","doubleSided":false,"extras":{"fromFBX":{"isTruePBR":false,"shadingModel":"Phong"}},"name":"Universal Shader V4","pbrMetallicRoughness":{"baseColorFactor":[0.106610722839832,0.0447827018797398,0.0133064528927207,1],"metallicFactor":0.400000005960464,"roughnessFactor":0.229415729641914}}],"meshes":[{"name":"tree-beech-fallen-a","primitives":[{"attributes":{"NORMAL":2,"POSITION":1,"TEXCOORD_0":3},"indices":0,"material":0,"mode":4}]}],"nodes":[{"mesh":0,"name":"tree-beech-fallen-a","rotation":[0,0,0,1],"scale":[1,1,1],"translation":[0,0,0]}],"samplers":[{}],"scene":0,"scenes":[{"name":"Root Scene","nodes":[0]}]}