{"accessors":[{"bufferView":0,"byteOffset":0,"componentType":5123,"count":5031,"type":"SCALAR"},{"bufferView":1,"byteOffset":0,"componentType":5126,"count":4995,"max":[0.0423247702419758,0.111967466771603,0.026020972058177],"min":[-0.0212413854897,-0.00324664800428,-0.0276652853936],"type":"VEC3"},{"bufferView":2,"byteOffset":0,"componentType":5126,"count":4995,"type":"VEC3"},{"bufferView":3,"byteOffset":0,"componentType":5126,"count":4995,"type":"VEC2"}],"asset":{"generator":"FBX2glTF v0.13.1","version":"2.0"},"bufferViews":[{"buffer":0,"byteLength":10062,"byteOffset":0,"target":34963},{"buffer":0,"byteLength":59940,"byteOffset":10064,"target":34962},{"buffer":0,"byteLength":59940,"byteOffset":70004,"target":34962},{"buffer":0,"byteLength":39960,"byteOffset":129944,"target":34962}],"buffers":[{"byteLength":169904,"uri":"tree-pine-dead-a.bin"}],"materials":[{"alphaMode":"OPAQUE","doubleSided":false,"extras":{"fromFBX":{"isTruePBR":false,"shadingModel":"Phong"}},"name":"Universal Shader V10 - A","pbrMetallicRoughness":{"baseColorFactor":[0.800000011920929,0.800000011920929,0.800000011920929,1],"metallicFactor":0.400000005960464,"roughnessFactor":0.229415729641914}}],"meshes":[{"name":"tree-pine-dead-a","primitives":[{"attributes":{"NORMAL":2,"POSITION":1,"TEXCOORD_0":3},"indices":0,"material":0,"mode":4}]}],"nodes":[{"mesh":0,"name":"tree-pine-dead-a","rotation":[0,0,0,1],"scale":[1,1,1],"translation":[0,0,0]}],"samplers":[{}],"scene":0,"scenes":[{"name":"Root Scene","nodes":[0]}]}