{"accessors":[{"bufferView":0,"byteOffset":0,"componentType":5123,"count":459,"type":"SCALAR"},{"bufferView":1,"byteOffset":0,"componentType":5126,"count":319,"max":[0.00162309245206416,0.0141396969556808,0.00097464467398822],"min":[-0.00189013266936,-0.00250858510844,-0.000575848273],"type":"VEC3"},{"bufferView":2,"byteOffset":0,"componentType":5126,"count":319,"type":"VEC3"},{"bufferView":3,"byteOffset":0,"componentType":5126,"count":319,"type":"VEC4"},{"bufferView":4,"byteOffset":0,"componentType":5126,"count":319,"type":"VEC2"},{"bufferView":5,"byteOffset":0,"componentType":5123,"count":402,"type":"SCALAR"},{"bufferView":6,"byteOffset":0,"componentType":5126,"count":402,"max":[0.00337232276797295,0.0173925589770079,0.00244695041328669],"min":[-0.0033196285367,0.0066309105604887,-0.00275491108187],"type":"VEC3"},{"bufferView":7,"byteOffset":0,"componentType":5126,"count":402,"type":"VEC3"},{"bufferView":8,"byteOffset":0,"componentType":5126,"count":402,"type":"VEC4"},{"bufferView":9,"byteOffset":0,"componentType":5126,"count":402,"type":"VEC2"}],"asset":{"generator":"FBX2glTF v0.13.1","version":"2.0"},"bufferViews":[{"buffer":0,"byteLength":918,"byteOffset":0,"target":34963},{"buffer":0,"byteLength":3828,"byteOffset":920,"target":34962},{"buffer":0,"byteLength":3828,"byteOffset":4748,"target":34962},{"buffer":0,"byteLength":5104,"byteOffset":8576,"target":34962},{"buffer":0,"byteLength":2552,"byteOffset":13680,"target":34962},{"buffer":0,"byteLength":804,"byteOffset":16232,"target":34963},{"buffer":0,"byteLength":4824,"byteOffset":17036,"target":34962},{"buffer":0,"byteLength":4824,"byteOffset":21860,"target":34962},{"buffer":0,"byteLength":6432,"byteOffset":26684,"target":34962},{"buffer":0,"byteLength":3216,"byteOffset":33116,"target":34962}],"buffers":[{"byteLength":36332,"uri":"tree-birch-sapling-a.bin"}],"materials":[{"alphaMode":"OPAQUE","doubleSided":false,"extras":{"fromFBX":{"isTruePBR":false,"shadingModel":"Phong"}},"name":"Universal Shader V10 - A","pbrMetallicRoughness":{"baseColorFactor":[0.0406777523458004,0.25547331571579,0.240420505404472,1],"metallicFactor":0.400000005960464,"roughnessFactor":0.229415729641914}},{"alphaMode":"OPAQUE","doubleSided":false,"extras":{"fromFBX":{"isTruePBR":false,"shadingModel":"Phong"}},"name":"Universal Foliage V1 - A","pbrMetallicRoughness":{"baseColorFactor":[0.230576917529106,0.438745319843292,0.0388147756457329,1],"metallicFactor":0.400000005960464,"roughnessFactor":0.229415729641914}}],"meshes":[{"name":"tree-birch-sapling-a","primitives":[{"attributes":{"COLOR_0":3,"NORMAL":2,"POSITION":1,"TEXCOORD_0":4},"indices":0,"material":0,"mode":4},{"attributes":{"COLOR_0":8,"NORMAL":7,"POSITION":6,"TEXCOORD_0":9},"indices":5,"material":1,"mode":4}]}],"nodes":[{"mesh":0,"name":"tree-birch-sapling-a","rotation":[0,0,0,1],"scale":[1,1,1],"translation":[0,0,0]}],"samplers":[{}],"scene":0,"scenes":[{"name":"Root Scene","nodes":[0]}]}