{"accessors":[{"bufferView":0,"byteOffset":0,"componentType":5123,"count":414,"type":"SCALAR"},{"bufferView":1,"byteOffset":0,"componentType":5126,"count":414,"max":[0.0111189745366573,0.00101419864222407,0.00062049337429925],"min":[-0.01045957766473,-0.00009410721395,-0.00096721929731],"type":"VEC3"},{"bufferView":2,"byteOffset":0,"componentType":5126,"count":414,"type":"VEC3"},{"bufferView":3,"byteOffset":0,"componentType":5126,"count":414,"type":"VEC2"}],"asset":{"generator":"FBX2glTF v0.13.1","version":"2.0"},"bufferViews":[{"buffer":0,"byteLength":828,"byteOffset":0,"target":34963},{"buffer":0,"byteLength":4968,"byteOffset":828,"target":34962},{"buffer":0,"byteLength":4968,"byteOffset":5796,"target":34962},{"buffer":0,"byteLength":3312,"byteOffset":10764,"target":34962}],"buffers":[{"byteLength":14076,"uri":"tree-spruce-branch-b.bin"}],"materials":[{"alphaMode":"OPAQUE","doubleSided":false,"extras":{"fromFBX":{"isTruePBR":false,"shadingModel":"Phong"}},"name":"Universal Shader V4","pbrMetallicRoughness":{"baseColorFactor":[0.106610722839832,0.0447827018797398,0.0133064528927207,1],"metallicFactor":0.400000005960464,"roughnessFactor":0.229415729641914}}],"meshes":[{"name":"tree-spruce-branch-b","primitives":[{"attributes":{"NORMAL":2,"POSITION":1,"TEXCOORD_0":3},"indices":0,"material":0,"mode":4}]}],"nodes":[{"mesh":0,"name":"tree-spruce-branch-b","rotation":[0,0,0,1],"scale":[1,1,1],"translation":[0,0,0]}],"samplers":[{}],"scene":0,"scenes":[{"name":"Root Scene","nodes":[0]}]}