{"accessors":[{"bufferView":0,"byteOffset":0,"componentType":5123,"count":120,"type":"SCALAR"},{"bufferView":1,"byteOffset":0,"componentType":5126,"count":82,"max":[0.00091144460020586,0.0111093493178487,0.00061816611560061],"min":[-0.00091144460021,-0.00252292468213,-0.00090300373267],"type":"VEC3"},{"bufferView":2,"byteOffset":0,"componentType":5126,"count":82,"type":"VEC3"},{"bufferView":3,"byteOffset":0,"componentType":5126,"count":82,"type":"VEC2"},{"bufferView":4,"byteOffset":0,"componentType":5123,"count":1026,"type":"SCALAR"},{"bufferView":5,"byteOffset":0,"componentType":5126,"count":684,"max":[0.00496839778497815,0.0126711642369628,0.00339915533550084],"min":[-0.0053240484558,0.00152867089491338,-0.00464207073674],"type":"VEC3"},{"bufferView":6,"byteOffset":0,"componentType":5126,"count":684,"type":"VEC3"},{"bufferView":7,"byteOffset":0,"componentType":5126,"count":684,"type":"VEC2"}],"asset":{"generator":"FBX2glTF v0.13.1","version":"2.0"},"bufferViews":[{"buffer":0,"byteLength":240,"byteOffset":0,"target":34963},{"buffer":0,"byteLength":984,"byteOffset":240,"target":34962},{"buffer":0,"byteLength":984,"byteOffset":1224,"target":34962},{"buffer":0,"byteLength":656,"byteOffset":2208,"target":34962},{"buffer":0,"byteLength":2052,"byteOffset":2864,"target":34963},{"buffer":0,"byteLength":8208,"byteOffset":4916,"target":34962},{"buffer":0,"byteLength":8208,"byteOffset":13124,"target":34962},{"buffer":0,"byteLength":5472,"byteOffset":21332,"target":34962}],"buffers":[{"byteLength":26804,"uri":"tree-pine-sapling-a.bin"}],"materials":[{"alphaMode":"OPAQUE","doubleSided":false,"extras":{"fromFBX":{"isTruePBR":false,"shadingModel":"Phong"}},"name":"Universal Shader V10 - A","pbrMetallicRoughness":{"baseColorFactor":[0.800000011920929,0.800000011920929,0.800000011920929,1],"metallicFactor":0.400000005960464,"roughnessFactor":0.229415729641914}},{"alphaMode":"OPAQUE","doubleSided":false,"extras":{"fromFBX":{"isTruePBR":false,"shadingModel":"Phong"}},"name":"Universal Foliage V1 - C","pbrMetallicRoughness":{"baseColorFactor":[0.0468500107526779,0.0668631121516228,0.00949752610176802,1],"metallicFactor":0.400000005960464,"roughnessFactor":0.229415729641914}}],"meshes":[{"name":"tree-pine-sapling-a","primitives":[{"attributes":{"NORMAL":2,"POSITION":1,"TEXCOORD_0":3},"indices":0,"material":0,"mode":4},{"attributes":{"NORMAL":6,"POSITION":5,"TEXCOORD_0":7},"indices":4,"material":1,"mode":4}]}],"nodes":[{"mesh":0,"name":"tree-pine-sapling-a","rotation":[0,0,0,1],"scale":[1,1,1],"translation":[0,0,0]}],"samplers":[{}],"scene":0,"scenes":[{"name":"Root Scene","nodes":[0]}]}