{"accessors":[{"bufferView":0,"byteOffset":0,"componentType":5123,"count":564,"type":"SCALAR"},{"bufferView":1,"byteOffset":0,"componentType":5126,"count":396,"max":[0.00368941389024258,0.0167411305010319,0.00157370150554925],"min":[-0.0034036624711,-0.00256343209185,-0.00173269968946],"type":"VEC3"},{"bufferView":2,"byteOffset":0,"componentType":5126,"count":396,"type":"VEC3"},{"bufferView":3,"byteOffset":0,"componentType":5126,"count":396,"type":"VEC2"},{"bufferView":4,"byteOffset":0,"componentType":5123,"count":1488,"type":"SCALAR"},{"bufferView":5,"byteOffset":0,"componentType":5126,"count":1488,"max":[0.0059173465706408,0.0206530969589949,0.00336127076297998],"min":[-0.00525805680081,0.00882860459387302,-0.00463885767385],"type":"VEC3"},{"bufferView":6,"byteOffset":0,"componentType":5126,"count":1488,"type":"VEC3"},{"bufferView":7,"byteOffset":0,"componentType":5126,"count":1488,"type":"VEC2"}],"asset":{"generator":"FBX2glTF v0.13.1","version":"2.0"},"bufferViews":[{"buffer":0,"byteLength":1128,"byteOffset":0,"target":34963},{"buffer":0,"byteLength":4752,"byteOffset":1128,"target":34962},{"buffer":0,"byteLength":4752,"byteOffset":5880,"target":34962},{"buffer":0,"byteLength":3168,"byteOffset":10632,"target":34962},{"buffer":0,"byteLength":2976,"byteOffset":13800,"target":34963},{"buffer":0,"byteLength":17856,"byteOffset":16776,"target":34962},{"buffer":0,"byteLength":17856,"byteOffset":34632,"target":34962},{"buffer":0,"byteLength":11904,"byteOffset":52488,"target":34962}],"buffers":[{"byteLength":64392,"uri":"tree-beech-sapling-a.bin"}],"materials":[{"alphaMode":"OPAQUE","doubleSided":false,"extras":{"fromFBX":{"isTruePBR":false,"shadingModel":"Phong"}},"name":"Universal Shader V10 - A","pbrMetallicRoughness":{"baseColorFactor":[0.800000011920929,0.800000011920929,0.800000011920929,1],"metallicFactor":0.400000005960464,"roughnessFactor":0.229415729641914}},{"alphaMode":"OPAQUE","doubleSided":false,"extras":{"fromFBX":{"isTruePBR":false,"shadingModel":"Phong"}},"name":"Universal Foliage V1 - B","pbrMetallicRoughness":{"baseColorFactor":[0.112882412970066,0.226711452007294,0.0520631447434425,1],"metallicFactor":0.400000005960464,"roughnessFactor":0.229415729641914}}],"meshes":[{"name":"tree-beech-sapling-a","primitives":[{"attributes":{"NORMAL":2,"POSITION":1,"TEXCOORD_0":3},"indices":0,"material":0,"mode":4},{"attributes":{"NORMAL":6,"POSITION":5,"TEXCOORD_0":7},"indices":4,"material":1,"mode":4}]}],"nodes":[{"mesh":0,"name":"tree-beech-sapling-a","rotation":[0,0,0,1],"scale":[1,1,1],"translation":[0,0,0]}],"samplers":[{}],"scene":0,"scenes":[{"name":"Root Scene","nodes":[0]}]}