{"accessors":[{"bufferView":0,"byteOffset":0,"componentType":5123,"count":1383,"type":"SCALAR"},{"bufferView":1,"byteOffset":0,"componentType":5126,"count":1349,"max":[0.0416541770100594,0.00496510323137045,0.0136198233813047],"min":[-0.02949824929237,-0.00043905596249,-0.01063676178455],"type":"VEC3"},{"bufferView":2,"byteOffset":0,"componentType":5126,"count":1349,"type":"VEC3"},{"bufferView":3,"byteOffset":0,"componentType":5126,"count":1349,"type":"VEC2"}],"asset":{"generator":"FBX2glTF v0.13.1","version":"2.0"},"bufferViews":[{"buffer":0,"byteLength":2766,"byteOffset":0,"target":34963},{"buffer":0,"byteLength":16188,"byteOffset":2768,"target":34962},{"buffer":0,"byteLength":16188,"byteOffset":18956,"target":34962},{"buffer":0,"byteLength":10792,"byteOffset":35144,"target":34962}],"buffers":[{"byteLength":45936,"uri":"tree-spruce-fallen-a.bin"}],"materials":[{"alphaMode":"OPAQUE","doubleSided":false,"extras":{"fromFBX":{"isTruePBR":false,"shadingModel":"Phong"}},"name":"Universal Shader V4","pbrMetallicRoughness":{"baseColorFactor":[0.106610722839832,0.0447827018797398,0.0133064528927207,1],"metallicFactor":0.400000005960464,"roughnessFactor":0.229415729641914}}],"meshes":[{"name":"tree-spruce-fallen-a","primitives":[{"attributes":{"NORMAL":2,"POSITION":1,"TEXCOORD_0":3},"indices":0,"material":0,"mode":4}]}],"nodes":[{"mesh":0,"name":"tree-spruce-fallen-a","rotation":[0,0,0,1],"scale":[1,1,1],"translation":[0,0,0]}],"samplers":[{}],"scene":0,"scenes":[{"name":"Root Scene","nodes":[0]}]}