{"accessors":[{"bufferView":0,"byteOffset":0,"componentType":5123,"count":2394,"type":"SCALAR"},{"bufferView":1,"byteOffset":0,"componentType":5126,"count":1984,"max":[0.0158754549920559,0.0102896373718977,0.00761204166337848],"min":[-0.01460598036647,-0.00091169675579,-0.00565097667277],"type":"VEC3"},{"bufferView":2,"byteOffset":0,"componentType":5126,"count":1984,"type":"VEC3"},{"bufferView":3,"byteOffset":0,"componentType":5126,"count":1984,"type":"VEC2"}],"asset":{"generator":"FBX2glTF v0.13.1","version":"2.0"},"bufferViews":[{"buffer":0,"byteLength":4788,"byteOffset":0,"target":34963},{"buffer":0,"byteLength":23808,"byteOffset":4788,"target":34962},{"buffer":0,"byteLength":23808,"byteOffset":28596,"target":34962},{"buffer":0,"byteLength":15872,"byteOffset":52404,"target":34962}],"buffers":[{"byteLength":68276,"uri":"tree-oak-log-pile-a.bin"}],"materials":[{"alphaMode":"OPAQUE","doubleSided":false,"extras":{"fromFBX":{"isTruePBR":false,"shadingModel":"Phong"}},"name":"Universal Shader V4","pbrMetallicRoughness":{"baseColorFactor":[0.106610722839832,0.0447827018797398,0.0133064528927207,1],"metallicFactor":0.400000005960464,"roughnessFactor":0.229415729641914}}],"meshes":[{"name":"tree-oak-log-pile-a","primitives":[{"attributes":{"NORMAL":2,"POSITION":1,"TEXCOORD_0":3},"indices":0,"material":0,"mode":4}]}],"nodes":[{"mesh":0,"name":"tree-oak-log-pile-a","rotation":[0,0,0,1],"scale":[1,1,1],"translation":[0,0,0]}],"samplers":[{}],"scene":0,"scenes":[{"name":"Root Scene","nodes":[0]}]}