{"accessors":[{"bufferView":0,"byteOffset":0,"componentType":5123,"count":852,"type":"SCALAR"},{"bufferView":1,"byteOffset":0,"componentType":5126,"count":774,"max":[0.0268208384513855,0.00226252875290811,0.00174499943386763],"min":[-0.02810513228178,-0.00025343254674,-0.00459391018376],"type":"VEC3"},{"bufferView":2,"byteOffset":0,"componentType":5126,"count":774,"type":"VEC3"},{"bufferView":3,"byteOffset":0,"componentType":5126,"count":774,"type":"VEC4"},{"bufferView":4,"byteOffset":0,"componentType":5126,"count":774,"type":"VEC2"}],"asset":{"generator":"FBX2glTF v0.13.1","version":"2.0"},"bufferViews":[{"buffer":0,"byteLength":1704,"byteOffset":0,"target":34963},{"buffer":0,"byteLength":9288,"byteOffset":1704,"target":34962},{"buffer":0,"byteLength":9288,"byteOffset":10992,"target":34962},{"buffer":0,"byteLength":12384,"byteOffset":20280,"target":34962},{"buffer":0,"byteLength":6192,"byteOffset":32664,"target":34962}],"buffers":[{"byteLength":38856,"uri":"tree-birch-fallen-a.bin"}],"materials":[{"alphaMode":"OPAQUE","doubleSided":false,"extras":{"fromFBX":{"isTruePBR":false,"shadingModel":"Phong"}},"name":"Universal Shader V4","pbrMetallicRoughness":{"baseColorFactor":[0.106610722839832,0.0447827018797398,0.0133064528927207,1],"metallicFactor":0.400000005960464,"roughnessFactor":0.229415729641914}}],"meshes":[{"name":"tree-birch-fallen-a","primitives":[{"attributes":{"COLOR_0":3,"NORMAL":2,"POSITION":1,"TEXCOORD_0":4},"indices":0,"material":0,"mode":4}]}],"nodes":[{"mesh":0,"name":"tree-birch-fallen-a","rotation":[0,0,0,1],"scale":[1,1,1],"translation":[0,0,0]}],"samplers":[{}],"scene":0,"scenes":[{"name":"Root Scene","nodes":[0]}]}