{"accessors":[{"bufferView":0,"byteOffset":0,"componentType":5123,"count":108,"type":"SCALAR"},{"bufferView":1,"byteOffset":0,"componentType":5126,"count":108,"max":[0.00040657399222254,0.0105996308848262,0.00054880138486623],"min":[-0.00092721363762,-0.0023901546374,-0.00076930795331],"type":"VEC3"},{"bufferView":2,"byteOffset":0,"componentType":5126,"count":108,"type":"VEC3"},{"bufferView":3,"byteOffset":0,"componentType":5126,"count":108,"type":"VEC2"},{"bufferView":4,"byteOffset":0,"componentType":5123,"count":1815,"type":"SCALAR"},{"bufferView":5,"byteOffset":0,"componentType":5126,"count":1815,"max":[0.00370657909661531,0.0127965342253447,0.0041010151617229],"min":[-0.00375209050253,0.00086470507085323,-0.0031823925674],"type":"VEC3"},{"bufferView":6,"byteOffset":0,"componentType":5126,"count":1815,"type":"VEC3"},{"bufferView":7,"byteOffset":0,"componentType":5126,"count":1815,"type":"VEC2"}],"asset":{"generator":"FBX2glTF v0.13.1","version":"2.0"},"bufferViews":[{"buffer":0,"byteLength":216,"byteOffset":0,"target":34963},{"buffer":0,"byteLength":1296,"byteOffset":216,"target":34962},{"buffer":0,"byteLength":1296,"byteOffset":1512,"target":34962},{"buffer":0,"byteLength":864,"byteOffset":2808,"target":34962},{"buffer":0,"byteLength":3630,"byteOffset":3672,"target":34963},{"buffer":0,"byteLength":21780,"byteOffset":7304,"target":34962},{"buffer":0,"byteLength":21780,"byteOffset":29084,"target":34962},{"buffer":0,"byteLength":14520,"byteOffset":50864,"target":34962}],"buffers":[{"byteLength":65384,"uri":"tree-spruce-sapling-a.bin"}],"materials":[{"alphaMode":"OPAQUE","doubleSided":false,"extras":{"fromFBX":{"isTruePBR":false,"shadingModel":"Phong"}},"name":"Universal Shader V10 - A","pbrMetallicRoughness":{"baseColorFactor":[0.800000011920929,0.800000011920929,0.800000011920929,1],"metallicFactor":0.400000005960464,"roughnessFactor":0.229415729641914}},{"alphaMode":"OPAQUE","doubleSided":false,"extras":{"fromFBX":{"isTruePBR":false,"shadingModel":"Phong"}},"name":"Universal Foliage V1 - C","pbrMetallicRoughness":{"baseColorFactor":[0.0468500107526779,0.0668631121516228,0.00949752610176802,1],"metallicFactor":0.400000005960464,"roughnessFactor":0.229415729641914}}],"meshes":[{"name":"tree-spruce-sapling-a","primitives":[{"attributes":{"NORMAL":2,"POSITION":1,"TEXCOORD_0":3},"indices":0,"material":0,"mode":4},{"attributes":{"NORMAL":6,"POSITION":5,"TEXCOORD_0":7},"indices":4,"material":1,"mode":4}]}],"nodes":[{"mesh":0,"name":"tree-spruce-sapling-a","rotation":[0,0,0,1],"scale":[1,1,1],"translation":[0,0,0]}],"samplers":[{}],"scene":0,"scenes":[{"name":"Root Scene","nodes":[0]}]}