{"accessors":[{"bufferView":0,"byteOffset":0,"componentType":5123,"count":3339,"type":"SCALAR"},{"bufferView":1,"byteOffset":0,"componentType":5126,"count":3285,"max":[0.0210152473300695,0.121999673545361,0.0100011490285397],"min":[-0.01539759803563,-0.004065355286,-0.01027315668762],"type":"VEC3"},{"bufferView":2,"byteOffset":0,"componentType":5126,"count":3285,"type":"VEC3"},{"bufferView":3,"byteOffset":0,"componentType":5126,"count":3285,"type":"VEC2"}],"asset":{"generator":"FBX2glTF v0.13.1","version":"2.0"},"bufferViews":[{"buffer":0,"byteLength":6678,"byteOffset":0,"target":34963},{"buffer":0,"byteLength":39420,"byteOffset":6680,"target":34962},{"buffer":0,"byteLength":39420,"byteOffset":46100,"target":34962},{"buffer":0,"byteLength":26280,"byteOffset":85520,"target":34962}],"buffers":[{"byteLength":111800,"uri":"tree-spruce-dead-a.bin"}],"materials":[{"alphaMode":"OPAQUE","doubleSided":false,"extras":{"fromFBX":{"isTruePBR":false,"shadingModel":"Phong"}},"name":"Universal Shader V10 - A","pbrMetallicRoughness":{"baseColorFactor":[0.800000011920929,0.800000011920929,0.800000011920929,1],"metallicFactor":0.400000005960464,"roughnessFactor":0.229415729641914}}],"meshes":[{"name":"tree-spruce-dead-a","primitives":[{"attributes":{"NORMAL":2,"POSITION":1,"TEXCOORD_0":3},"indices":0,"material":0,"mode":4}]}],"nodes":[{"mesh":0,"name":"tree-spruce-dead-a","rotation":[0,0,0,1],"scale":[1,1,1],"translation":[0,0,0]}],"samplers":[{}],"scene":0,"scenes":[{"name":"Root Scene","nodes":[0]}]}