{"accessors":[{"bufferView":0,"byteOffset":0,"componentType":5123,"count":354,"type":"SCALAR"},{"bufferView":1,"byteOffset":0,"componentType":5126,"count":254,"max":[0.00343031925149262,0.00608278485015035,0.00374524109065533],"min":[-0.00324347405694,-0.00364262727089,-0.00369671196677],"type":"VEC3"},{"bufferView":2,"byteOffset":0,"componentType":5126,"count":254,"type":"VEC3"},{"bufferView":3,"byteOffset":0,"componentType":5126,"count":254,"type":"VEC2"},{"bufferView":4,"byteOffset":0,"componentType":5123,"count":888,"type":"SCALAR"},{"bufferView":5,"byteOffset":0,"componentType":5126,"count":886,"max":[0.0236522760242224,0.0262420270591974,0.0176537670195103],"min":[-0.02139970473945,0.00498233176767826,-0.02112938091159],"type":"VEC3"},{"bufferView":6,"byteOffset":0,"componentType":5126,"count":886,"type":"VEC3"},{"bufferView":7,"byteOffset":0,"componentType":5126,"count":886,"type":"VEC2"}],"asset":{"generator":"FBX2glTF v0.13.1","version":"2.0"},"bufferViews":[{"buffer":0,"byteLength":708,"byteOffset":0,"target":34963},{"buffer":0,"byteLength":3048,"byteOffset":708,"target":34962},{"buffer":0,"byteLength":3048,"byteOffset":3756,"target":34962},{"buffer":0,"byteLength":2032,"byteOffset":6804,"target":34962},{"buffer":0,"byteLength":1776,"byteOffset":8836,"target":34963},{"buffer":0,"byteLength":10632,"byteOffset":10612,"target":34962},{"buffer":0,"byteLength":10632,"byteOffset":21244,"target":34962},{"buffer":0,"byteLength":7088,"byteOffset":31876,"target":34962}],"buffers":[{"byteLength":38964,"uri":"tree-palm-mature-c.bin"}],"materials":[{"alphaMode":"OPAQUE","doubleSided":false,"extras":{"fromFBX":{"isTruePBR":false,"shadingModel":"Phong"}},"name":"Universal Shader V4","pbrMetallicRoughness":{"baseColorFactor":[0.106610722839832,0.0447827018797398,0.0133064528927207,1],"metallicFactor":0.400000005960464,"roughnessFactor":0.229415729641914}},{"alphaMode":"OPAQUE","doubleSided":false,"extras":{"fromFBX":{"isTruePBR":false,"shadingModel":"Phong"}},"name":"Universal Foliage V1 - A","pbrMetallicRoughness":{"baseColorFactor":[0.230576917529106,0.438745319843292,0.0388147756457329,1],"metallicFactor":0.400000005960464,"roughnessFactor":0.229415729641914}}],"meshes":[{"name":"tree-palm-mature-c","primitives":[{"attributes":{"NORMAL":2,"POSITION":1,"TEXCOORD_0":3},"indices":0,"material":0,"mode":4},{"attributes":{"NORMAL":6,"POSITION":5,"TEXCOORD_0":7},"indices":4,"material":1,"mode":4}]}],"nodes":[{"mesh":0,"name":"tree-palm-mature-c","rotation":[0,0,0,1],"scale":[1,1,1],"translation":[0,0,0]}],"samplers":[{}],"scene":0,"scenes":[{"name":"Root Scene","nodes":[0]}]}