{"accessors":[{"bufferView":0,"byteOffset":0,"componentType":5123,"count":594,"type":"SCALAR"},{"bufferView":1,"byteOffset":0,"componentType":5126,"count":594,"max":[0.00261013652198017,0.00750243291258812,0.00220841192640364],"min":[-0.00234110560268,-0.00383910699748,-0.00315401516855],"type":"VEC3"},{"bufferView":2,"byteOffset":0,"componentType":5126,"count":594,"type":"VEC3"},{"bufferView":3,"byteOffset":0,"componentType":5126,"count":594,"type":"VEC2"},{"bufferView":4,"byteOffset":0,"componentType":5123,"count":945,"type":"SCALAR"},{"bufferView":5,"byteOffset":0,"componentType":5126,"count":945,"max":[0.0116274319589138,0.0231420695781708,0.00903020147234201],"min":[-0.01336768455803,0.00587335741147399,-0.01126684155315],"type":"VEC3"},{"bufferView":6,"byteOffset":0,"componentType":5126,"count":945,"type":"VEC3"},{"bufferView":7,"byteOffset":0,"componentType":5126,"count":945,"type":"VEC2"}],"asset":{"generator":"FBX2glTF v0.13.1","version":"2.0"},"bufferViews":[{"buffer":0,"byteLength":1188,"byteOffset":0,"target":34963},{"buffer":0,"byteLength":7128,"byteOffset":1188,"target":34962},{"buffer":0,"byteLength":7128,"byteOffset":8316,"target":34962},{"buffer":0,"byteLength":4752,"byteOffset":15444,"target":34962},{"buffer":0,"byteLength":1890,"byteOffset":20196,"target":34963},{"buffer":0,"byteLength":11340,"byteOffset":22088,"target":34962},{"buffer":0,"byteLength":11340,"byteOffset":33428,"target":34962},{"buffer":0,"byteLength":7560,"byteOffset":44768,"target":34962}],"buffers":[{"byteLength":52328,"uri":"tree-palm-young-a.bin"}],"materials":[{"alphaMode":"OPAQUE","doubleSided":false,"extras":{"fromFBX":{"isTruePBR":false,"shadingModel":"Phong"}},"name":"Universal Shader V10 - A","pbrMetallicRoughness":{"baseColorFactor":[0.800000011920929,0.800000011920929,0.800000011920929,1],"metallicFactor":0.400000005960464,"roughnessFactor":0.229415729641914}},{"alphaMode":"OPAQUE","doubleSided":false,"extras":{"fromFBX":{"isTruePBR":false,"shadingModel":"Phong"}},"name":"Universal Foliage V1 - A","pbrMetallicRoughness":{"baseColorFactor":[0.230576917529106,0.438745319843292,0.0388147756457329,1],"metallicFactor":0.400000005960464,"roughnessFactor":0.229415729641914}}],"meshes":[{"name":"tree-palm-young-a","primitives":[{"attributes":{"NORMAL":2,"POSITION":1,"TEXCOORD_0":3},"indices":0,"material":0,"mode":4},{"attributes":{"NORMAL":6,"POSITION":5,"TEXCOORD_0":7},"indices":4,"material":1,"mode":4}]}],"nodes":[{"mesh":0,"name":"tree-palm-young-a","rotation":[0,0,0,1],"scale":[1,1,1],"translation":[0,0,0]}],"samplers":[{}],"scene":0,"scenes":[{"name":"Root Scene","nodes":[0]}]}