{"accessors":[{"bufferView":0,"byteOffset":0,"componentType":5123,"count":690,"type":"SCALAR"},{"bufferView":1,"byteOffset":0,"componentType":5126,"count":528,"max":[0.0233536381274462,0.00280392332933843,0.00231131305918097],"min":[-0.0240134447813,-0.00021326383285,-0.00129257142544],"type":"VEC3"},{"bufferView":2,"byteOffset":0,"componentType":5126,"count":528,"type":"VEC3"},{"bufferView":3,"byteOffset":0,"componentType":5126,"count":528,"type":"VEC2"}],"asset":{"generator":"FBX2glTF v0.13.1","version":"2.0"},"bufferViews":[{"buffer":0,"byteLength":1380,"byteOffset":0,"target":34963},{"buffer":0,"byteLength":6336,"byteOffset":1380,"target":34962},{"buffer":0,"byteLength":6336,"byteOffset":7716,"target":34962},{"buffer":0,"byteLength":4224,"byteOffset":14052,"target":34962}],"buffers":[{"byteLength":18276,"uri":"tree-beech-log-a.bin"}],"materials":[{"alphaMode":"OPAQUE","doubleSided":false,"extras":{"fromFBX":{"isTruePBR":false,"shadingModel":"Phong"}},"name":"Universal Shader V4","pbrMetallicRoughness":{"baseColorFactor":[0.106610722839832,0.0447827018797398,0.0133064528927207,1],"metallicFactor":0.400000005960464,"roughnessFactor":0.229415729641914}}],"meshes":[{"name":"tree-beech-log-a","primitives":[{"attributes":{"NORMAL":2,"POSITION":1,"TEXCOORD_0":3},"indices":0,"material":0,"mode":4}]}],"nodes":[{"mesh":0,"name":"tree-beech-log-a","rotation":[0,0,0,1],"scale":[1,1,1],"translation":[0,0,0]}],"samplers":[{}],"scene":0,"scenes":[{"name":"Root Scene","nodes":[0]}]}