{"accessors":[{"bufferView":0,"byteOffset":0,"componentType":5123,"count":120,"type":"SCALAR"},{"bufferView":1,"byteOffset":0,"componentType":5126,"count":84,"max":[0.00040780293056741,0.00372842000797391,0.00047089034342207],"min":[-0.00040780293057,-0.00252909585834,-0.00047089034342],"type":"VEC3"},{"bufferView":2,"byteOffset":0,"componentType":5126,"count":84,"type":"VEC3"},{"bufferView":3,"byteOffset":0,"componentType":5126,"count":84,"type":"VEC2"},{"bufferView":4,"byteOffset":0,"componentType":5123,"count":1170,"type":"SCALAR"},{"bufferView":5,"byteOffset":0,"componentType":5126,"count":1170,"max":[0.00335393426939845,0.0144823603332043,0.0029115614015609],"min":[-0.00278792367317,-0.00046407236368,-0.00280113983899],"type":"VEC3"},{"bufferView":6,"byteOffset":0,"componentType":5126,"count":1170,"type":"VEC3"},{"bufferView":7,"byteOffset":0,"componentType":5126,"count":1170,"type":"VEC2"}],"asset":{"generator":"FBX2glTF v0.13.1","version":"2.0"},"bufferViews":[{"buffer":0,"byteLength":240,"byteOffset":0,"target":34963},{"buffer":0,"byteLength":1008,"byteOffset":240,"target":34962},{"buffer":0,"byteLength":1008,"byteOffset":1248,"target":34962},{"buffer":0,"byteLength":672,"byteOffset":2256,"target":34962},{"buffer":0,"byteLength":2340,"byteOffset":2928,"target":34963},{"buffer":0,"byteLength":14040,"byteOffset":5268,"target":34962},{"buffer":0,"byteLength":14040,"byteOffset":19308,"target":34962},{"buffer":0,"byteLength":9360,"byteOffset":33348,"target":34962}],"buffers":[{"byteLength":42708,"uri":"tree-cypress-sapling-a.bin"}],"materials":[{"alphaMode":"OPAQUE","doubleSided":false,"extras":{"fromFBX":{"isTruePBR":false,"shadingModel":"Phong"}},"name":"Universal Shader V10 - A","pbrMetallicRoughness":{"baseColorFactor":[0.800000011920929,0.800000011920929,0.800000011920929,1],"metallicFactor":0.400000005960464,"roughnessFactor":0.229415729641914}},{"alphaMode":"OPAQUE","doubleSided":false,"extras":{"fromFBX":{"isTruePBR":false,"shadingModel":"Phong"}},"name":"Universal Foliage V1 - C","pbrMetallicRoughness":{"baseColorFactor":[0.0468500107526779,0.0668631121516228,0.00949752610176802,1],"metallicFactor":0.400000005960464,"roughnessFactor":0.229415729641914}}],"meshes":[{"name":"tree-cypress-sapling-a","primitives":[{"attributes":{"NORMAL":2,"POSITION":1,"TEXCOORD_0":3},"indices":0,"material":0,"mode":4},{"attributes":{"NORMAL":6,"POSITION":5,"TEXCOORD_0":7},"indices":4,"material":1,"mode":4}]}],"nodes":[{"mesh":0,"name":"tree-cypress-sapling-a","rotation":[0,0,0,1],"scale":[1,1,1],"translation":[0,0,0]}],"samplers":[{}],"scene":0,"scenes":[{"name":"Root Scene","nodes":[0]}]}