{"accessors":[{"bufferView":0,"byteOffset":0,"componentType":5123,"count":171,"type":"SCALAR"},{"bufferView":1,"byteOffset":0,"componentType":5126,"count":171,"max":[0.00365930865518749,0.0139494286850095,0.00409492803737521],"min":[-0.00468570832163,-0.00231657340191,-0.00434593996033],"type":"VEC3"},{"bufferView":2,"byteOffset":0,"componentType":5126,"count":171,"type":"VEC3"},{"bufferView":3,"byteOffset":0,"componentType":5126,"count":171,"type":"VEC2"}],"asset":{"generator":"FBX2glTF v0.13.1","version":"2.0"},"bufferViews":[{"buffer":0,"byteLength":342,"byteOffset":0,"target":34963},{"buffer":0,"byteLength":2052,"byteOffset":344,"target":34962},{"buffer":0,"byteLength":2052,"byteOffset":2396,"target":34962},{"buffer":0,"byteLength":1368,"byteOffset":4448,"target":34962}],"buffers":[{"byteLength":5816,"uri":"tree-beech-broken-a.bin"}],"materials":[{"alphaMode":"OPAQUE","doubleSided":false,"extras":{"fromFBX":{"isTruePBR":false,"shadingModel":"Phong"}},"name":"Universal Shader V4","pbrMetallicRoughness":{"baseColorFactor":[0.106610722839832,0.0447827018797398,0.0133064528927207,1],"metallicFactor":0.400000005960464,"roughnessFactor":0.229415729641914}}],"meshes":[{"name":"tree-beech-broken-a","primitives":[{"attributes":{"NORMAL":2,"POSITION":1,"TEXCOORD_0":3},"indices":0,"material":0,"mode":4}]}],"nodes":[{"mesh":0,"name":"tree-beech-broken-a","rotation":[0,0,0,1],"scale":[1,1,1],"translation":[0,0,0]}],"samplers":[{}],"scene":0,"scenes":[{"name":"Root Scene","nodes":[0]}]}