{"accessors":[{"bufferView":0,"byteOffset":0,"componentType":5123,"count":3954,"type":"SCALAR"},{"bufferView":1,"byteOffset":0,"componentType":5126,"count":3954,"max":[0.0351438075304031,0.119869880378246,0.0363123379647732],"min":[-0.0377909168601,0.0515124723315239,-0.03484208509326],"type":"VEC3"},{"bufferView":2,"byteOffset":0,"componentType":5126,"count":3954,"type":"VEC3"},{"bufferView":3,"byteOffset":0,"componentType":5126,"count":3954,"type":"VEC2"},{"bufferView":4,"byteOffset":0,"componentType":5123,"count":1899,"type":"SCALAR"},{"bufferView":5,"byteOffset":0,"componentType":5126,"count":1875,"max":[0.0193030405789614,0.0994088351726532,0.0206891316920519],"min":[-0.02190191671252,-0.00232200440951,-0.01956518925726],"type":"VEC3"},{"bufferView":6,"byteOffset":0,"componentType":5126,"count":1875,"type":"VEC3"},{"bufferView":7,"byteOffset":0,"componentType":5126,"count":1875,"type":"VEC2"}],"asset":{"generator":"FBX2glTF v0.13.1","version":"2.0"},"bufferViews":[{"buffer":0,"byteLength":7908,"byteOffset":0,"target":34963},{"buffer":0,"byteLength":47448,"byteOffset":7908,"target":34962},{"buffer":0,"byteLength":47448,"byteOffset":55356,"target":34962},{"buffer":0,"byteLength":31632,"byteOffset":102804,"target":34962},{"buffer":0,"byteLength":3798,"byteOffset":134436,"target":34963},{"buffer":0,"byteLength":22500,"byteOffset":138236,"target":34962},{"buffer":0,"byteLength":22500,"byteOffset":160736,"target":34962},{"buffer":0,"byteLength":15000,"byteOffset":183236,"target":34962}],"buffers":[{"byteLength":198236,"uri":"tree-beech-mature-a.bin"}],"materials":[{"alphaMode":"OPAQUE","doubleSided":false,"extras":{"fromFBX":{"isTruePBR":false,"shadingModel":"Phong"}},"name":"Universal Foliage V1 - B","pbrMetallicRoughness":{"baseColorFactor":[0.112882412970066,0.226711452007294,0.0520631447434425,1],"metallicFactor":0.400000005960464,"roughnessFactor":0.229415729641914}},{"alphaMode":"OPAQUE","doubleSided":false,"extras":{"fromFBX":{"isTruePBR":false,"shadingModel":"Phong"}},"name":"Universal Shader V4","pbrMetallicRoughness":{"baseColorFactor":[0.106610722839832,0.0447827018797398,0.0133064528927207,1],"metallicFactor":0.400000005960464,"roughnessFactor":0.229415729641914}}],"meshes":[{"name":"tree-beech-mature-a","primitives":[{"attributes":{"NORMAL":2,"POSITION":1,"TEXCOORD_0":3},"indices":0,"material":0,"mode":4},{"attributes":{"NORMAL":6,"POSITION":5,"TEXCOORD_0":7},"indices":4,"material":1,"mode":4}]}],"nodes":[{"mesh":0,"name":"tree-beech-mature-a","rotation":[0,0,0,1],"scale":[1,1,1],"translation":[0,0,0]}],"samplers":[{}],"scene":0,"scenes":[{"name":"Root Scene","nodes":[0]}]}