{"accessors":[{"bufferView":0,"byteOffset":0,"componentType":5123,"count":2946,"type":"SCALAR"},{"bufferView":1,"byteOffset":0,"componentType":5126,"count":2392,"max":[0.0394894964993,0.00461100973188877,0.00719672068953514],"min":[-0.0419636964798,-0.0010845460929,-0.00627084961161],"type":"VEC3"},{"bufferView":2,"byteOffset":0,"componentType":5126,"count":2392,"type":"VEC3"},{"bufferView":3,"byteOffset":0,"componentType":5126,"count":2392,"type":"VEC2"}],"asset":{"generator":"FBX2glTF v0.13.1","version":"2.0"},"bufferViews":[{"buffer":0,"byteLength":5892,"byteOffset":0,"target":34963},{"buffer":0,"byteLength":28704,"byteOffset":5892,"target":34962},{"buffer":0,"byteLength":28704,"byteOffset":34596,"target":34962},{"buffer":0,"byteLength":19136,"byteOffset":63300,"target":34962}],"buffers":[{"byteLength":82436,"uri":"tree-spruce-log-pile-a.bin"}],"materials":[{"alphaMode":"OPAQUE","doubleSided":false,"extras":{"fromFBX":{"isTruePBR":false,"shadingModel":"Phong"}},"name":"Universal Shader V4","pbrMetallicRoughness":{"baseColorFactor":[0.106610722839832,0.0447827018797398,0.0133064528927207,1],"metallicFactor":0.400000005960464,"roughnessFactor":0.229415729641914}}],"meshes":[{"name":"tree-spruce-log-pile-a","primitives":[{"attributes":{"NORMAL":2,"POSITION":1,"TEXCOORD_0":3},"indices":0,"material":0,"mode":4}]}],"nodes":[{"mesh":0,"name":"tree-spruce-log-pile-a","rotation":[0,0,0,1],"scale":[1,1,1],"translation":[0,0,0]}],"samplers":[{}],"scene":0,"scenes":[{"name":"Root Scene","nodes":[0]}]}