{"accessors":[{"bufferView":0,"byteOffset":0,"componentType":5123,"count":852,"type":"SCALAR"},{"bufferView":1,"byteOffset":0,"componentType":5126,"count":830,"max":[0.00288940593600273,0.0507993400096893,0.00351946824230254],"min":[-0.00320454849862,-0.00162855652161,-0.00375238596462],"type":"VEC3"},{"bufferView":2,"byteOffset":0,"componentType":5126,"count":830,"type":"VEC3"},{"bufferView":3,"byteOffset":0,"componentType":5126,"count":830,"type":"VEC4"},{"bufferView":4,"byteOffset":0,"componentType":5126,"count":830,"type":"VEC2"}],"asset":{"generator":"FBX2glTF v0.13.1","version":"2.0"},"bufferViews":[{"buffer":0,"byteLength":1704,"byteOffset":0,"target":34963},{"buffer":0,"byteLength":9960,"byteOffset":1704,"target":34962},{"buffer":0,"byteLength":9960,"byteOffset":11664,"target":34962},{"buffer":0,"byteLength":13280,"byteOffset":21624,"target":34962},{"buffer":0,"byteLength":6640,"byteOffset":34904,"target":34962}],"buffers":[{"byteLength":41544,"uri":"tree-birch-broken-a.bin"}],"materials":[{"alphaMode":"OPAQUE","doubleSided":false,"extras":{"fromFBX":{"isTruePBR":false,"shadingModel":"Phong"}},"name":"Universal Shader V4","pbrMetallicRoughness":{"baseColorFactor":[0.106610722839832,0.0447827018797398,0.0133064528927207,1],"metallicFactor":0.400000005960464,"roughnessFactor":0.229415729641914}}],"meshes":[{"name":"tree-birch-broken-a","primitives":[{"attributes":{"COLOR_0":3,"NORMAL":2,"POSITION":1,"TEXCOORD_0":4},"indices":0,"material":0,"mode":4}]}],"nodes":[{"mesh":0,"name":"tree-birch-broken-a","rotation":[0,0,0,1],"scale":[1,1,1],"translation":[0,0,0]}],"samplers":[{}],"scene":0,"scenes":[{"name":"Root Scene","nodes":[0]}]}