{"accessors":[{"bufferView":0,"byteOffset":0,"componentType":5123,"count":2913,"type":"SCALAR"},{"bufferView":1,"byteOffset":0,"componentType":5126,"count":2913,"max":[0.0468664206564426,0.0303338617086411,0.0238881781697273],"min":[-0.04576143249869,-0.00394624425098,-0.04123324155808],"type":"VEC3"},{"bufferView":2,"byteOffset":0,"componentType":5126,"count":2913,"type":"VEC3"},{"bufferView":3,"byteOffset":0,"componentType":5126,"count":2913,"type":"VEC2"}],"asset":{"generator":"FBX2glTF v0.13.1","version":"2.0"},"bufferViews":[{"buffer":0,"byteLength":5826,"byteOffset":0,"target":34963},{"buffer":0,"byteLength":34956,"byteOffset":5828,"target":34962},{"buffer":0,"byteLength":34956,"byteOffset":40784,"target":34962},{"buffer":0,"byteLength":23304,"byteOffset":75740,"target":34962}],"buffers":[{"byteLength":99044,"uri":"tree-pine-fallen-a.bin"}],"materials":[{"alphaMode":"OPAQUE","doubleSided":false,"extras":{"fromFBX":{"isTruePBR":false,"shadingModel":"Phong"}},"name":"Universal Shader V4","pbrMetallicRoughness":{"baseColorFactor":[0.106610722839832,0.0447827018797398,0.0133064528927207,1],"metallicFactor":0.400000005960464,"roughnessFactor":0.229415729641914}}],"meshes":[{"name":"tree-pine-fallen-a","primitives":[{"attributes":{"NORMAL":2,"POSITION":1,"TEXCOORD_0":3},"indices":0,"material":0,"mode":4}]}],"nodes":[{"mesh":0,"name":"tree-pine-fallen-a","rotation":[0,0,0,1],"scale":[1,1,1],"translation":[0,0,0]}],"samplers":[{}],"scene":0,"scenes":[{"name":"Root Scene","nodes":[0]}]}