{"accessors":[{"bufferView":0,"byteOffset":0,"componentType":5123,"count":396,"type":"SCALAR"},{"bufferView":1,"byteOffset":0,"componentType":5126,"count":396,"max":[0.0221965480595827,0.00562180206179619,0.00441255513578653],"min":[-0.01844910345972,-0.00050721311709,-0.00616505509242],"type":"VEC3"},{"bufferView":2,"byteOffset":0,"componentType":5126,"count":396,"type":"VEC3"},{"bufferView":3,"byteOffset":0,"componentType":5126,"count":396,"type":"VEC2"}],"asset":{"generator":"FBX2glTF v0.13.1","version":"2.0"},"bufferViews":[{"buffer":0,"byteLength":792,"byteOffset":0,"target":34963},{"buffer":0,"byteLength":4752,"byteOffset":792,"target":34962},{"buffer":0,"byteLength":4752,"byteOffset":5544,"target":34962},{"buffer":0,"byteLength":3168,"byteOffset":10296,"target":34962}],"buffers":[{"byteLength":13464,"uri":"tree-pine-branch-a.bin"}],"materials":[{"alphaMode":"OPAQUE","doubleSided":false,"extras":{"fromFBX":{"isTruePBR":false,"shadingModel":"Phong"}},"name":"Universal Shader V4","pbrMetallicRoughness":{"baseColorFactor":[0.106610722839832,0.0447827018797398,0.0133064528927207,1],"metallicFactor":0.400000005960464,"roughnessFactor":0.229415729641914}}],"meshes":[{"name":"tree-pine-branch-a","primitives":[{"attributes":{"NORMAL":2,"POSITION":1,"TEXCOORD_0":3},"indices":0,"material":0,"mode":4}]}],"nodes":[{"mesh":0,"name":"tree-pine-branch-a","rotation":[0,0,0,1],"scale":[1,1,1],"translation":[0,0,0]}],"samplers":[{}],"scene":0,"scenes":[{"name":"Root Scene","nodes":[0]}]}