{"accessors":[{"bufferView":0,"byteOffset":0,"componentType":5123,"count":1524,"type":"SCALAR"},{"bufferView":1,"byteOffset":0,"componentType":5126,"count":1520,"max":[0.0446659661829472,0.0273724589496851,0.0174463223665953],"min":[-0.04294022172689,-0.00234631588683,-0.01463024131954],"type":"VEC3"},{"bufferView":2,"byteOffset":0,"componentType":5126,"count":1520,"type":"VEC3"},{"bufferView":3,"byteOffset":0,"componentType":5126,"count":1520,"type":"VEC2"}],"asset":{"generator":"FBX2glTF v0.13.1","version":"2.0"},"bufferViews":[{"buffer":0,"byteLength":3048,"byteOffset":0,"target":34963},{"buffer":0,"byteLength":18240,"byteOffset":3048,"target":34962},{"buffer":0,"byteLength":18240,"byteOffset":21288,"target":34962},{"buffer":0,"byteLength":12160,"byteOffset":39528,"target":34962}],"buffers":[{"byteLength":51688,"uri":"tree-sequoia-rotten-big-b.bin"}],"materials":[{"alphaMode":"OPAQUE","doubleSided":false,"extras":{"fromFBX":{"isTruePBR":false,"shadingModel":"Phong"}},"name":"Universal Shader V10 - A","pbrMetallicRoughness":{"baseColorFactor":[0.800000011920929,0.800000011920929,0.800000011920929,1],"metallicFactor":0.400000005960464,"roughnessFactor":0.229415729641914}}],"meshes":[{"name":"tree-sequoia-rotten-big-b","primitives":[{"attributes":{"NORMAL":2,"POSITION":1,"TEXCOORD_0":3},"indices":0,"material":0,"mode":4}]}],"nodes":[{"mesh":0,"name":"tree-sequoia-rotten-big-b","rotation":[0,0,0,1],"scale":[1,1,1],"translation":[0,0,0]}],"samplers":[{}],"scene":0,"scenes":[{"name":"Root Scene","nodes":[0]}]}