{"accessors":[{"bufferView":0,"byteOffset":0,"componentType":5123,"count":4608,"type":"SCALAR"},{"bufferView":1,"byteOffset":0,"componentType":5126,"count":4608,"max":[0.0257254373282194,0.0576693043112755,0.0253591705113649],"min":[-0.02776716835797,-0.00203401083127,-0.01836984604597],"type":"VEC3"},{"bufferView":2,"byteOffset":0,"componentType":5126,"count":4608,"type":"VEC3"},{"bufferView":3,"byteOffset":0,"componentType":5126,"count":4608,"type":"VEC2"}],"asset":{"generator":"FBX2glTF v0.13.1","version":"2.0"},"bufferViews":[{"buffer":0,"byteLength":9216,"byteOffset":0,"target":34963},{"buffer":0,"byteLength":55296,"byteOffset":9216,"target":34962},{"buffer":0,"byteLength":55296,"byteOffset":64512,"target":34962},{"buffer":0,"byteLength":36864,"byteOffset":119808,"target":34962}],"buffers":[{"byteLength":156672,"uri":"tree-willow-weeping-dead-a.bin"}],"materials":[{"alphaMode":"OPAQUE","doubleSided":false,"extras":{"fromFBX":{"isTruePBR":false,"shadingModel":"Phong"}},"name":"Universal Shader V10 - A","pbrMetallicRoughness":{"baseColorFactor":[0.800000011920929,0.800000011920929,0.800000011920929,1],"metallicFactor":0.400000005960464,"roughnessFactor":0.229415729641914}}],"meshes":[{"name":"tree-willow-weeping-dead-a","primitives":[{"attributes":{"NORMAL":2,"POSITION":1,"TEXCOORD_0":3},"indices":0,"material":0,"mode":4}]}],"nodes":[{"mesh":0,"name":"tree-willow-weeping-dead-a","rotation":[0,0,0,1],"scale":[1,1,1],"translation":[0,0,0]}],"samplers":[{}],"scene":0,"scenes":[{"name":"Root Scene","nodes":[0]}]}