{"accessors":[{"bufferView":0,"byteOffset":0,"componentType":5123,"count":192,"type":"SCALAR"},{"bufferView":1,"byteOffset":0,"componentType":5126,"count":192,"max":[0.00050625164294615,0.0120576759800315,0.00044834721484221],"min":[-0.00051740102936,-0.00324644730426,-0.00065326073673],"type":"VEC3"},{"bufferView":2,"byteOffset":0,"componentType":5126,"count":192,"type":"VEC3"},{"bufferView":3,"byteOffset":0,"componentType":5126,"count":192,"type":"VEC2"},{"bufferView":4,"byteOffset":0,"componentType":5123,"count":2382,"type":"SCALAR"},{"bufferView":5,"byteOffset":0,"componentType":5126,"count":2382,"max":[0.00441843783482909,0.0181465074419975,0.00406842352822423],"min":[-0.00443409616128,0.00179008534178138,-0.00468859588727],"type":"VEC3"},{"bufferView":6,"byteOffset":0,"componentType":5126,"count":2382,"type":"VEC3"},{"bufferView":7,"byteOffset":0,"componentType":5126,"count":2382,"type":"VEC2"}],"asset":{"generator":"FBX2glTF v0.13.1","version":"2.0"},"bufferViews":[{"buffer":0,"byteLength":384,"byteOffset":0,"target":34963},{"buffer":0,"byteLength":2304,"byteOffset":384,"target":34962},{"buffer":0,"byteLength":2304,"byteOffset":2688,"target":34962},{"buffer":0,"byteLength":1536,"byteOffset":4992,"target":34962},{"buffer":0,"byteLength":4764,"byteOffset":6528,"target":34963},{"buffer":0,"byteLength":28584,"byteOffset":11292,"target":34962},{"buffer":0,"byteLength":28584,"byteOffset":39876,"target":34962},{"buffer":0,"byteLength":19056,"byteOffset":68460,"target":34962}],"buffers":[{"byteLength":87516,"uri":"tree-sequoia-sapling-a.bin"}],"materials":[{"alphaMode":"OPAQUE","doubleSided":false,"extras":{"fromFBX":{"isTruePBR":false,"shadingModel":"Phong"}},"name":"Universal Shader V10 - A","pbrMetallicRoughness":{"baseColorFactor":[0.800000011920929,0.800000011920929,0.800000011920929,1],"metallicFactor":0.400000005960464,"roughnessFactor":0.229415729641914}},{"alphaMode":"OPAQUE","doubleSided":false,"extras":{"fromFBX":{"isTruePBR":false,"shadingModel":"Phong"}},"name":"Universal Foliage V1 - C","pbrMetallicRoughness":{"baseColorFactor":[0.0468500107526779,0.0668631121516228,0.00949752610176802,1],"metallicFactor":0.400000005960464,"roughnessFactor":0.229415729641914}}],"meshes":[{"name":"tree-sequoia-sapling-a","primitives":[{"attributes":{"NORMAL":2,"POSITION":1,"TEXCOORD_0":3},"indices":0,"material":0,"mode":4},{"attributes":{"NORMAL":6,"POSITION":5,"TEXCOORD_0":7},"indices":4,"material":1,"mode":4}]}],"nodes":[{"mesh":0,"name":"tree-sequoia-sapling-a","rotation":[0,0,0,1],"scale":[1,1,1],"translation":[0,0,0]}],"samplers":[{}],"scene":0,"scenes":[{"name":"Root Scene","nodes":[0]}]}