{"accessors":[{"bufferView":0,"byteOffset":0,"componentType":5123,"count":1833,"type":"SCALAR"},{"bufferView":1,"byteOffset":0,"componentType":5126,"count":1833,"max":[0.0332624725997448,0.0643714517354965,0.0246135238558054],"min":[-0.03111373074353,-0.00203401269391,-0.0186514928937],"type":"VEC3"},{"bufferView":2,"byteOffset":0,"componentType":5126,"count":1833,"type":"VEC3"},{"bufferView":3,"byteOffset":0,"componentType":5126,"count":1833,"type":"VEC2"},{"bufferView":4,"byteOffset":0,"componentType":5123,"count":5874,"type":"SCALAR"},{"bufferView":5,"byteOffset":0,"componentType":5126,"count":5874,"max":[0.036936704069376,0.0807154849171638,0.0288459714502096],"min":[-0.03415545076132,0.00082744506653398,-0.03652476891875],"type":"VEC3"},{"bufferView":6,"byteOffset":0,"componentType":5126,"count":5874,"type":"VEC3"},{"bufferView":7,"byteOffset":0,"componentType":5126,"count":5874,"type":"VEC2"}],"asset":{"generator":"FBX2glTF v0.13.1","version":"2.0"},"bufferViews":[{"buffer":0,"byteLength":3666,"byteOffset":0,"target":34963},{"buffer":0,"byteLength":21996,"byteOffset":3668,"target":34962},{"buffer":0,"byteLength":21996,"byteOffset":25664,"target":34962},{"buffer":0,"byteLength":14664,"byteOffset":47660,"target":34962},{"buffer":0,"byteLength":11748,"byteOffset":62324,"target":34963},{"buffer":0,"byteLength":70488,"byteOffset":74072,"target":34962},{"buffer":0,"byteLength":70488,"byteOffset":144560,"target":34962},{"buffer":0,"byteLength":46992,"byteOffset":215048,"target":34962}],"buffers":[{"byteLength":262040,"uri":"tree-willow-weeping-mature-a.bin"}],"materials":[{"alphaMode":"OPAQUE","doubleSided":false,"extras":{"fromFBX":{"isTruePBR":false,"shadingModel":"Phong"}},"name":"Universal Shader V4","pbrMetallicRoughness":{"baseColorFactor":[0.106610722839832,0.0447827018797398,0.0133064528927207,1],"metallicFactor":0.400000005960464,"roughnessFactor":0.229415729641914}},{"alphaMode":"OPAQUE","doubleSided":false,"extras":{"fromFBX":{"isTruePBR":false,"shadingModel":"Phong"}},"name":"Universal Foliage V1 - A","pbrMetallicRoughness":{"baseColorFactor":[0.230576917529106,0.438745319843292,0.0388147756457329,1],"metallicFactor":0.400000005960464,"roughnessFactor":0.229415729641914}}],"meshes":[{"name":"tree-willow-weeping-mature-a","primitives":[{"attributes":{"NORMAL":2,"POSITION":1,"TEXCOORD_0":3},"indices":0,"material":0,"mode":4},{"attributes":{"NORMAL":6,"POSITION":5,"TEXCOORD_0":7},"indices":4,"material":1,"mode":4}]}],"nodes":[{"mesh":0,"name":"tree-willow-weeping-mature-a","rotation":[0,0,0,1],"scale":[1,1,1],"translation":[0,0,0]}],"samplers":[{}],"scene":0,"scenes":[{"name":"Root Scene","nodes":[0]}]}