{"accessors":[{"bufferView":0,"byteOffset":0,"componentType":5123,"count":4224,"type":"SCALAR"},{"bufferView":1,"byteOffset":0,"componentType":5126,"count":4224,"max":[0.0130229908972979,0.093203529715538,0.0117256641387939],"min":[-0.0096990307793,-0.00232088565826,-0.00969243515283],"type":"VEC3"},{"bufferView":2,"byteOffset":0,"componentType":5126,"count":4224,"type":"VEC3"},{"bufferView":3,"byteOffset":0,"componentType":5126,"count":4224,"type":"VEC4"},{"bufferView":4,"byteOffset":0,"componentType":5126,"count":4224,"type":"VEC2"},{"bufferView":5,"byteOffset":0,"componentType":5123,"count":2970,"type":"SCALAR"},{"bufferView":6,"byteOffset":0,"componentType":5126,"count":2970,"max":[0.0213233958929777,0.113427102565765,0.0183042194694281],"min":[-0.0171593669802,0.0504114776849747,-0.02045684121549],"type":"VEC3"},{"bufferView":7,"byteOffset":0,"componentType":5126,"count":2970,"type":"VEC3"},{"bufferView":8,"byteOffset":0,"componentType":5126,"count":2970,"type":"VEC4"},{"bufferView":9,"byteOffset":0,"componentType":5126,"count":2970,"type":"VEC2"}],"asset":{"generator":"FBX2glTF v0.13.1","version":"2.0"},"bufferViews":[{"buffer":0,"byteLength":8448,"byteOffset":0,"target":34963},{"buffer":0,"byteLength":50688,"byteOffset":8448,"target":34962},{"buffer":0,"byteLength":50688,"byteOffset":59136,"target":34962},{"buffer":0,"byteLength":67584,"byteOffset":109824,"target":34962},{"buffer":0,"byteLength":33792,"byteOffset":177408,"target":34962},{"buffer":0,"byteLength":5940,"byteOffset":211200,"target":34963},{"buffer":0,"byteLength":35640,"byteOffset":217140,"target":34962},{"buffer":0,"byteLength":35640,"byteOffset":252780,"target":34962},{"buffer":0,"byteLength":47520,"byteOffset":288420,"target":34962},{"buffer":0,"byteLength":23760,"byteOffset":335940,"target":34962}],"buffers":[{"byteLength":359700,"uri":"tree-birch-mature-a.bin"}],"materials":[{"alphaMode":"OPAQUE","doubleSided":false,"extras":{"fromFBX":{"isTruePBR":false,"shadingModel":"Phong"}},"name":"Universal Shader V4","pbrMetallicRoughness":{"baseColorFactor":[0.106610722839832,0.0447827018797398,0.0133064528927207,1],"metallicFactor":0.400000005960464,"roughnessFactor":0.229415729641914}},{"alphaMode":"OPAQUE","doubleSided":false,"extras":{"fromFBX":{"isTruePBR":false,"shadingModel":"Phong"}},"name":"Universal Foliage V1 - A","pbrMetallicRoughness":{"baseColorFactor":[0.230576917529106,0.438745319843292,0.0388147756457329,1],"metallicFactor":0.400000005960464,"roughnessFactor":0.229415729641914}}],"meshes":[{"name":"tree-birch-mature-a","primitives":[{"attributes":{"COLOR_0":3,"NORMAL":2,"POSITION":1,"TEXCOORD_0":4},"indices":0,"material":0,"mode":4},{"attributes":{"COLOR_0":8,"NORMAL":7,"POSITION":6,"TEXCOORD_0":9},"indices":5,"material":1,"mode":4}]}],"nodes":[{"mesh":0,"name":"tree-birch-mature-a","rotation":[0,0,0,1],"scale":[1,1,1],"translation":[0,0,0]}],"samplers":[{}],"scene":0,"scenes":[{"name":"Root Scene","nodes":[0]}]}