{"accessors":[{"bufferView":0,"byteOffset":0,"componentType":5123,"count":918,"type":"SCALAR"},{"bufferView":1,"byteOffset":0,"componentType":5126,"count":766,"max":[0.0160256326198578,0.00602439790964127,0.00411697011440992],"min":[-0.01386158820242,-0.00091169675579,-0.00284618372098],"type":"VEC3"},{"bufferView":2,"byteOffset":0,"componentType":5126,"count":766,"type":"VEC3"},{"bufferView":3,"byteOffset":0,"componentType":5126,"count":766,"type":"VEC2"}],"asset":{"generator":"FBX2glTF v0.13.1","version":"2.0"},"bufferViews":[{"buffer":0,"byteLength":1836,"byteOffset":0,"target":34963},{"buffer":0,"byteLength":9192,"byteOffset":1836,"target":34962},{"buffer":0,"byteLength":9192,"byteOffset":11028,"target":34962},{"buffer":0,"byteLength":6128,"byteOffset":20220,"target":34962}],"buffers":[{"byteLength":26348,"uri":"tree-oak-log-a.bin"}],"materials":[{"alphaMode":"OPAQUE","doubleSided":false,"extras":{"fromFBX":{"isTruePBR":false,"shadingModel":"Phong"}},"name":"Universal Shader V4","pbrMetallicRoughness":{"baseColorFactor":[0.106610722839832,0.0447827018797398,0.0133064528927207,1],"metallicFactor":0.400000005960464,"roughnessFactor":0.229415729641914}}],"meshes":[{"name":"tree-oak-log-a","primitives":[{"attributes":{"NORMAL":2,"POSITION":1,"TEXCOORD_0":3},"indices":0,"material":0,"mode":4}]}],"nodes":[{"mesh":0,"name":"tree-oak-log-a","rotation":[0,0,0,1],"scale":[1,1,1],"translation":[0,0,0]}],"samplers":[{}],"scene":0,"scenes":[{"name":"Root Scene","nodes":[0]}]}