{"accessors":[{"bufferView":0,"byteOffset":0,"componentType":5123,"count":1278,"type":"SCALAR"},{"bufferView":1,"byteOffset":0,"componentType":5126,"count":1278,"max":[0.00317787867970765,0.0503753013908863,0.00372376292943954],"min":[-0.00293778371997,-0.00249165599234,-0.00461659906432],"type":"VEC3"},{"bufferView":2,"byteOffset":0,"componentType":5126,"count":1278,"type":"VEC3"},{"bufferView":3,"byteOffset":0,"componentType":5126,"count":1278,"type":"VEC2"}],"asset":{"generator":"FBX2glTF v0.13.1","version":"2.0"},"bufferViews":[{"buffer":0,"byteLength":2556,"byteOffset":0,"target":34963},{"buffer":0,"byteLength":15336,"byteOffset":2556,"target":34962},{"buffer":0,"byteLength":15336,"byteOffset":17892,"target":34962},{"buffer":0,"byteLength":10224,"byteOffset":33228,"target":34962}],"buffers":[{"byteLength":43452,"uri":"tree-cypress-dead-a.bin"}],"materials":[{"alphaMode":"OPAQUE","doubleSided":false,"extras":{"fromFBX":{"isTruePBR":false,"shadingModel":"Phong"}},"name":"Universal Shader V10 - A","pbrMetallicRoughness":{"baseColorFactor":[0.800000011920929,0.800000011920929,0.800000011920929,1],"metallicFactor":0.400000005960464,"roughnessFactor":0.229415729641914}}],"meshes":[{"name":"tree-cypress-dead-a","primitives":[{"attributes":{"NORMAL":2,"POSITION":1,"TEXCOORD_0":3},"indices":0,"material":0,"mode":4}]}],"nodes":[{"mesh":0,"name":"tree-cypress-dead-a","rotation":[0,0,0,1],"scale":[1,1,1],"translation":[0,0,0]}],"samplers":[{}],"scene":0,"scenes":[{"name":"Root Scene","nodes":[0]}]}