{"accessors":[{"bufferView":0,"byteOffset":0,"componentType":5123,"count":900,"type":"SCALAR"},{"bufferView":1,"byteOffset":0,"componentType":5126,"count":712,"max":[0.00743999099358916,0.0149052841588855,0.00369231542572379],"min":[-0.00567782809958,-0.00248064659536,-0.00585140939802],"type":"VEC3"},{"bufferView":2,"byteOffset":0,"componentType":5126,"count":712,"type":"VEC3"},{"bufferView":3,"byteOffset":0,"componentType":5126,"count":712,"type":"VEC2"}],"asset":{"generator":"FBX2glTF v0.13.1","version":"2.0"},"bufferViews":[{"buffer":0,"byteLength":1800,"byteOffset":0,"target":34963},{"buffer":0,"byteLength":8544,"byteOffset":1800,"target":34962},{"buffer":0,"byteLength":8544,"byteOffset":10344,"target":34962},{"buffer":0,"byteLength":5696,"byteOffset":18888,"target":34962}],"buffers":[{"byteLength":24584,"uri":"tree-palm-sapling-a.bin"}],"materials":[{"alphaMode":"OPAQUE","doubleSided":false,"extras":{"fromFBX":{"isTruePBR":false,"shadingModel":"Phong"}},"name":"Universal Foliage V1 - A","pbrMetallicRoughness":{"baseColorFactor":[0.230576917529106,0.438745319843292,0.0388147756457329,1],"metallicFactor":0.400000005960464,"roughnessFactor":0.229415729641914}}],"meshes":[{"name":"tree-palm-sapling-a","primitives":[{"attributes":{"NORMAL":2,"POSITION":1,"TEXCOORD_0":3},"indices":0,"material":0,"mode":4}]}],"nodes":[{"mesh":0,"name":"tree-palm-sapling-a","rotation":[0,0,0,1],"scale":[1,1,1],"translation":[0,0,0]}],"samplers":[{}],"scene":0,"scenes":[{"name":"Root Scene","nodes":[0]}]}