{"accessors":[{"bufferView":0,"byteOffset":0,"componentType":5123,"count":318,"type":"SCALAR"},{"bufferView":1,"byteOffset":0,"componentType":5126,"count":276,"max":[0.00544733926653862,0.0063606034964323,0.00622863508760929],"min":[-0.00728773977607,-0.00228821649216,-0.00722651928663],"type":"VEC3"},{"bufferView":2,"byteOffset":0,"componentType":5126,"count":276,"type":"VEC3"},{"bufferView":3,"byteOffset":0,"componentType":5126,"count":276,"type":"VEC2"}],"asset":{"generator":"FBX2glTF v0.13.1","version":"2.0"},"bufferViews":[{"buffer":0,"byteLength":636,"byteOffset":0,"target":34963},{"buffer":0,"byteLength":3312,"byteOffset":636,"target":34962},{"buffer":0,"byteLength":3312,"byteOffset":3948,"target":34962},{"buffer":0,"byteLength":2208,"byteOffset":7260,"target":34962}],"buffers":[{"byteLength":9468,"uri":"tree-spruce-stump-a.bin"}],"materials":[{"alphaMode":"OPAQUE","doubleSided":false,"extras":{"fromFBX":{"isTruePBR":false,"shadingModel":"Phong"}},"name":"Universal Shader V4","pbrMetallicRoughness":{"baseColorFactor":[0.106610722839832,0.0447827018797398,0.0133064528927207,1],"metallicFactor":0.400000005960464,"roughnessFactor":0.229415729641914}}],"meshes":[{"name":"tree-spruce-stump-a","primitives":[{"attributes":{"NORMAL":2,"POSITION":1,"TEXCOORD_0":3},"indices":0,"material":0,"mode":4}]}],"nodes":[{"mesh":0,"name":"tree-spruce-stump-a","rotation":[0,0,0,1],"scale":[1,1,1],"translation":[0,0,0]}],"samplers":[{}],"scene":0,"scenes":[{"name":"Root Scene","nodes":[0]}]}