{"accessors":[{"bufferView":0,"byteOffset":0,"componentType":5123,"count":2223,"type":"SCALAR"},{"bufferView":1,"byteOffset":0,"componentType":5126,"count":2165,"max":[0.0193030405789614,0.0994088351726532,0.0206891316920519],"min":[-0.02190191671252,-0.00232200440951,-0.01956518925726],"type":"VEC3"},{"bufferView":2,"byteOffset":0,"componentType":5126,"count":2165,"type":"VEC3"},{"bufferView":3,"byteOffset":0,"componentType":5126,"count":2165,"type":"VEC2"}],"asset":{"generator":"FBX2glTF v0.13.1","version":"2.0"},"bufferViews":[{"buffer":0,"byteLength":4446,"byteOffset":0,"target":34963},{"buffer":0,"byteLength":25980,"byteOffset":4448,"target":34962},{"buffer":0,"byteLength":25980,"byteOffset":30428,"target":34962},{"buffer":0,"byteLength":17320,"byteOffset":56408,"target":34962}],"buffers":[{"byteLength":73728,"uri":"tree-beech-dead-a.bin"}],"materials":[{"alphaMode":"OPAQUE","doubleSided":false,"extras":{"fromFBX":{"isTruePBR":false,"shadingModel":"Phong"}},"name":"Universal Shader V10 - A","pbrMetallicRoughness":{"baseColorFactor":[0.800000011920929,0.800000011920929,0.800000011920929,1],"metallicFactor":0.400000005960464,"roughnessFactor":0.229415729641914}}],"meshes":[{"name":"tree-beech-dead-a","primitives":[{"attributes":{"NORMAL":2,"POSITION":1,"TEXCOORD_0":3},"indices":0,"material":0,"mode":4}]}],"nodes":[{"mesh":0,"name":"tree-beech-dead-a","rotation":[0,0,0,1],"scale":[1,1,1],"translation":[0,0,0]}],"samplers":[{}],"scene":0,"scenes":[{"name":"Root Scene","nodes":[0]}]}