{"accessors":[{"bufferView":0,"byteOffset":0,"componentType":5123,"count":2280,"type":"SCALAR"},{"bufferView":1,"byteOffset":0,"componentType":5126,"count":2280,"max":[0.0165719352662563,0.0568340606987476,0.01528618671],"min":[-0.01784844323993,0.0178226064890623,-0.0157501231879],"type":"VEC3"},{"bufferView":2,"byteOffset":0,"componentType":5126,"count":2280,"type":"VEC3"},{"bufferView":3,"byteOffset":0,"componentType":5126,"count":2280,"type":"VEC2"},{"bufferView":4,"byteOffset":0,"componentType":5123,"count":1071,"type":"SCALAR"},{"bufferView":5,"byteOffset":0,"componentType":5126,"count":757,"max":[0.0110699171200395,0.0432093739509583,0.003922029864043],"min":[-0.01167248375714,-0.00227608624846,-0.01158395968378],"type":"VEC3"},{"bufferView":6,"byteOffset":0,"componentType":5126,"count":757,"type":"VEC3"},{"bufferView":7,"byteOffset":0,"componentType":5126,"count":757,"type":"VEC2"}],"asset":{"generator":"FBX2glTF v0.13.1","version":"2.0"},"bufferViews":[{"buffer":0,"byteLength":4560,"byteOffset":0,"target":34963},{"buffer":0,"byteLength":27360,"byteOffset":4560,"target":34962},{"buffer":0,"byteLength":27360,"byteOffset":31920,"target":34962},{"buffer":0,"byteLength":18240,"byteOffset":59280,"target":34962},{"buffer":0,"byteLength":2142,"byteOffset":77520,"target":34963},{"buffer":0,"byteLength":9084,"byteOffset":79664,"target":34962},{"buffer":0,"byteLength":9084,"byteOffset":88748,"target":34962},{"buffer":0,"byteLength":6056,"byteOffset":97832,"target":34962}],"buffers":[{"byteLength":103888,"uri":"tree-beech-young-a.bin"}],"materials":[{"alphaMode":"OPAQUE","doubleSided":false,"extras":{"fromFBX":{"isTruePBR":false,"shadingModel":"Phong"}},"name":"Universal Foliage V1 - B","pbrMetallicRoughness":{"baseColorFactor":[0.112882412970066,0.226711452007294,0.0520631447434425,1],"metallicFactor":0.400000005960464,"roughnessFactor":0.229415729641914}},{"alphaMode":"OPAQUE","doubleSided":false,"extras":{"fromFBX":{"isTruePBR":false,"shadingModel":"Phong"}},"name":"Universal Shader V10 - A","pbrMetallicRoughness":{"baseColorFactor":[0.800000011920929,0.800000011920929,0.800000011920929,1],"metallicFactor":0.400000005960464,"roughnessFactor":0.229415729641914}}],"meshes":[{"name":"tree-beech-young-a","primitives":[{"attributes":{"NORMAL":2,"POSITION":1,"TEXCOORD_0":3},"indices":0,"material":0,"mode":4},{"attributes":{"NORMAL":6,"POSITION":5,"TEXCOORD_0":7},"indices":4,"material":1,"mode":4}]}],"nodes":[{"mesh":0,"name":"tree-beech-young-a","rotation":[0,0,0,1],"scale":[1,1,1],"translation":[0,0,0]}],"samplers":[{}],"scene":0,"scenes":[{"name":"Root Scene","nodes":[0]}]}