{"accessors":[{"bufferView":0,"byteOffset":0,"componentType":5123,"count":1086,"type":"SCALAR"},{"bufferView":1,"byteOffset":0,"componentType":5126,"count":1086,"max":[0.0114248190075159,0.100237235426903,0.00786122772842646],"min":[-0.01226512901485,-0.00142434309237,-0.00847412552685],"type":"VEC3"},{"bufferView":2,"byteOffset":0,"componentType":5126,"count":1086,"type":"VEC3"},{"bufferView":3,"byteOffset":0,"componentType":5126,"count":1086,"type":"VEC2"},{"bufferView":4,"byteOffset":0,"componentType":5123,"count":5904,"type":"SCALAR"},{"bufferView":5,"byteOffset":0,"componentType":5126,"count":5902,"max":[0.022761782631278,0.157096385955811,0.0296509359031916],"min":[-0.02705680951476,0.0462692454457283,-0.02387442067266],"type":"VEC3"},{"bufferView":6,"byteOffset":0,"componentType":5126,"count":5902,"type":"VEC3"},{"bufferView":7,"byteOffset":0,"componentType":5126,"count":5902,"type":"VEC2"}],"asset":{"generator":"FBX2glTF v0.13.1","version":"2.0"},"bufferViews":[{"buffer":0,"byteLength":2172,"byteOffset":0,"target":34963},{"buffer":0,"byteLength":13032,"byteOffset":2172,"target":34962},{"buffer":0,"byteLength":13032,"byteOffset":15204,"target":34962},{"buffer":0,"byteLength":8688,"byteOffset":28236,"target":34962},{"buffer":0,"byteLength":11808,"byteOffset":36924,"target":34963},{"buffer":0,"byteLength":70824,"byteOffset":48732,"target":34962},{"buffer":0,"byteLength":70824,"byteOffset":119556,"target":34962},{"buffer":0,"byteLength":47216,"byteOffset":190380,"target":34962}],"buffers":[{"byteLength":237596,"uri":"tree-poplar-mature-a.bin"}],"materials":[{"alphaMode":"OPAQUE","doubleSided":false,"extras":{"fromFBX":{"isTruePBR":false,"shadingModel":"Phong"}},"name":"Universal Shader V4","pbrMetallicRoughness":{"baseColorFactor":[0.106610722839832,0.0447827018797398,0.0133064528927207,1],"metallicFactor":0.400000005960464,"roughnessFactor":0.229415729641914}},{"alphaMode":"OPAQUE","doubleSided":false,"extras":{"fromFBX":{"isTruePBR":false,"shadingModel":"Phong"}},"name":"Universal Foliage V1 - B","pbrMetallicRoughness":{"baseColorFactor":[0.112882412970066,0.226711452007294,0.0520631447434425,1],"metallicFactor":0.400000005960464,"roughnessFactor":0.229415729641914}}],"meshes":[{"name":"tree-poplar-mature-a","primitives":[{"attributes":{"NORMAL":2,"POSITION":1,"TEXCOORD_0":3},"indices":0,"material":0,"mode":4},{"attributes":{"NORMAL":6,"POSITION":5,"TEXCOORD_0":7},"indices":4,"material":1,"mode":4}]}],"nodes":[{"mesh":0,"name":"tree-poplar-mature-a","rotation":[0,0,0,1],"scale":[1,1,1],"translation":[0,0,0]}],"samplers":[{}],"scene":0,"scenes":[{"name":"Root Scene","nodes":[0]}]}