{"accessors":[{"bufferView":0,"byteOffset":0,"componentType":5123,"count":1473,"type":"SCALAR"},{"bufferView":1,"byteOffset":0,"componentType":5126,"count":1473,"max":[0.011528586037457,0.0494079068303108,0.00743302470073104],"min":[-0.01047717407346,-0.00397322745994,-0.00712096272036],"type":"VEC3"},{"bufferView":2,"byteOffset":0,"componentType":5126,"count":1473,"type":"VEC3"},{"bufferView":3,"byteOffset":0,"componentType":5126,"count":1473,"type":"VEC2"},{"bufferView":4,"byteOffset":0,"componentType":5123,"count":4812,"type":"SCALAR"},{"bufferView":5,"byteOffset":0,"componentType":5126,"count":4432,"max":[0.018823578953743,0.0555038638412952,0.0154034718871117],"min":[-0.01948584802449,0.0169913712888956,-0.01322821620852],"type":"VEC3"},{"bufferView":6,"byteOffset":0,"componentType":5126,"count":4432,"type":"VEC3"},{"bufferView":7,"byteOffset":0,"componentType":5126,"count":4432,"type":"VEC2"}],"asset":{"generator":"FBX2glTF v0.13.1","version":"2.0"},"bufferViews":[{"buffer":0,"byteLength":2946,"byteOffset":0,"target":34963},{"buffer":0,"byteLength":17676,"byteOffset":2948,"target":34962},{"buffer":0,"byteLength":17676,"byteOffset":20624,"target":34962},{"buffer":0,"byteLength":11784,"byteOffset":38300,"target":34962},{"buffer":0,"byteLength":9624,"byteOffset":50084,"target":34963},{"buffer":0,"byteLength":53184,"byteOffset":59708,"target":34962},{"buffer":0,"byteLength":53184,"byteOffset":112892,"target":34962},{"buffer":0,"byteLength":35456,"byteOffset":166076,"target":34962}],"buffers":[{"byteLength":201532,"uri":"tree-pine-young-a.bin"}],"materials":[{"alphaMode":"OPAQUE","doubleSided":false,"extras":{"fromFBX":{"isTruePBR":false,"shadingModel":"Phong"}},"name":"Universal Shader V10 - A","pbrMetallicRoughness":{"baseColorFactor":[0.800000011920929,0.800000011920929,0.800000011920929,1],"metallicFactor":0.400000005960464,"roughnessFactor":0.229415729641914}},{"alphaMode":"OPAQUE","doubleSided":false,"extras":{"fromFBX":{"isTruePBR":false,"shadingModel":"Phong"}},"name":"Universal Foliage V1 - C","pbrMetallicRoughness":{"baseColorFactor":[0.0468500107526779,0.0668631121516228,0.00949752610176802,1],"metallicFactor":0.400000005960464,"roughnessFactor":0.229415729641914}}],"meshes":[{"name":"tree-pine-young-a","primitives":[{"attributes":{"NORMAL":2,"POSITION":1,"TEXCOORD_0":3},"indices":0,"material":0,"mode":4},{"attributes":{"NORMAL":6,"POSITION":5,"TEXCOORD_0":7},"indices":4,"material":1,"mode":4}]}],"nodes":[{"mesh":0,"name":"tree-pine-young-a","rotation":[0,0,0,1],"scale":[1,1,1],"translation":[0,0,0]}],"samplers":[{}],"scene":0,"scenes":[{"name":"Root Scene","nodes":[0]}]}