{"accessors":[{"bufferView":0,"byteOffset":0,"componentType":5123,"count":1593,"type":"SCALAR"},{"bufferView":1,"byteOffset":0,"componentType":5126,"count":1581,"max":[0.00603959849104285,0.0897150859236717,0.00608306750655174],"min":[-0.0062752966769,-0.0024130649399,-0.00611423607916],"type":"VEC3"},{"bufferView":2,"byteOffset":0,"componentType":5126,"count":1581,"type":"VEC3"},{"bufferView":3,"byteOffset":0,"componentType":5126,"count":1581,"type":"VEC2"},{"bufferView":4,"byteOffset":0,"componentType":5123,"count":1593,"type":"SCALAR"},{"bufferView":5,"byteOffset":0,"componentType":5126,"count":1593,"max":[0.00624234182760119,0.0788565427064896,0.00663017714396119],"min":[-0.00741820782423,0.00495667895302176,-0.00777818728238],"type":"VEC3"},{"bufferView":6,"byteOffset":0,"componentType":5126,"count":1593,"type":"VEC3"},{"bufferView":7,"byteOffset":0,"componentType":5126,"count":1593,"type":"VEC2"}],"asset":{"generator":"FBX2glTF v0.13.1","version":"2.0"},"bufferViews":[{"buffer":0,"byteLength":3186,"byteOffset":0,"target":34963},{"buffer":0,"byteLength":18972,"byteOffset":3188,"target":34962},{"buffer":0,"byteLength":18972,"byteOffset":22160,"target":34962},{"buffer":0,"byteLength":12648,"byteOffset":41132,"target":34962},{"buffer":0,"byteLength":3186,"byteOffset":53780,"target":34963},{"buffer":0,"byteLength":19116,"byteOffset":56968,"target":34962},{"buffer":0,"byteLength":19116,"byteOffset":76084,"target":34962},{"buffer":0,"byteLength":12744,"byteOffset":95200,"target":34962}],"buffers":[{"byteLength":107944,"uri":"tree-cypress-withered-a.bin"}],"materials":[{"alphaMode":"OPAQUE","doubleSided":false,"extras":{"fromFBX":{"isTruePBR":false,"shadingModel":"Phong"}},"name":"Universal Shader V10 - A","pbrMetallicRoughness":{"baseColorFactor":[0.800000011920929,0.800000011920929,0.800000011920929,1],"metallicFactor":0.400000005960464,"roughnessFactor":0.229415729641914}},{"alphaMode":"OPAQUE","doubleSided":false,"extras":{"fromFBX":{"isTruePBR":false,"shadingModel":"Phong"}},"name":"Universal Foliage V1 - C","pbrMetallicRoughness":{"baseColorFactor":[0.0468500107526779,0.0668631121516228,0.00949752610176802,1],"metallicFactor":0.400000005960464,"roughnessFactor":0.229415729641914}}],"meshes":[{"name":"tree-cypress-withered-a","primitives":[{"attributes":{"NORMAL":2,"POSITION":1,"TEXCOORD_0":3},"indices":0,"material":0,"mode":4},{"attributes":{"NORMAL":6,"POSITION":5,"TEXCOORD_0":7},"indices":4,"material":1,"mode":4}]}],"nodes":[{"mesh":0,"name":"tree-cypress-withered-a","rotation":[0,0,0,1],"scale":[1,1,1],"translation":[0,0,0]}],"samplers":[{}],"scene":0,"scenes":[{"name":"Root Scene","nodes":[0]}]}