{"accessors":[{"bufferView":0,"byteOffset":0,"componentType":5123,"count":3912,"type":"SCALAR"},{"bufferView":1,"byteOffset":0,"componentType":5126,"count":3912,"max":[0.0233516693115234,0.217942535877228,0.0386359170079231],"min":[-0.04333632811904,-0.00842671282589,-0.03146365657449],"type":"VEC3"},{"bufferView":2,"byteOffset":0,"componentType":5126,"count":3912,"type":"VEC3"},{"bufferView":3,"byteOffset":0,"componentType":5126,"count":3912,"type":"VEC2"},{"bufferView":4,"byteOffset":0,"componentType":5123,"count":9258,"type":"SCALAR"},{"bufferView":5,"byteOffset":0,"componentType":5126,"count":9258,"max":[0.032651886343956,0.232381820678711,0.0451361313462257],"min":[-0.05817820504308,0.140908509492874,-0.04390037059784],"type":"VEC3"},{"bufferView":6,"byteOffset":0,"componentType":5126,"count":9258,"type":"VEC3"},{"bufferView":7,"byteOffset":0,"componentType":5126,"count":9258,"type":"VEC2"}],"asset":{"generator":"FBX2glTF v0.13.1","version":"2.0"},"bufferViews":[{"buffer":0,"byteLength":7824,"byteOffset":0,"target":34963},{"buffer":0,"byteLength":46944,"byteOffset":7824,"target":34962},{"buffer":0,"byteLength":46944,"byteOffset":54768,"target":34962},{"buffer":0,"byteLength":31296,"byteOffset":101712,"target":34962},{"buffer":0,"byteLength":18516,"byteOffset":133008,"target":34963},{"buffer":0,"byteLength":111096,"byteOffset":151524,"target":34962},{"buffer":0,"byteLength":111096,"byteOffset":262620,"target":34962},{"buffer":0,"byteLength":74064,"byteOffset":373716,"target":34962}],"buffers":[{"byteLength":447780,"uri":"tree-sequoia-mature-a.bin"}],"materials":[{"alphaMode":"OPAQUE","doubleSided":false,"extras":{"fromFBX":{"isTruePBR":false,"shadingModel":"Phong"}},"name":"Universal Shader V4","pbrMetallicRoughness":{"baseColorFactor":[0.106610722839832,0.0447827018797398,0.0133064528927207,1],"metallicFactor":0.400000005960464,"roughnessFactor":0.229415729641914}},{"alphaMode":"OPAQUE","doubleSided":false,"extras":{"fromFBX":{"isTruePBR":false,"shadingModel":"Phong"}},"name":"Universal Foliage V1 - C","pbrMetallicRoughness":{"baseColorFactor":[0.0468500107526779,0.0668631121516228,0.00949752610176802,1],"metallicFactor":0.400000005960464,"roughnessFactor":0.229415729641914}}],"meshes":[{"name":"tree-sequoia-mature-a","primitives":[{"attributes":{"NORMAL":2,"POSITION":1,"TEXCOORD_0":3},"indices":0,"material":0,"mode":4},{"attributes":{"NORMAL":6,"POSITION":5,"TEXCOORD_0":7},"indices":4,"material":1,"mode":4}]}],"nodes":[{"mesh":0,"name":"tree-sequoia-mature-a","rotation":[0,0,0,1],"scale":[1,1,1],"translation":[0,0,0]}],"samplers":[{}],"scene":0,"scenes":[{"name":"Root Scene","nodes":[0]}]}