{"accessors":[{"bufferView":0,"byteOffset":0,"componentType":5123,"count":2814,"type":"SCALAR"},{"bufferView":1,"byteOffset":0,"componentType":5126,"count":2478,"max":[0.0347604714334011,0.00434769503772259,0.00679530436173081],"min":[-0.04358199983835,-0.00064420280978,-0.00505668763071],"type":"VEC3"},{"bufferView":2,"byteOffset":0,"componentType":5126,"count":2478,"type":"VEC3"},{"bufferView":3,"byteOffset":0,"componentType":5126,"count":2478,"type":"VEC2"}],"asset":{"generator":"FBX2glTF v0.13.1","version":"2.0"},"bufferViews":[{"buffer":0,"byteLength":5628,"byteOffset":0,"target":34963},{"buffer":0,"byteLength":29736,"byteOffset":5628,"target":34962},{"buffer":0,"byteLength":29736,"byteOffset":35364,"target":34962},{"buffer":0,"byteLength":19824,"byteOffset":65100,"target":34962}],"buffers":[{"byteLength":84924,"uri":"tree-pine-log-pile-a.bin"}],"materials":[{"alphaMode":"OPAQUE","doubleSided":false,"extras":{"fromFBX":{"isTruePBR":false,"shadingModel":"Phong"}},"name":"Universal Shader V4","pbrMetallicRoughness":{"baseColorFactor":[0.106610722839832,0.0447827018797398,0.0133064528927207,1],"metallicFactor":0.400000005960464,"roughnessFactor":0.229415729641914}}],"meshes":[{"name":"tree-pine-log-pile-a","primitives":[{"attributes":{"NORMAL":2,"POSITION":1,"TEXCOORD_0":3},"indices":0,"material":0,"mode":4}]}],"nodes":[{"mesh":0,"name":"tree-pine-log-pile-a","rotation":[0,0,0,1],"scale":[1,1,1],"translation":[0,0,0]}],"samplers":[{}],"scene":0,"scenes":[{"name":"Root Scene","nodes":[0]}]}