{"accessors":[{"bufferView":0,"byteOffset":0,"componentType":5123,"count":186,"type":"SCALAR"},{"bufferView":1,"byteOffset":0,"componentType":5126,"count":186,"max":[0.00167379423510283,0.0146329626441002,0.00072807550895959],"min":[-0.00040557023021,-0.00263907993212,-0.00046831203508],"type":"VEC3"},{"bufferView":2,"byteOffset":0,"componentType":5126,"count":186,"type":"VEC3"},{"bufferView":3,"byteOffset":0,"componentType":5126,"count":186,"type":"VEC2"},{"bufferView":4,"byteOffset":0,"componentType":5123,"count":1914,"type":"SCALAR"},{"bufferView":5,"byteOffset":0,"componentType":5126,"count":1914,"max":[0.00359623995609581,0.022595576941967,0.00367484288290143],"min":[-0.00492117041722,0.00660918885841966,-0.00482666678727],"type":"VEC3"},{"bufferView":6,"byteOffset":0,"componentType":5126,"count":1914,"type":"VEC3"},{"bufferView":7,"byteOffset":0,"componentType":5126,"count":1914,"type":"VEC2"}],"asset":{"generator":"FBX2glTF v0.13.1","version":"2.0"},"bufferViews":[{"buffer":0,"byteLength":372,"byteOffset":0,"target":34963},{"buffer":0,"byteLength":2232,"byteOffset":372,"target":34962},{"buffer":0,"byteLength":2232,"byteOffset":2604,"target":34962},{"buffer":0,"byteLength":1488,"byteOffset":4836,"target":34962},{"buffer":0,"byteLength":3828,"byteOffset":6324,"target":34963},{"buffer":0,"byteLength":22968,"byteOffset":10152,"target":34962},{"buffer":0,"byteLength":22968,"byteOffset":33120,"target":34962},{"buffer":0,"byteLength":15312,"byteOffset":56088,"target":34962}],"buffers":[{"byteLength":71400,"uri":"tree-poplar-sapling-a.bin"}],"materials":[{"alphaMode":"OPAQUE","doubleSided":false,"extras":{"fromFBX":{"isTruePBR":false,"shadingModel":"Phong"}},"name":"Universal Shader V10 - A","pbrMetallicRoughness":{"baseColorFactor":[0.800000011920929,0.800000011920929,0.800000011920929,1],"metallicFactor":0.400000005960464,"roughnessFactor":0.229415729641914}},{"alphaMode":"OPAQUE","doubleSided":false,"extras":{"fromFBX":{"isTruePBR":false,"shadingModel":"Phong"}},"name":"Universal Foliage V1 - B","pbrMetallicRoughness":{"baseColorFactor":[0.112882412970066,0.226711452007294,0.0520631447434425,1],"metallicFactor":0.400000005960464,"roughnessFactor":0.229415729641914}}],"meshes":[{"name":"tree-poplar-sapling-a","primitives":[{"attributes":{"NORMAL":2,"POSITION":1,"TEXCOORD_0":3},"indices":0,"material":0,"mode":4},{"attributes":{"NORMAL":6,"POSITION":5,"TEXCOORD_0":7},"indices":4,"material":1,"mode":4}]}],"nodes":[{"mesh":0,"name":"tree-poplar-sapling-a","rotation":[0,0,0,1],"scale":[1,1,1],"translation":[0,0,0]}],"samplers":[{}],"scene":0,"scenes":[{"name":"Root Scene","nodes":[0]}]}