{"accessors":[{"bufferView":0,"byteOffset":0,"componentType":5123,"count":552,"type":"SCALAR"},{"bufferView":1,"byteOffset":0,"componentType":5126,"count":552,"max":[0.0111662400886416,0.00508556421846151,0.00045498734107241],"min":[-0.01059670094401,-0.00011002629617,-0.00332106766291],"type":"VEC3"},{"bufferView":2,"byteOffset":0,"componentType":5126,"count":552,"type":"VEC3"},{"bufferView":3,"byteOffset":0,"componentType":5126,"count":552,"type":"VEC4"},{"bufferView":4,"byteOffset":0,"componentType":5126,"count":552,"type":"VEC2"}],"asset":{"generator":"FBX2glTF v0.13.1","version":"2.0"},"bufferViews":[{"buffer":0,"byteLength":1104,"byteOffset":0,"target":34963},{"buffer":0,"byteLength":6624,"byteOffset":1104,"target":34962},{"buffer":0,"byteLength":6624,"byteOffset":7728,"target":34962},{"buffer":0,"byteLength":8832,"byteOffset":14352,"target":34962},{"buffer":0,"byteLength":4416,"byteOffset":23184,"target":34962}],"buffers":[{"byteLength":27600,"uri":"tree-birch-branch-a.bin"}],"materials":[{"alphaMode":"OPAQUE","doubleSided":false,"extras":{"fromFBX":{"isTruePBR":false,"shadingModel":"Phong"}},"name":"Universal Shader V4","pbrMetallicRoughness":{"baseColorFactor":[0.106610722839832,0.0447827018797398,0.0133064528927207,1],"metallicFactor":0.400000005960464,"roughnessFactor":0.229415729641914}}],"meshes":[{"name":"tree-birch-branch-a","primitives":[{"attributes":{"COLOR_0":3,"NORMAL":2,"POSITION":1,"TEXCOORD_0":4},"indices":0,"material":0,"mode":4}]}],"nodes":[{"mesh":0,"name":"tree-birch-branch-a","rotation":[0,0,0,1],"scale":[1,1,1],"translation":[0,0,0]}],"samplers":[{}],"scene":0,"scenes":[{"name":"Root Scene","nodes":[0]}]}