{"accessors":[{"bufferView":0,"byteOffset":0,"componentType":5123,"count":2226,"type":"SCALAR"},{"bufferView":1,"byteOffset":0,"componentType":5126,"count":2226,"max":[0.0430948063731194,0.0762359127402306,0.0244757123291492],"min":[-0.04331441223621,-0.00434494251385,-0.02189316228032],"type":"VEC3"},{"bufferView":2,"byteOffset":0,"componentType":5126,"count":2226,"type":"VEC3"},{"bufferView":3,"byteOffset":0,"componentType":5126,"count":2226,"type":"VEC2"},{"bufferView":4,"byteOffset":0,"componentType":5123,"count":8973,"type":"SCALAR"},{"bufferView":5,"byteOffset":0,"componentType":5126,"count":8971,"max":[0.0612884871661663,0.0841080397367477,0.0411399304866791],"min":[-0.05735111609101,0.0149484882131219,-0.04956863820553],"type":"VEC3"},{"bufferView":6,"byteOffset":0,"componentType":5126,"count":8971,"type":"VEC3"},{"bufferView":7,"byteOffset":0,"componentType":5126,"count":8971,"type":"VEC2"}],"asset":{"generator":"FBX2glTF v0.13.1","version":"2.0"},"bufferViews":[{"buffer":0,"byteLength":4452,"byteOffset":0,"target":34963},{"buffer":0,"byteLength":26712,"byteOffset":4452,"target":34962},{"buffer":0,"byteLength":26712,"byteOffset":31164,"target":34962},{"buffer":0,"byteLength":17808,"byteOffset":57876,"target":34962},{"buffer":0,"byteLength":17946,"byteOffset":75684,"target":34963},{"buffer":0,"byteLength":107652,"byteOffset":93632,"target":34962},{"buffer":0,"byteLength":107652,"byteOffset":201284,"target":34962},{"buffer":0,"byteLength":71768,"byteOffset":308936,"target":34962}],"buffers":[{"byteLength":380704,"uri":"tree-oak-mature-a.bin"}],"materials":[{"alphaMode":"OPAQUE","doubleSided":false,"extras":{"fromFBX":{"isTruePBR":false,"shadingModel":"Phong"}},"name":"Universal Shader V4","pbrMetallicRoughness":{"baseColorFactor":[0.106610722839832,0.0447827018797398,0.0133064528927207,1],"metallicFactor":0.400000005960464,"roughnessFactor":0.229415729641914}},{"alphaMode":"OPAQUE","doubleSided":false,"extras":{"fromFBX":{"isTruePBR":false,"shadingModel":"Phong"}},"name":"Universal Foliage V1 - A","pbrMetallicRoughness":{"baseColorFactor":[0.230576917529106,0.438745319843292,0.0388147756457329,1],"metallicFactor":0.400000005960464,"roughnessFactor":0.229415729641914}}],"meshes":[{"name":"tree-oak-mature-a","primitives":[{"attributes":{"NORMAL":2,"POSITION":1,"TEXCOORD_0":3},"indices":0,"material":0,"mode":4},{"attributes":{"NORMAL":6,"POSITION":5,"TEXCOORD_0":7},"indices":4,"material":1,"mode":4}]}],"nodes":[{"mesh":0,"name":"tree-oak-mature-a","rotation":[0,0,0,1],"scale":[1,1,1],"translation":[0,0,0]}],"samplers":[{}],"scene":0,"scenes":[{"name":"Root Scene","nodes":[0]}]}