{"accessors":[{"bufferView":0,"byteOffset":0,"componentType":5123,"count":3492,"type":"SCALAR"},{"bufferView":1,"byteOffset":0,"componentType":5126,"count":3354,"max":[0.0430948063731194,0.0767138600349426,0.0244757123291492],"min":[-0.04331441223621,-0.00404910091311,-0.02097332105041],"type":"VEC3"},{"bufferView":2,"byteOffset":0,"componentType":5126,"count":3354,"type":"VEC3"},{"bufferView":3,"byteOffset":0,"componentType":5126,"count":3354,"type":"VEC2"}],"asset":{"generator":"FBX2glTF v0.13.1","version":"2.0"},"bufferViews":[{"buffer":0,"byteLength":6984,"byteOffset":0,"target":34963},{"buffer":0,"byteLength":40248,"byteOffset":6984,"target":34962},{"buffer":0,"byteLength":40248,"byteOffset":47232,"target":34962},{"buffer":0,"byteLength":26832,"byteOffset":87480,"target":34962}],"buffers":[{"byteLength":114312,"uri":"tree-oak-dead-a.bin"}],"materials":[{"alphaMode":"OPAQUE","doubleSided":false,"extras":{"fromFBX":{"isTruePBR":false,"shadingModel":"Phong"}},"name":"Universal Shader V10 - A","pbrMetallicRoughness":{"baseColorFactor":[0.800000011920929,0.800000011920929,0.800000011920929,1],"metallicFactor":0.400000005960464,"roughnessFactor":0.229415729641914}}],"meshes":[{"name":"tree-oak-dead-a","primitives":[{"attributes":{"NORMAL":2,"POSITION":1,"TEXCOORD_0":3},"indices":0,"material":0,"mode":4}]}],"nodes":[{"mesh":0,"name":"tree-oak-dead-a","rotation":[0,0,0,1],"scale":[1,1,1],"translation":[0,0,0]}],"samplers":[{}],"scene":0,"scenes":[{"name":"Root Scene","nodes":[0]}]}