{"accessors":[{"bufferView":0,"byteOffset":0,"componentType":5123,"count":3534,"type":"SCALAR"},{"bufferView":1,"byteOffset":0,"componentType":5126,"count":3534,"max":[0.0130229908972979,0.093203529715538,0.0117256641387939],"min":[-0.00954916421324,-0.00232088565826,-0.00969243515283],"type":"VEC3"},{"bufferView":2,"byteOffset":0,"componentType":5126,"count":3534,"type":"VEC3"},{"bufferView":3,"byteOffset":0,"componentType":5126,"count":3534,"type":"VEC4"},{"bufferView":4,"byteOffset":0,"componentType":5126,"count":3534,"type":"VEC2"},{"bufferView":5,"byteOffset":0,"componentType":5123,"count":2418,"type":"SCALAR"},{"bufferView":6,"byteOffset":0,"componentType":5126,"count":2418,"max":[0.0213233958929777,0.113020740449429,0.0183042194694281],"min":[-0.0171593669802,0.0691815391182899,-0.02045684121549],"type":"VEC3"},{"bufferView":7,"byteOffset":0,"componentType":5126,"count":2418,"type":"VEC3"},{"bufferView":8,"byteOffset":0,"componentType":5126,"count":2418,"type":"VEC4"},{"bufferView":9,"byteOffset":0,"componentType":5126,"count":2418,"type":"VEC2"}],"asset":{"generator":"FBX2glTF v0.13.1","version":"2.0"},"bufferViews":[{"buffer":0,"byteLength":7068,"byteOffset":0,"target":34963},{"buffer":0,"byteLength":42408,"byteOffset":7068,"target":34962},{"buffer":0,"byteLength":42408,"byteOffset":49476,"target":34962},{"buffer":0,"byteLength":56544,"byteOffset":91884,"target":34962},{"buffer":0,"byteLength":28272,"byteOffset":148428,"target":34962},{"buffer":0,"byteLength":4836,"byteOffset":176700,"target":34963},{"buffer":0,"byteLength":29016,"byteOffset":181536,"target":34962},{"buffer":0,"byteLength":29016,"byteOffset":210552,"target":34962},{"buffer":0,"byteLength":38688,"byteOffset":239568,"target":34962},{"buffer":0,"byteLength":19344,"byteOffset":278256,"target":34962}],"buffers":[{"byteLength":297600,"uri":"tree-birch-mature-b.bin"}],"materials":[{"alphaMode":"OPAQUE","doubleSided":false,"extras":{"fromFBX":{"isTruePBR":false,"shadingModel":"Phong"}},"name":"Universal Shader V4","pbrMetallicRoughness":{"baseColorFactor":[0.106610722839832,0.0447827018797398,0.0133064528927207,1],"metallicFactor":0.400000005960464,"roughnessFactor":0.229415729641914}},{"alphaMode":"OPAQUE","doubleSided":false,"extras":{"fromFBX":{"isTruePBR":false,"shadingModel":"Phong"}},"name":"Universal Foliage V1 - A","pbrMetallicRoughness":{"baseColorFactor":[0.230576917529106,0.438745319843292,0.0388147756457329,1],"metallicFactor":0.400000005960464,"roughnessFactor":0.229415729641914}}],"meshes":[{"name":"tree-birch-mature-b","primitives":[{"attributes":{"COLOR_0":3,"NORMAL":2,"POSITION":1,"TEXCOORD_0":4},"indices":0,"material":0,"mode":4},{"attributes":{"COLOR_0":8,"NORMAL":7,"POSITION":6,"TEXCOORD_0":9},"indices":5,"material":1,"mode":4}]}],"nodes":[{"mesh":0,"name":"tree-birch-mature-b","rotation":[0,0,0,1],"scale":[1,1,1],"translation":[0,0,0]}],"samplers":[{}],"scene":0,"scenes":[{"name":"Root Scene","nodes":[0]}]}