{"accessors":[{"bufferView":0,"byteOffset":0,"componentType":5123,"count":768,"type":"SCALAR"},{"bufferView":1,"byteOffset":0,"componentType":5126,"count":768,"max":[0.0037662242539227,0.0345895625650883,0.00397774251177907],"min":[-0.00318404845893,-0.00252772145905,-0.00327699119225],"type":"VEC3"},{"bufferView":2,"byteOffset":0,"componentType":5126,"count":768,"type":"VEC3"},{"bufferView":3,"byteOffset":0,"componentType":5126,"count":768,"type":"VEC2"},{"bufferView":4,"byteOffset":0,"componentType":5123,"count":1560,"type":"SCALAR"},{"bufferView":5,"byteOffset":0,"componentType":5126,"count":1560,"max":[0.0151784867048264,0.0714588165283203,0.0137902135029435],"min":[-0.01536412350833,0.0187949910759926,-0.01249172259122],"type":"VEC3"},{"bufferView":6,"byteOffset":0,"componentType":5126,"count":1560,"type":"VEC3"},{"bufferView":7,"byteOffset":0,"componentType":5126,"count":1560,"type":"VEC2"}],"asset":{"generator":"FBX2glTF v0.13.1","version":"2.0"},"bufferViews":[{"buffer":0,"byteLength":1536,"byteOffset":0,"target":34963},{"buffer":0,"byteLength":9216,"byteOffset":1536,"target":34962},{"buffer":0,"byteLength":9216,"byteOffset":10752,"target":34962},{"buffer":0,"byteLength":6144,"byteOffset":19968,"target":34962},{"buffer":0,"byteLength":3120,"byteOffset":26112,"target":34963},{"buffer":0,"byteLength":18720,"byteOffset":29232,"target":34962},{"buffer":0,"byteLength":18720,"byteOffset":47952,"target":34962},{"buffer":0,"byteLength":12480,"byteOffset":66672,"target":34962}],"buffers":[{"byteLength":79152,"uri":"tree-poplar-young-a.bin"}],"materials":[{"alphaMode":"OPAQUE","doubleSided":false,"extras":{"fromFBX":{"isTruePBR":false,"shadingModel":"Phong"}},"name":"Universal Shader V10 - A","pbrMetallicRoughness":{"baseColorFactor":[0.800000011920929,0.800000011920929,0.800000011920929,1],"metallicFactor":0.400000005960464,"roughnessFactor":0.229415729641914}},{"alphaMode":"OPAQUE","doubleSided":false,"extras":{"fromFBX":{"isTruePBR":false,"shadingModel":"Phong"}},"name":"Universal Foliage V1 - B","pbrMetallicRoughness":{"baseColorFactor":[0.112882412970066,0.226711452007294,0.0520631447434425,1],"metallicFactor":0.400000005960464,"roughnessFactor":0.229415729641914}}],"meshes":[{"name":"tree-poplar-young-a","primitives":[{"attributes":{"NORMAL":2,"POSITION":1,"TEXCOORD_0":3},"indices":0,"material":0,"mode":4},{"attributes":{"NORMAL":6,"POSITION":5,"TEXCOORD_0":7},"indices":4,"material":1,"mode":4}]}],"nodes":[{"mesh":0,"name":"tree-poplar-young-a","rotation":[0,0,0,1],"scale":[1,1,1],"translation":[0,0,0]}],"samplers":[{}],"scene":0,"scenes":[{"name":"Root Scene","nodes":[0]}]}