{"accessors":[{"bufferView":0,"byteOffset":0,"componentType":5123,"count":1242,"type":"SCALAR"},{"bufferView":1,"byteOffset":0,"componentType":5126,"count":1242,"max":[0.00279408856295049,0.0649349540472031,0.00299003627151251],"min":[-0.00239015929401,-0.00192883959971,-0.00299621676095],"type":"VEC3"},{"bufferView":2,"byteOffset":0,"componentType":5126,"count":1242,"type":"VEC3"},{"bufferView":3,"byteOffset":0,"componentType":5126,"count":1242,"type":"VEC2"},{"bufferView":4,"byteOffset":0,"componentType":5123,"count":2025,"type":"SCALAR"},{"bufferView":5,"byteOffset":0,"componentType":5126,"count":2025,"max":[0.0293210167437792,0.0849295109510422,0.0271841399371624],"min":[-0.02860105410218,0.0369397215545177,-0.02941261790693],"type":"VEC3"},{"bufferView":6,"byteOffset":0,"componentType":5126,"count":2025,"type":"VEC3"},{"bufferView":7,"byteOffset":0,"componentType":5126,"count":2025,"type":"VEC2"}],"asset":{"generator":"FBX2glTF v0.13.1","version":"2.0"},"bufferViews":[{"buffer":0,"byteLength":2484,"byteOffset":0,"target":34963},{"buffer":0,"byteLength":14904,"byteOffset":2484,"target":34962},{"buffer":0,"byteLength":14904,"byteOffset":17388,"target":34962},{"buffer":0,"byteLength":9936,"byteOffset":32292,"target":34962},{"buffer":0,"byteLength":4050,"byteOffset":42228,"target":34963},{"buffer":0,"byteLength":24300,"byteOffset":46280,"target":34962},{"buffer":0,"byteLength":24300,"byteOffset":70580,"target":34962},{"buffer":0,"byteLength":16200,"byteOffset":94880,"target":34962}],"buffers":[{"byteLength":111080,"uri":"tree-palm-mature-a.bin"}],"materials":[{"alphaMode":"OPAQUE","doubleSided":false,"extras":{"fromFBX":{"isTruePBR":false,"shadingModel":"Phong"}},"name":"Universal Shader V4","pbrMetallicRoughness":{"baseColorFactor":[0.106610722839832,0.0447827018797398,0.0133064528927207,1],"metallicFactor":0.400000005960464,"roughnessFactor":0.229415729641914}},{"alphaMode":"OPAQUE","doubleSided":false,"extras":{"fromFBX":{"isTruePBR":false,"shadingModel":"Phong"}},"name":"Universal Foliage V1 - A","pbrMetallicRoughness":{"baseColorFactor":[0.230576917529106,0.438745319843292,0.0388147756457329,1],"metallicFactor":0.400000005960464,"roughnessFactor":0.229415729641914}}],"meshes":[{"name":"tree-palm-mature-a","primitives":[{"attributes":{"NORMAL":2,"POSITION":1,"TEXCOORD_0":3},"indices":0,"material":0,"mode":4},{"attributes":{"NORMAL":6,"POSITION":5,"TEXCOORD_0":7},"indices":4,"material":1,"mode":4}]}],"nodes":[{"mesh":0,"name":"tree-palm-mature-a","rotation":[0,0,0,1],"scale":[1,1,1],"translation":[0,0,0]}],"samplers":[{}],"scene":0,"scenes":[{"name":"Root Scene","nodes":[0]}]}