{"accessors":[{"bufferView":0,"byteOffset":0,"componentType":5123,"count":1026,"type":"SCALAR"},{"bufferView":1,"byteOffset":0,"componentType":5126,"count":1026,"max":[0.0106252897530794,0.0352885872125626,0.0113392435014248],"min":[-0.01120128389448,-0.00367208686657,-0.00978842191398],"type":"VEC3"},{"bufferView":2,"byteOffset":0,"componentType":5126,"count":1026,"type":"VEC3"},{"bufferView":3,"byteOffset":0,"componentType":5126,"count":1026,"type":"VEC2"},{"bufferView":4,"byteOffset":0,"componentType":5123,"count":1872,"type":"SCALAR"},{"bufferView":5,"byteOffset":0,"componentType":5126,"count":1872,"max":[0.019566897302866,0.0497169084846973,0.018005458638072],"min":[-0.02196491137147,0.0170158166438341,-0.01691133156419],"type":"VEC3"},{"bufferView":6,"byteOffset":0,"componentType":5126,"count":1872,"type":"VEC3"},{"bufferView":7,"byteOffset":0,"componentType":5126,"count":1872,"type":"VEC2"}],"asset":{"generator":"FBX2glTF v0.13.1","version":"2.0"},"bufferViews":[{"buffer":0,"byteLength":2052,"byteOffset":0,"target":34963},{"buffer":0,"byteLength":12312,"byteOffset":2052,"target":34962},{"buffer":0,"byteLength":12312,"byteOffset":14364,"target":34962},{"buffer":0,"byteLength":8208,"byteOffset":26676,"target":34962},{"buffer":0,"byteLength":3744,"byteOffset":34884,"target":34963},{"buffer":0,"byteLength":22464,"byteOffset":38628,"target":34962},{"buffer":0,"byteLength":22464,"byteOffset":61092,"target":34962},{"buffer":0,"byteLength":14976,"byteOffset":83556,"target":34962}],"buffers":[{"byteLength":98532,"uri":"tree-oak-young-a.bin"}],"materials":[{"alphaMode":"OPAQUE","doubleSided":false,"extras":{"fromFBX":{"isTruePBR":false,"shadingModel":"Phong"}},"name":"Universal Shader V10 - A","pbrMetallicRoughness":{"baseColorFactor":[0.800000011920929,0.800000011920929,0.800000011920929,1],"metallicFactor":0.400000005960464,"roughnessFactor":0.229415729641914}},{"alphaMode":"OPAQUE","doubleSided":false,"extras":{"fromFBX":{"isTruePBR":false,"shadingModel":"Phong"}},"name":"Universal Foliage V1 - A","pbrMetallicRoughness":{"baseColorFactor":[0.230576917529106,0.438745319843292,0.0388147756457329,1],"metallicFactor":0.400000005960464,"roughnessFactor":0.229415729641914}}],"meshes":[{"name":"tree-oak-young-a","primitives":[{"attributes":{"NORMAL":2,"POSITION":1,"TEXCOORD_0":3},"indices":0,"material":0,"mode":4},{"attributes":{"NORMAL":6,"POSITION":5,"TEXCOORD_0":7},"indices":4,"material":1,"mode":4}]}],"nodes":[{"mesh":0,"name":"tree-oak-young-a","rotation":[0,0,0,1],"scale":[1,1,1],"translation":[0,0,0]}],"samplers":[{}],"scene":0,"scenes":[{"name":"Root Scene","nodes":[0]}]}