{"accessors":[{"bufferView":0,"byteOffset":0,"componentType":5123,"count":432,"type":"SCALAR"},{"bufferView":1,"byteOffset":0,"componentType":5126,"count":312,"max":[0.00480926781892776,0.00329892919398844,0.00585929024964571],"min":[-0.00399991078302,-0.00295645836741,-0.00423325458542],"type":"VEC3"},{"bufferView":2,"byteOffset":0,"componentType":5126,"count":312,"type":"VEC3"},{"bufferView":3,"byteOffset":0,"componentType":5126,"count":312,"type":"VEC2"}],"asset":{"generator":"FBX2glTF v0.13.1","version":"2.0"},"bufferViews":[{"buffer":0,"byteLength":864,"byteOffset":0,"target":34963},{"buffer":0,"byteLength":3744,"byteOffset":864,"target":34962},{"buffer":0,"byteLength":3744,"byteOffset":4608,"target":34962},{"buffer":0,"byteLength":2496,"byteOffset":8352,"target":34962}],"buffers":[{"byteLength":10848,"uri":"tree-pine-stump-a.bin"}],"materials":[{"alphaMode":"OPAQUE","doubleSided":false,"extras":{"fromFBX":{"isTruePBR":false,"shadingModel":"Phong"}},"name":"Universal Shader V4","pbrMetallicRoughness":{"baseColorFactor":[0.106610722839832,0.0447827018797398,0.0133064528927207,1],"metallicFactor":0.400000005960464,"roughnessFactor":0.229415729641914}}],"meshes":[{"name":"tree-pine-stump-a","primitives":[{"attributes":{"NORMAL":2,"POSITION":1,"TEXCOORD_0":3},"indices":0,"material":0,"mode":4}]}],"nodes":[{"mesh":0,"name":"tree-pine-stump-a","rotation":[0,0,0,1],"scale":[1,1,1],"translation":[0,0,0]}],"samplers":[{}],"scene":0,"scenes":[{"name":"Root Scene","nodes":[0]}]}