{"accessors":[{"bufferView":0,"byteOffset":0,"componentType":5123,"count":684,"type":"SCALAR"},{"bufferView":1,"byteOffset":0,"componentType":5126,"count":482,"max":[0.002829494420439,0.0159961394965649,0.00253831944428384],"min":[-0.0042291963473,-0.00265893479809,-0.00233961478807],"type":"VEC3"},{"bufferView":2,"byteOffset":0,"componentType":5126,"count":482,"type":"VEC3"},{"bufferView":3,"byteOffset":0,"componentType":5126,"count":482,"type":"VEC2"},{"bufferView":4,"byteOffset":0,"componentType":5123,"count":918,"type":"SCALAR"},{"bufferView":5,"byteOffset":0,"componentType":5126,"count":918,"max":[0.00568127259612083,0.0203963257372379,0.00482321530580521],"min":[-0.00757207721472,0.00588135188445449,-0.00731990020722],"type":"VEC3"},{"bufferView":6,"byteOffset":0,"componentType":5126,"count":918,"type":"VEC3"},{"bufferView":7,"byteOffset":0,"componentType":5126,"count":918,"type":"VEC2"}],"asset":{"generator":"FBX2glTF v0.13.1","version":"2.0"},"bufferViews":[{"buffer":0,"byteLength":1368,"byteOffset":0,"target":34963},{"buffer":0,"byteLength":5784,"byteOffset":1368,"target":34962},{"buffer":0,"byteLength":5784,"byteOffset":7152,"target":34962},{"buffer":0,"byteLength":3856,"byteOffset":12936,"target":34962},{"buffer":0,"byteLength":1836,"byteOffset":16792,"target":34963},{"buffer":0,"byteLength":11016,"byteOffset":18628,"target":34962},{"buffer":0,"byteLength":11016,"byteOffset":29644,"target":34962},{"buffer":0,"byteLength":7344,"byteOffset":40660,"target":34962}],"buffers":[{"byteLength":48004,"uri":"tree-oak-sapling-a.bin"}],"materials":[{"alphaMode":"OPAQUE","doubleSided":false,"extras":{"fromFBX":{"isTruePBR":false,"shadingModel":"Phong"}},"name":"Universal Shader V10 - A","pbrMetallicRoughness":{"baseColorFactor":[0.800000011920929,0.800000011920929,0.800000011920929,1],"metallicFactor":0.400000005960464,"roughnessFactor":0.229415729641914}},{"alphaMode":"OPAQUE","doubleSided":false,"extras":{"fromFBX":{"isTruePBR":false,"shadingModel":"Phong"}},"name":"Universal Foliage V1 - A","pbrMetallicRoughness":{"baseColorFactor":[0.230576917529106,0.438745319843292,0.0388147756457329,1],"metallicFactor":0.400000005960464,"roughnessFactor":0.229415729641914}}],"meshes":[{"name":"tree-oak-sapling-a","primitives":[{"attributes":{"NORMAL":2,"POSITION":1,"TEXCOORD_0":3},"indices":0,"material":0,"mode":4},{"attributes":{"NORMAL":6,"POSITION":5,"TEXCOORD_0":7},"indices":4,"material":1,"mode":4}]}],"nodes":[{"mesh":0,"name":"tree-oak-sapling-a","rotation":[0,0,0,1],"scale":[1,1,1],"translation":[0,0,0]}],"samplers":[{}],"scene":0,"scenes":[{"name":"Root Scene","nodes":[0]}]}