{"accessors":[{"bufferView":0,"byteOffset":0,"componentType":5123,"count":510,"type":"SCALAR"},{"bufferView":1,"byteOffset":0,"componentType":5126,"count":450,"max":[0.024155156686902,0.00197486556135118,0.00168675289023668],"min":[-0.02474063262343,-0.00036714068847,-0.00132790533826],"type":"VEC3"},{"bufferView":2,"byteOffset":0,"componentType":5126,"count":450,"type":"VEC3"},{"bufferView":3,"byteOffset":0,"componentType":5126,"count":450,"type":"VEC4"},{"bufferView":4,"byteOffset":0,"componentType":5126,"count":450,"type":"VEC2"}],"asset":{"generator":"FBX2glTF v0.13.1","version":"2.0"},"bufferViews":[{"buffer":0,"byteLength":1020,"byteOffset":0,"target":34963},{"buffer":0,"byteLength":5400,"byteOffset":1020,"target":34962},{"buffer":0,"byteLength":5400,"byteOffset":6420,"target":34962},{"buffer":0,"byteLength":7200,"byteOffset":11820,"target":34962},{"buffer":0,"byteLength":3600,"byteOffset":19020,"target":34962}],"buffers":[{"byteLength":22620,"uri":"tree-birch-log-a.bin"}],"materials":[{"alphaMode":"OPAQUE","doubleSided":false,"extras":{"fromFBX":{"isTruePBR":false,"shadingModel":"Phong"}},"name":"Universal Shader V4","pbrMetallicRoughness":{"baseColorFactor":[0.106610722839832,0.0447827018797398,0.0133064528927207,1],"metallicFactor":0.400000005960464,"roughnessFactor":0.229415729641914}}],"meshes":[{"name":"tree-birch-log-a","primitives":[{"attributes":{"COLOR_0":3,"NORMAL":2,"POSITION":1,"TEXCOORD_0":4},"indices":0,"material":0,"mode":4}]}],"nodes":[{"mesh":0,"name":"tree-birch-log-a","rotation":[0,0,0,1],"scale":[1,1,1],"translation":[0,0,0]}],"samplers":[{}],"scene":0,"scenes":[{"name":"Root Scene","nodes":[0]}]}