{"accessors":[{"bufferView":0,"byteOffset":0,"componentType":5123,"count":2058,"type":"SCALAR"},{"bufferView":1,"byteOffset":0,"componentType":5126,"count":1926,"max":[0.0114248190075159,0.0987120792269707,0.00799323618412018],"min":[-0.01226512901485,-0.00142434309237,-0.0090560419485],"type":"VEC3"},{"bufferView":2,"byteOffset":0,"componentType":5126,"count":1926,"type":"VEC3"},{"bufferView":3,"byteOffset":0,"componentType":5126,"count":1926,"type":"VEC2"}],"asset":{"generator":"FBX2glTF v0.13.1","version":"2.0"},"bufferViews":[{"buffer":0,"byteLength":4116,"byteOffset":0,"target":34963},{"buffer":0,"byteLength":23112,"byteOffset":4116,"target":34962},{"buffer":0,"byteLength":23112,"byteOffset":27228,"target":34962},{"buffer":0,"byteLength":15408,"byteOffset":50340,"target":34962}],"buffers":[{"byteLength":65748,"uri":"tree-poplar-dead-a.bin"}],"materials":[{"alphaMode":"OPAQUE","doubleSided":false,"extras":{"fromFBX":{"isTruePBR":false,"shadingModel":"Phong"}},"name":"Universal Shader V10 - A","pbrMetallicRoughness":{"baseColorFactor":[0.800000011920929,0.800000011920929,0.800000011920929,1],"metallicFactor":0.400000005960464,"roughnessFactor":0.229415729641914}}],"meshes":[{"name":"tree-poplar-dead-a","primitives":[{"attributes":{"NORMAL":2,"POSITION":1,"TEXCOORD_0":3},"indices":0,"material":0,"mode":4}]}],"nodes":[{"mesh":0,"name":"tree-poplar-dead-a","rotation":[0,0,0,1],"scale":[1,1,1],"translation":[0,0,0]}],"samplers":[{}],"scene":0,"scenes":[{"name":"Root Scene","nodes":[0]}]}