{"accessors":[{"bufferView":0,"byteOffset":0,"componentType":5123,"count":3840,"type":"SCALAR"},{"bufferView":1,"byteOffset":0,"componentType":5126,"count":2568,"max":[0.0162529721856117,0.0187140349298716,0.0129890935495496],"min":[-0.01586429774761,-0.02844579704106,-0.01581216789782],"type":"VEC3"},{"bufferView":2,"byteOffset":0,"componentType":5126,"count":2568,"type":"VEC3"},{"bufferView":3,"byteOffset":0,"componentType":5126,"count":2568,"type":"VEC2"},{"bufferView":4,"byteOffset":0,"componentType":5123,"count":864,"type":"SCALAR"},{"bufferView":5,"byteOffset":0,"componentType":5126,"count":864,"max":[0.00903721526265144,0.0329513698816299,0.0112659009173512],"min":[-0.00987866241485,0.0151347778737545,-0.00986965186894],"type":"VEC3"},{"bufferView":6,"byteOffset":0,"componentType":5126,"count":864,"type":"VEC3"},{"bufferView":7,"byteOffset":0,"componentType":5126,"count":864,"type":"VEC2"}],"asset":{"generator":"FBX2glTF v0.13.1","version":"2.0"},"bufferViews":[{"buffer":0,"byteLength":7680,"byteOffset":0,"target":34963},{"buffer":0,"byteLength":30816,"byteOffset":7680,"target":34962},{"buffer":0,"byteLength":30816,"byteOffset":38496,"target":34962},{"buffer":0,"byteLength":20544,"byteOffset":69312,"target":34962},{"buffer":0,"byteLength":1728,"byteOffset":89856,"target":34963},{"buffer":0,"byteLength":10368,"byteOffset":91584,"target":34962},{"buffer":0,"byteLength":10368,"byteOffset":101952,"target":34962},{"buffer":0,"byteLength":6912,"byteOffset":112320,"target":34962}],"buffers":[{"byteLength":119232,"uri":"tree-mangrove-young-a.bin"}],"materials":[{"alphaMode":"OPAQUE","doubleSided":false,"extras":{"fromFBX":{"isTruePBR":false,"shadingModel":"Phong"}},"name":"Universal Shader V10 - A","pbrMetallicRoughness":{"baseColorFactor":[0.800000011920929,0.800000011920929,0.800000011920929,1],"metallicFactor":0.400000005960464,"roughnessFactor":0.229415729641914}},{"alphaMode":"OPAQUE","doubleSided":false,"extras":{"fromFBX":{"isTruePBR":false,"shadingModel":"Phong"}},"name":"Universal Foliage V1 - A","pbrMetallicRoughness":{"baseColorFactor":[0.230576917529106,0.438745319843292,0.0388147756457329,1],"metallicFactor":0.400000005960464,"roughnessFactor":0.229415729641914}}],"meshes":[{"name":"tree-mangrove-young-a","primitives":[{"attributes":{"NORMAL":2,"POSITION":1,"TEXCOORD_0":3},"indices":0,"material":0,"mode":4},{"attributes":{"NORMAL":6,"POSITION":5,"TEXCOORD_0":7},"indices":4,"material":1,"mode":4}]}],"nodes":[{"mesh":0,"name":"tree-mangrove-young-a","rotation":[0,0,0,1],"scale":[1,1,1],"translation":[0,0,0]}],"samplers":[{}],"scene":0,"scenes":[{"name":"Root Scene","nodes":[0]}]}