{"accessors":[{"bufferView":0,"byteOffset":0,"componentType":5123,"count":2952,"type":"SCALAR"},{"bufferView":1,"byteOffset":0,"componentType":5126,"count":2952,"max":[0.0269988533109426,0.0887223407626152,0.022421583533287],"min":[-0.02802006714046,0.0498937256634235,-0.02859796211123],"type":"VEC3"},{"bufferView":2,"byteOffset":0,"componentType":5126,"count":2952,"type":"VEC3"},{"bufferView":3,"byteOffset":0,"componentType":5126,"count":2952,"type":"VEC2"},{"bufferView":4,"byteOffset":0,"componentType":5123,"count":5748,"type":"SCALAR"},{"bufferView":5,"byteOffset":0,"componentType":5126,"count":5748,"max":[0.0358896292746067,0.0610097572207451,0.0240585561841726],"min":[-0.02364212460816,-0.02887283451855,-0.02596640959382],"type":"VEC3"},{"bufferView":6,"byteOffset":0,"componentType":5126,"count":5748,"type":"VEC3"},{"bufferView":7,"byteOffset":0,"componentType":5126,"count":5748,"type":"VEC2"}],"asset":{"generator":"FBX2glTF v0.13.1","version":"2.0"},"bufferViews":[{"buffer":0,"byteLength":5904,"byteOffset":0,"target":34963},{"buffer":0,"byteLength":35424,"byteOffset":5904,"target":34962},{"buffer":0,"byteLength":35424,"byteOffset":41328,"target":34962},{"buffer":0,"byteLength":23616,"byteOffset":76752,"target":34962},{"buffer":0,"byteLength":11496,"byteOffset":100368,"target":34963},{"buffer":0,"byteLength":68976,"byteOffset":111864,"target":34962},{"buffer":0,"byteLength":68976,"byteOffset":180840,"target":34962},{"buffer":0,"byteLength":45984,"byteOffset":249816,"target":34962}],"buffers":[{"byteLength":295800,"uri":"tree-mangrove-mature-a.bin"}],"materials":[{"alphaMode":"OPAQUE","doubleSided":false,"extras":{"fromFBX":{"isTruePBR":false,"shadingModel":"Phong"}},"name":"Universal Foliage V1 - A","pbrMetallicRoughness":{"baseColorFactor":[0.230576917529106,0.438745319843292,0.0388147756457329,1],"metallicFactor":0.400000005960464,"roughnessFactor":0.229415729641914}},{"alphaMode":"OPAQUE","doubleSided":false,"extras":{"fromFBX":{"isTruePBR":false,"shadingModel":"Phong"}},"name":"Universal Shader V4","pbrMetallicRoughness":{"baseColorFactor":[0.106610722839832,0.0447827018797398,0.0133064528927207,1],"metallicFactor":0.400000005960464,"roughnessFactor":0.229415729641914}}],"meshes":[{"name":"tree-mangrove-mature-a","primitives":[{"attributes":{"NORMAL":2,"POSITION":1,"TEXCOORD_0":3},"indices":0,"material":0,"mode":4},{"attributes":{"NORMAL":6,"POSITION":5,"TEXCOORD_0":7},"indices":4,"material":1,"mode":4}]}],"nodes":[{"mesh":0,"name":"tree-mangrove-mature-a","rotation":[0,0,0,1],"scale":[1,1,1],"translation":[0,0,0]}],"samplers":[{}],"scene":0,"scenes":[{"name":"Root Scene","nodes":[0]}]}