{"accessors":[{"bufferView":0,"byteOffset":0,"componentType":5123,"count":324,"type":"SCALAR"},{"bufferView":1,"byteOffset":0,"componentType":5126,"count":308,"max":[0.00163191021420062,0.00110508396755904,0.0111431693658233],"min":[-0.00471145426854,-0.00003213871241,-0.00985089503229],"type":"VEC3"},{"bufferView":2,"byteOffset":0,"componentType":5126,"count":308,"type":"VEC3"},{"bufferView":3,"byteOffset":0,"componentType":5126,"count":308,"type":"VEC2"}],"asset":{"generator":"FBX2glTF v0.13.1","version":"2.0"},"bufferViews":[{"buffer":0,"byteLength":648,"byteOffset":0,"target":34963},{"buffer":0,"byteLength":3696,"byteOffset":648,"target":34962},{"buffer":0,"byteLength":3696,"byteOffset":4344,"target":34962},{"buffer":0,"byteLength":2464,"byteOffset":8040,"target":34962}],"buffers":[{"byteLength":10504,"uri":"twig-b.bin"}],"materials":[{"alphaMode":"OPAQUE","doubleSided":false,"extras":{"fromFBX":{"isTruePBR":false,"shadingModel":"Phong"}},"name":"Universal Shader V1","pbrMetallicRoughness":{"baseColorFactor":[0.800000011920929,0.800000011920929,0.800000011920929,1],"metallicFactor":0.400000005960464,"roughnessFactor":0.229415729641914}}],"meshes":[{"name":"twig-b","primitives":[{"attributes":{"NORMAL":2,"POSITION":1,"TEXCOORD_0":3},"indices":0,"material":0,"mode":4}]}],"nodes":[{"mesh":0,"name":"twig-b","rotation":[0,0,0,1],"scale":[1,1,1],"translation":[0,0,0]}],"samplers":[{}],"scene":0,"scenes":[{"name":"Root Scene","nodes":[0]}]}