{"accessors":[{"bufferView":0,"byteOffset":0,"componentType":5123,"count":216,"type":"SCALAR"},{"bufferView":1,"byteOffset":0,"componentType":5126,"count":216,"max":[0.0016411937540397,0.00073942844755947,0.00953464955091476],"min":[-0.00051053991774,-0.00005872858674,-0.0064594540745],"type":"VEC3"},{"bufferView":2,"byteOffset":0,"componentType":5126,"count":216,"type":"VEC3"},{"bufferView":3,"byteOffset":0,"componentType":5126,"count":216,"type":"VEC2"}],"asset":{"generator":"FBX2glTF v0.13.1","version":"2.0"},"bufferViews":[{"buffer":0,"byteLength":432,"byteOffset":0,"target":34963},{"buffer":0,"byteLength":2592,"byteOffset":432,"target":34962},{"buffer":0,"byteLength":2592,"byteOffset":3024,"target":34962},{"buffer":0,"byteLength":1728,"byteOffset":5616,"target":34962}],"buffers":[{"byteLength":7344,"uri":"twig-a.bin"}],"materials":[{"alphaMode":"OPAQUE","doubleSided":false,"extras":{"fromFBX":{"isTruePBR":false,"shadingModel":"Phong"}},"name":"Universal Shader V1","pbrMetallicRoughness":{"baseColorFactor":[0.800000011920929,0.800000011920929,0.800000011920929,1],"metallicFactor":0.400000005960464,"roughnessFactor":0.229415729641914}}],"meshes":[{"name":"twig-a","primitives":[{"attributes":{"NORMAL":2,"POSITION":1,"TEXCOORD_0":3},"indices":0,"material":0,"mode":4}]}],"nodes":[{"mesh":0,"name":"twig-a","rotation":[0,0,0,1],"scale":[1,1,1],"translation":[0,0,0]}],"samplers":[{}],"scene":0,"scenes":[{"name":"Root Scene","nodes":[0]}]}