{"accessors":[{"bufferView":0,"byteOffset":0,"componentType":5123,"count":258,"type":"SCALAR"},{"bufferView":1,"byteOffset":0,"componentType":5126,"count":244,"max":[0.0032781520858407,0.00080124259693548,0.00992540922015905],"min":[-0.00105666788295,-0.00005759458872,-0.01259383186698],"type":"VEC3"},{"bufferView":2,"byteOffset":0,"componentType":5126,"count":244,"type":"VEC3"},{"bufferView":3,"byteOffset":0,"componentType":5126,"count":244,"type":"VEC2"}],"asset":{"generator":"FBX2glTF v0.13.1","version":"2.0"},"bufferViews":[{"buffer":0,"byteLength":516,"byteOffset":0,"target":34963},{"buffer":0,"byteLength":2928,"byteOffset":516,"target":34962},{"buffer":0,"byteLength":2928,"byteOffset":3444,"target":34962},{"buffer":0,"byteLength":1952,"byteOffset":6372,"target":34962}],"buffers":[{"byteLength":8324,"uri":"twig-e.bin"}],"materials":[{"alphaMode":"OPAQUE","doubleSided":false,"extras":{"fromFBX":{"isTruePBR":false,"shadingModel":"Phong"}},"name":"Universal Shader V1","pbrMetallicRoughness":{"baseColorFactor":[0.800000011920929,0.800000011920929,0.800000011920929,1],"metallicFactor":0.400000005960464,"roughnessFactor":0.229415729641914}}],"meshes":[{"name":"twig-e","primitives":[{"attributes":{"NORMAL":2,"POSITION":1,"TEXCOORD_0":3},"indices":0,"material":0,"mode":4}]}],"nodes":[{"mesh":0,"name":"twig-e","rotation":[0,0,0,1],"scale":[1,1,1],"translation":[0,0,0]}],"samplers":[{}],"scene":0,"scenes":[{"name":"Root Scene","nodes":[0]}]}