{"accessors":[{"bufferView":0,"byteOffset":0,"componentType":5123,"count":282,"type":"SCALAR"},{"bufferView":1,"byteOffset":0,"componentType":5126,"count":282,"max":[0.0020746688824147,0.00165126787032932,0.0091596320271492],"min":[-0.00178839592263,-0.00011091592751,-0.01201999373734],"type":"VEC3"},{"bufferView":2,"byteOffset":0,"componentType":5126,"count":282,"type":"VEC3"},{"bufferView":3,"byteOffset":0,"componentType":5126,"count":282,"type":"VEC2"}],"asset":{"generator":"FBX2glTF v0.13.1","version":"2.0"},"bufferViews":[{"buffer":0,"byteLength":564,"byteOffset":0,"target":34963},{"buffer":0,"byteLength":3384,"byteOffset":564,"target":34962},{"buffer":0,"byteLength":3384,"byteOffset":3948,"target":34962},{"buffer":0,"byteLength":2256,"byteOffset":7332,"target":34962}],"buffers":[{"byteLength":9588,"uri":"wood-log-b.bin"}],"materials":[{"alphaMode":"OPAQUE","doubleSided":false,"extras":{"fromFBX":{"isTruePBR":false,"shadingModel":"Phong"}},"name":"Universal Shader V1","pbrMetallicRoughness":{"baseColorFactor":[0.800000011920929,0.800000011920929,0.800000011920929,1],"metallicFactor":0.400000005960464,"roughnessFactor":0.229415729641914}}],"meshes":[{"name":"wood-log-b","primitives":[{"attributes":{"NORMAL":2,"POSITION":1,"TEXCOORD_0":3},"indices":0,"material":0,"mode":4}]}],"nodes":[{"mesh":0,"name":"wood-log-b","rotation":[0,0,0,1],"scale":[1,1,1],"translation":[0,0,0]}],"samplers":[{}],"scene":0,"scenes":[{"name":"Root Scene","nodes":[0]}]}