{"accessors":[{"bufferView":0,"byteOffset":0,"componentType":5123,"count":294,"type":"SCALAR"},{"bufferView":1,"byteOffset":0,"componentType":5126,"count":292,"max":[0.00126208853907883,0.00171209732070565,0.00758286938071251],"min":[-0.00276873167604,-0.00009248315473,-0.00792857725173],"type":"VEC3"},{"bufferView":2,"byteOffset":0,"componentType":5126,"count":292,"type":"VEC3"},{"bufferView":3,"byteOffset":0,"componentType":5126,"count":292,"type":"VEC2"}],"asset":{"generator":"FBX2glTF v0.13.1","version":"2.0"},"bufferViews":[{"buffer":0,"byteLength":588,"byteOffset":0,"target":34963},{"buffer":0,"byteLength":3504,"byteOffset":588,"target":34962},{"buffer":0,"byteLength":3504,"byteOffset":4092,"target":34962},{"buffer":0,"byteLength":2336,"byteOffset":7596,"target":34962}],"buffers":[{"byteLength":9932,"uri":"wood-log-c.bin"}],"materials":[{"alphaMode":"OPAQUE","doubleSided":false,"extras":{"fromFBX":{"isTruePBR":false,"shadingModel":"Phong"}},"name":"Universal Shader V1","pbrMetallicRoughness":{"baseColorFactor":[0.800000011920929,0.800000011920929,0.800000011920929,1],"metallicFactor":0.400000005960464,"roughnessFactor":0.229415729641914}}],"meshes":[{"name":"wood-log-c","primitives":[{"attributes":{"NORMAL":2,"POSITION":1,"TEXCOORD_0":3},"indices":0,"material":0,"mode":4}]}],"nodes":[{"mesh":0,"name":"wood-log-c","rotation":[0,0,0,1],"scale":[1,1,1],"translation":[0,0,0]}],"samplers":[{}],"scene":0,"scenes":[{"name":"Root Scene","nodes":[0]}]}