{"accessors":[{"bufferView":0,"byteOffset":0,"componentType":5123,"count":372,"type":"SCALAR"},{"bufferView":1,"byteOffset":0,"componentType":5126,"count":348,"max":[0.00169607310090214,0.0014689591480419,0.00727254990488291],"min":[-0.00200001453049,-0.00004199005707,-0.00909808464348],"type":"VEC3"},{"bufferView":2,"byteOffset":0,"componentType":5126,"count":348,"type":"VEC3"},{"bufferView":3,"byteOffset":0,"componentType":5126,"count":348,"type":"VEC2"}],"asset":{"generator":"FBX2glTF v0.13.1","version":"2.0"},"bufferViews":[{"buffer":0,"byteLength":744,"byteOffset":0,"target":34963},{"buffer":0,"byteLength":4176,"byteOffset":744,"target":34962},{"buffer":0,"byteLength":4176,"byteOffset":4920,"target":34962},{"buffer":0,"byteLength":2784,"byteOffset":9096,"target":34962}],"buffers":[{"byteLength":11880,"uri":"wood-log-a.bin"}],"materials":[{"alphaMode":"OPAQUE","doubleSided":false,"extras":{"fromFBX":{"isTruePBR":false,"shadingModel":"Phong"}},"name":"Universal Shader V1","pbrMetallicRoughness":{"baseColorFactor":[0.800000011920929,0.800000011920929,0.800000011920929,1],"metallicFactor":0.400000005960464,"roughnessFactor":0.229415729641914}}],"meshes":[{"name":"wood-log-a","primitives":[{"attributes":{"NORMAL":2,"POSITION":1,"TEXCOORD_0":3},"indices":0,"material":0,"mode":4}]}],"nodes":[{"mesh":0,"name":"wood-log-a","rotation":[0,0,0,1],"scale":[1,1,1],"translation":[0,0,0]}],"samplers":[{}],"scene":0,"scenes":[{"name":"Root Scene","nodes":[0]}]}